if (_typeface_js && _typeface_js.loadFace) _typeface_js.loadFace({"glyphs":{"0":{"ha":1006,"x_min":79,"x_max":926,"o":"m 501 -17 q 328 22 406 -17 q 194 129 250 61 q 109 288 139 197 q 79 483 79 379 l 79 486 q 110 682 79 590 q 196 842 140 774 q 330 949 251 910 q 504 989 408 989 q 678 950 600 989 q 810 843 756 911 q 896 684 865 775 q 926 489 926 593 l 926 486 q 896 290 926 382 q 810 131 865 199 q 676 23 754 63 q 501 -17 597 -17 m 504 138 q 606 165 561 138 q 683 239 651 192 q 733 349 715 286 q 750 483 750 413 l 750 486 q 732 622 750 558 q 682 732 714 685 q 603 807 650 779 q 501 835 557 835 q 399 808 444 835 q 322 734 354 781 q 273 624 290 688 q 256 489 256 561 l 256 486 q 273 351 256 414 q 323 240 290 288 q 401 165 356 193 q 504 138 447 138 z "},"1":{"ha":550,"x_min":36,"x_max":417,"o":"m 247 806 l 72 757 l 36 896 l 299 979 l 417 979 l 417 0 l 247 0 l 247 806 z "},"2":{"ha":851,"x_min":68,"x_max":771,"o":"m 68 135 l 403 419 q 488 497 453 463 q 544 560 522 531 q 575 619 565 590 q 585 682 585 649 q 540 794 585 754 q 428 833 494 833 q 310 797 361 833 q 204 688 260 761 l 82 783 q 153 869 117 832 q 231 933 189 907 q 324 973 274 960 q 440 986 375 986 q 570 965 511 986 q 672 906 629 944 q 738 815 714 868 q 761 696 761 761 l 761 693 q 746 590 761 636 q 699 500 731 543 q 620 413 668 457 q 508 317 572 369 l 308 150 l 771 150 l 771 0 l 68 0 l 68 135 z "},"3":{"ha":858,"x_min":60,"x_max":772,"o":"m 432 -17 q 213 31 304 -17 q 60 154 122 79 l 179 265 q 292 170 232 203 q 435 138 353 138 q 555 178 507 138 q 603 285 603 218 l 603 288 q 542 399 603 360 q 379 438 482 438 l 300 438 l 272 544 l 535 824 l 114 824 l 114 972 l 757 972 l 757 844 l 486 567 q 593 542 542 560 q 684 491 644 524 q 748 410 724 458 q 772 294 772 361 l 772 292 q 747 168 772 225 q 678 70 722 111 q 571 6 633 29 q 432 -17 508 -17 z "},"4":{"ha":947,"x_min":50,"x_max":875,"o":"m 572 218 l 82 218 l 50 340 l 590 979 l 736 979 l 736 358 l 875 358 l 875 218 l 736 218 l 736 0 l 572 0 l 572 218 m 572 358 l 572 743 l 253 358 l 572 358 z "},"5":{"ha":865,"x_min":65,"x_max":783,"o":"m 422 -17 q 222 24 310 -17 q 65 132 135 65 l 171 256 q 291 170 229 201 q 421 139 353 139 q 561 185 508 139 q 614 307 614 231 l 614 310 q 558 428 614 385 q 413 471 501 471 q 315 458 360 471 q 233 428 271 446 l 131 496 l 158 972 l 740 972 l 740 821 l 306 821 l 290 593 q 360 613 325 606 q 444 621 396 621 q 577 602 515 621 q 685 545 639 583 q 757 449 731 507 q 783 315 783 392 l 783 313 q 757 177 783 238 q 683 74 731 117 q 569 7 636 31 q 422 -17 503 -17 z "},"6":{"ha":911,"x_min":79,"x_max":829,"o":"m 468 -17 q 312 10 378 -17 q 197 86 246 38 q 148 148 169 114 q 111 226 126 182 q 88 326 96 269 q 79 457 79 383 l 79 460 q 106 667 79 571 q 184 835 132 764 q 315 948 236 907 q 496 989 393 989 q 660 960 590 989 q 793 881 729 932 l 701 749 q 603 811 650 789 q 490 833 556 833 q 383 803 426 833 q 311 728 339 774 q 271 628 283 683 q 257 524 258 574 q 356 595 300 568 q 490 622 411 622 q 623 602 561 622 q 731 542 685 582 q 803 446 776 503 q 829 317 829 389 l 829 314 q 801 181 829 242 q 725 76 774 119 q 610 8 676 32 q 468 -17 544 -17 m 464 132 q 607 182 556 132 q 658 307 658 232 l 658 310 q 605 431 658 383 q 460 479 551 479 q 378 465 414 479 q 316 428 342 451 q 276 374 290 406 q 263 308 263 343 l 263 306 q 317 181 263 231 q 464 132 372 132 z "},"7":{"ha":846,"x_min":94,"x_max":778,"o":"m 583 822 l 94 822 l 94 972 l 778 972 l 778 843 l 340 0 l 147 0 l 583 822 z "},"8":{"ha":875,"x_min":67,"x_max":808,"o":"m 438 -14 q 290 6 358 -14 q 172 63 222 26 q 94 151 122 99 q 67 265 67 203 l 67 268 q 113 413 67 356 q 242 504 158 469 q 140 588 179 536 q 100 721 100 639 l 100 724 q 126 827 100 779 q 196 910 151 875 q 302 966 240 946 q 438 986 364 986 q 572 966 510 986 q 679 911 635 946 q 749 828 724 876 q 775 724 775 779 l 775 721 q 735 588 775 639 q 633 504 696 536 q 761 413 714 468 q 808 271 808 358 l 808 268 q 781 151 808 203 q 703 62 753 99 q 585 6 653 25 q 438 -14 517 -14 m 438 561 q 562 601 513 561 q 611 704 611 642 l 611 707 q 564 803 611 764 q 438 843 517 843 q 311 803 358 843 q 264 708 264 764 l 264 706 q 313 601 264 642 q 438 561 363 561 m 438 129 q 588 172 533 129 q 642 275 642 214 l 642 278 q 626 338 642 311 q 583 385 610 365 q 518 415 556 404 q 438 425 481 425 q 357 415 394 425 q 292 385 319 404 q 250 338 265 365 q 235 278 235 311 l 235 275 q 288 172 235 215 q 438 129 342 129 z "},"9":{"ha":911,"x_min":82,"x_max":832,"o":"m 419 139 q 528 169 483 139 q 601 244 574 199 q 642 343 629 289 q 656 446 656 397 q 558 369 615 397 q 426 342 501 342 q 285 363 349 342 q 177 425 222 385 q 107 522 132 465 q 82 650 82 579 l 82 653 q 108 785 82 724 q 183 892 135 847 q 297 963 231 938 q 444 989 364 989 q 599 963 536 989 q 715 886 663 938 q 800 745 768 832 q 832 515 832 658 l 832 513 q 803 298 832 396 q 722 131 775 200 q 591 22 668 61 q 415 -17 514 -17 q 240 16 314 -17 q 104 100 167 49 l 197 231 q 305 162 253 185 q 419 139 357 139 m 451 485 q 534 499 497 485 q 597 537 571 513 q 635 592 622 561 q 649 660 649 624 l 649 663 q 594 790 649 739 q 446 842 539 842 q 365 828 400 842 q 304 789 329 814 q 266 731 279 764 q 253 661 253 699 l 253 658 q 306 533 253 582 q 451 485 360 485 z "}," ":{"ha":417,"x_min":0,"x_max":0,"o":""},"D":{"ha":1086,"x_min":125,"x_max":1004,"o":"m 125 972 l 488 972 q 697 935 601 972 q 860 833 792 899 q 967 680 929 768 q 1004 489 1004 592 l 1004 486 q 967 294 1004 383 q 860 140 929 206 q 697 38 792 75 q 488 0 601 0 l 125 0 l 125 972 m 296 817 l 296 156 l 488 156 q 626 180 564 156 q 733 248 689 204 q 801 352 776 292 q 825 483 825 413 l 825 486 q 801 618 825 557 q 733 723 776 679 q 626 792 689 767 q 488 817 564 817 l 296 817 z "},"E":{"ha":931,"x_min":125,"x_max":853,"o":"m 125 972 l 846 972 l 846 819 l 296 819 l 296 567 l 783 567 l 783 414 l 296 414 l 296 153 l 853 153 l 853 0 l 125 0 l 125 972 z "},"F":{"ha":911,"x_min":125,"x_max":849,"o":"m 125 972 l 849 972 l 849 817 l 296 817 l 296 551 l 786 551 l 786 396 l 296 396 l 296 0 l 125 0 l 125 972 z "},"G":{"ha":1089,"x_min":82,"x_max":992,"o":"m 586 -17 q 379 22 472 -17 q 220 127 286 60 q 118 285 154 194 q 82 483 82 376 l 82 486 q 119 679 82 588 q 222 840 156 771 q 381 949 289 908 q 583 989 474 989 q 699 980 647 989 q 796 954 751 971 q 880 913 840 938 q 957 857 919 889 l 849 728 q 792 771 821 751 q 731 803 763 790 q 660 824 699 817 q 576 832 622 832 q 452 804 510 832 q 352 730 394 776 q 285 621 310 683 q 261 489 261 558 l 261 486 q 285 347 261 411 q 352 238 308 283 q 456 165 396 192 q 592 139 517 139 q 722 159 661 139 q 826 213 782 179 l 826 394 l 578 394 l 578 543 l 992 543 l 992 135 q 912 76 956 104 q 817 28 868 49 q 708 -5 767 7 q 586 -17 650 -17 z "},"H":{"ha":1056,"x_min":125,"x_max":931,"o":"m 125 972 l 296 972 l 296 568 l 760 568 l 760 972 l 931 972 l 931 0 l 760 0 l 760 410 l 296 410 l 296 0 l 125 0 l 125 972 z "},"I":{"ha":440,"x_min":135,"x_max":306,"o":"m 135 972 l 306 972 l 306 0 l 135 0 l 135 972 z "},"J":{"ha":778,"x_min":29,"x_max":668,"o":"m 340 -14 q 153 31 228 -14 q 29 143 78 76 l 142 260 q 230 174 185 204 q 338 144 275 144 q 449 191 407 144 q 492 336 492 238 l 492 972 l 668 972 l 668 331 q 644 179 668 243 q 576 72 619 115 q 474 8 533 29 q 340 -14 414 -14 z "},"K":{"ha":1008,"x_min":125,"x_max":988,"o":"m 125 972 l 296 972 l 296 483 l 758 972 l 969 972 l 564 554 l 988 0 l 779 0 l 447 438 l 296 282 l 296 0 l 125 0 l 125 972 z "},"L":{"ha":860,"x_min":125,"x_max":807,"o":"m 125 972 l 296 972 l 296 156 l 807 156 l 807 0 l 125 0 l 125 972 z "},"M":{"ha":1206,"x_min":125,"x_max":1081,"o":"m 125 972 l 307 972 l 603 513 l 899 972 l 1081 972 l 1081 0 l 910 0 l 910 697 l 603 239 l 597 239 l 293 694 l 293 0 l 125 0 l 125 972 z "},"N":{"ha":1097,"x_min":125,"x_max":972,"o":"m 125 972 l 283 972 l 804 300 l 804 972 l 972 972 l 972 0 l 829 0 l 293 692 l 293 0 l 125 0 l 125 972 z "},"O":{"ha":1181,"x_min":82,"x_max":1099,"o":"m 589 -17 q 383 23 476 -17 q 224 131 290 63 q 119 290 157 199 q 82 483 82 381 l 82 486 q 119 680 82 589 q 225 840 157 771 q 386 949 293 908 q 592 989 479 989 q 797 949 704 989 q 957 842 890 910 q 1061 683 1024 774 q 1099 489 1099 592 l 1099 486 q 1061 292 1099 383 q 956 133 1024 201 q 794 24 888 64 q 589 -17 701 -17 m 592 142 q 724 169 664 142 q 828 242 785 196 q 895 350 871 288 q 919 483 919 413 l 919 486 q 895 620 919 557 q 827 730 871 683 q 722 804 783 776 q 589 832 661 832 q 456 805 517 832 q 353 731 396 778 q 285 622 310 685 q 261 489 261 560 l 261 486 q 285 353 261 415 q 353 243 310 290 q 458 169 397 196 q 592 142 519 142 z "},"P":{"ha":928,"x_min":125,"x_max":878,"o":"m 125 972 l 508 972 q 662 949 593 972 q 778 883 731 926 q 852 781 826 840 q 878 647 878 721 l 878 644 q 847 501 878 563 q 764 397 817 439 q 640 334 711 356 q 489 313 569 313 l 296 313 l 296 0 l 125 0 l 125 972 m 494 467 q 648 515 592 467 q 704 640 704 564 l 704 643 q 647 773 704 729 q 494 817 590 817 l 296 817 l 296 467 l 494 467 z "},"Q":{"ha":1181,"x_min":82,"x_max":1111,"o":"m 1001 -29 l 885 75 q 749 8 822 32 q 589 -17 675 -17 q 383 23 476 -17 q 224 131 290 63 q 119 290 157 199 q 82 483 82 381 l 82 486 q 119 680 82 589 q 225 840 157 771 q 386 949 293 908 q 592 989 479 989 q 797 949 704 989 q 957 842 890 910 q 1061 683 1024 774 q 1099 489 1099 592 l 1099 486 q 1073 327 1099 403 q 1000 188 1047 251 l 1111 93 l 1001 -29 m 592 142 q 682 153 640 142 q 760 186 724 165 l 592 329 l 701 454 l 872 299 q 919 483 919 381 l 919 486 q 895 620 919 557 q 827 730 871 683 q 722 804 783 776 q 589 832 661 832 q 456 805 517 832 q 353 731 396 778 q 285 622 310 685 q 261 489 261 560 l 261 486 q 285 353 261 415 q 353 243 310 290 q 458 169 397 196 q 592 142 519 142 z "},"R":{"ha":1004,"x_min":125,"x_max":951,"o":"m 125 972 l 558 972 q 721 947 650 972 q 839 875 792 921 q 899 782 878 835 q 919 665 919 729 l 919 663 q 855 470 919 543 q 689 368 790 397 l 951 0 l 749 0 l 510 339 l 296 339 l 296 0 l 125 0 l 125 972 m 546 490 q 692 534 638 490 q 746 653 746 578 l 746 656 q 693 776 746 735 q 544 817 640 817 l 296 817 l 296 490 l 546 490 z "},"S":{"ha":889,"x_min":60,"x_max":813,"o":"m 465 -14 q 250 24 353 -14 q 60 142 147 63 l 163 264 q 306 170 233 203 q 469 138 379 138 q 595 172 549 138 q 642 260 642 206 l 642 263 q 633 309 642 289 q 599 347 624 329 q 533 381 575 365 q 422 411 490 396 q 284 452 344 429 q 183 508 224 475 q 120 588 142 540 q 99 701 99 635 l 99 704 q 124 819 99 767 q 192 908 149 871 q 297 965 236 944 q 431 986 358 986 q 623 955 538 986 q 783 864 708 924 l 692 735 q 560 809 625 783 q 428 835 494 835 q 311 801 353 835 q 269 719 269 768 l 269 717 q 279 667 269 689 q 315 628 289 646 q 386 596 342 611 q 501 564 431 581 q 636 521 578 544 q 734 463 694 497 q 793 384 774 429 q 813 279 813 339 l 813 276 q 787 154 813 208 q 715 63 761 100 q 606 6 669 25 q 465 -14 542 -14 z "},"T":{"ha":900,"x_min":56,"x_max":844,"o":"m 364 814 l 56 814 l 56 972 l 844 972 l 844 814 l 536 814 l 536 0 l 364 0 l 364 814 z "},"U":{"ha":1051,"x_min":110,"x_max":942,"o":"m 524 -15 q 353 12 429 -15 q 222 93 276 39 q 139 227 168 147 q 110 413 110 307 l 110 972 l 281 972 l 281 419 q 346 213 281 283 q 526 143 411 143 q 706 210 640 143 q 771 413 771 278 l 771 972 l 942 972 l 942 421 q 912 231 942 313 q 828 94 882 149 q 697 12 774 39 q 524 -15 619 -15 z "},"V":{"ha":1042,"x_min":42,"x_max":1000,"o":"m 42 972 l 231 972 l 524 225 l 815 972 l 1000 972 l 597 -7 l 446 -7 l 42 972 z "},"W":{"ha":1550,"x_min":50,"x_max":1500,"o":"m 50 972 l 235 972 l 467 251 l 706 975 l 850 975 l 1089 251 l 1321 972 l 1500 972 l 1163 -7 l 1014 -7 l 775 692 l 536 -7 l 389 -7 l 50 972 z "},"X":{"ha":1013,"x_min":51,"x_max":961,"o":"m 947 972 l 608 497 l 961 0 l 760 0 l 503 371 l 247 0 l 51 0 l 403 494 l 65 972 l 267 972 l 508 619 l 751 972 l 947 972 z "},"Y":{"ha":994,"x_min":25,"x_max":969,"o":"m 411 383 l 25 972 l 228 972 l 499 543 l 774 972 l 969 972 l 583 388 l 583 0 l 411 0 l 411 383 z "},"Z":{"ha":975,"x_min":90,"x_max":888,"o":"m 90 126 l 664 821 l 108 821 l 108 972 l 888 972 l 888 846 l 313 151 l 888 151 l 888 0 l 90 0 l 90 126 z "},"a":{"ha":815,"x_min":57,"x_max":719,"o":"m 317 -15 q 218 -1 265 -15 q 135 42 171 14 q 78 113 100 71 q 57 211 57 156 l 57 214 q 79 318 57 274 q 141 392 101 363 q 237 435 181 421 q 360 450 293 450 q 468 442 422 450 q 557 419 514 433 l 557 438 q 510 557 557 517 q 375 597 464 597 q 264 585 313 597 q 165 551 215 572 l 121 683 q 246 727 182 711 q 397 743 310 743 q 640 661 561 743 q 700 564 681 621 q 719 435 719 507 l 719 0 l 556 0 l 556 92 q 460 16 518 47 q 317 -15 401 -15 m 364 107 q 442 118 406 107 q 503 150 478 129 q 544 200 529 171 q 560 264 560 229 l 560 314 q 485 335 528 326 q 393 343 443 343 q 266 311 311 343 q 221 221 221 279 l 221 218 q 262 136 221 165 q 364 107 303 107 z "},"b":{"ha":932,"x_min":106,"x_max":864,"o":"m 524 -15 q 372 24 432 -15 q 274 114 313 63 l 274 0 l 106 0 l 106 1014 l 274 1014 l 274 611 q 374 708 314 668 q 524 749 433 749 q 649 724 588 749 q 758 650 711 699 q 835 531 806 601 q 864 368 864 460 l 864 365 q 835 203 864 274 q 759 83 807 132 q 650 10 711 35 q 524 -15 589 -15 m 483 131 q 565 147 526 131 q 631 194 603 164 q 676 267 660 224 q 693 365 693 311 l 693 368 q 676 465 693 421 q 631 539 660 508 q 565 586 603 569 q 483 603 526 603 q 401 586 440 603 q 333 538 363 569 q 287 464 304 507 q 269 368 269 421 l 269 365 q 287 269 269 313 q 333 195 304 226 q 401 147 363 164 q 483 131 440 131 z "},"c":{"ha":793,"x_min":65,"x_max":744,"o":"m 444 -17 q 293 13 363 -17 q 173 94 224 43 q 94 215 122 146 q 65 363 65 285 l 65 365 q 94 513 65 443 q 174 635 122 583 q 294 718 225 688 q 447 749 364 749 q 541 740 499 749 q 619 714 583 731 q 684 674 654 697 q 740 622 714 650 l 635 510 q 552 576 596 550 q 446 601 508 601 q 361 583 400 601 q 294 533 322 564 q 249 458 265 501 q 233 368 233 415 l 233 365 q 249 274 233 317 q 294 199 265 231 q 364 149 324 167 q 453 131 404 131 q 558 156 513 131 q 643 221 603 181 l 744 121 q 621 22 690 60 q 444 -17 551 -17 z "},"d":{"ha":932,"x_min":68,"x_max":826,"o":"m 408 -15 q 282 10 343 -15 q 174 83 221 35 q 97 203 126 132 q 68 365 68 274 l 68 368 q 97 531 68 460 q 172 650 125 601 q 281 724 219 699 q 408 749 343 749 q 491 738 454 749 q 558 710 528 728 q 614 669 589 692 q 658 619 639 646 l 658 1014 l 826 1014 l 826 0 l 658 0 l 658 122 q 558 25 618 65 q 408 -15 497 -15 m 449 131 q 529 147 490 131 q 597 195 568 164 q 644 269 626 226 q 661 365 661 313 l 661 368 q 644 465 661 421 q 597 539 626 508 q 529 586 568 569 q 449 603 490 603 q 367 587 406 603 q 300 540 329 571 q 254 466 271 510 q 238 368 238 422 l 238 365 q 254 269 238 313 q 300 194 271 225 q 367 147 329 164 q 449 131 406 131 z "},"e":{"ha":839,"x_min":65,"x_max":775,"o":"m 442 -17 q 294 11 363 -17 q 174 89 225 39 q 94 209 124 139 q 65 364 65 279 l 65 367 q 92 515 65 446 q 166 637 118 585 q 279 719 214 689 q 424 749 344 749 q 577 717 511 749 q 687 631 643 685 q 753 505 731 576 q 775 354 775 433 q 774 331 775 343 q 772 307 774 319 l 233 307 q 305 169 247 217 q 444 121 363 121 q 553 143 507 121 q 643 208 599 165 l 742 121 q 616 21 689 58 q 442 -17 543 -17 m 608 418 q 590 494 604 458 q 553 555 576 529 q 497 596 529 581 q 422 611 464 611 q 294 558 344 611 q 232 418 243 504 l 608 418 z "},"f":{"ha":522,"x_min":50,"x_max":504,"o":"m 143 589 l 50 589 l 50 729 l 143 729 l 143 783 q 203 964 143 904 q 368 1022 261 1022 q 444 1017 413 1022 q 504 1003 476 1011 l 504 861 q 456 874 479 869 q 406 879 433 879 q 308 768 308 879 l 308 728 l 503 728 l 503 589 l 311 589 l 311 0 l 143 0 l 143 589 z "},"g":{"ha":932,"x_min":68,"x_max":826,"o":"m 432 -225 q 104 -137 249 -225 l 167 -11 q 290 -68 226 -47 q 428 -89 353 -89 q 600 -32 540 -89 q 660 136 660 25 l 660 193 q 553 96 614 133 q 401 58 492 58 q 276 82 336 58 q 170 149 217 106 q 96 257 124 193 q 68 401 68 321 l 68 404 q 96 549 68 485 q 170 658 124 614 q 277 725 217 701 q 401 749 338 749 q 555 712 494 749 q 658 624 615 675 l 658 733 l 826 733 l 826 150 q 733 -126 826 -33 q 608 -201 683 -176 q 432 -225 532 -225 m 446 201 q 528 216 489 201 q 597 257 568 231 q 644 321 626 283 q 661 403 661 358 l 661 406 q 644 488 661 450 q 597 551 626 525 q 528 592 568 578 q 446 607 489 607 q 364 592 401 607 q 298 551 326 578 q 253 488 269 525 q 238 406 238 451 l 238 403 q 254 321 238 358 q 299 257 271 283 q 365 216 326 231 q 446 201 403 201 z "},"h":{"ha":861,"x_min":106,"x_max":764,"o":"m 106 1014 l 274 1014 l 274 621 q 313 669 292 646 q 363 710 335 693 q 426 738 392 728 q 503 749 460 749 q 696 672 628 749 q 764 468 764 596 l 764 0 l 596 0 l 596 417 q 555 549 596 503 q 439 596 514 596 q 319 548 365 596 q 274 414 274 500 l 274 0 l 106 0 l 106 1014 z "},"i":{"ha":397,"x_min":108,"x_max":289,"o":"m 108 1006 l 289 1006 l 289 846 l 108 846 l 108 1006 m 115 733 l 283 733 l 283 0 l 115 0 l 115 733 z "},"j":{"ha":397,"x_min":-11,"x_max":289,"o":"m 108 1006 l 289 1006 l 289 846 l 108 846 l 108 1006 m 71 -226 q 27 -224 46 -226 q -11 -219 8 -222 l -11 -85 q 36 -89 14 -89 q 94 -69 72 -89 q 115 0 115 -49 l 115 733 l 283 733 l 283 -10 q 228 -174 283 -122 q 71 -226 174 -226 z "},"k":{"ha":808,"x_min":106,"x_max":792,"o":"m 106 1014 l 274 1014 l 274 408 l 578 733 l 782 733 l 490 435 l 792 0 l 594 0 l 378 318 l 274 210 l 274 0 l 106 0 l 106 1014 z "},"l":{"ha":397,"x_min":115,"x_max":283,"o":"m 115 1014 l 283 1014 l 283 0 l 115 0 l 115 1014 z "},"m":{"ha":1319,"x_min":106,"x_max":1221,"o":"m 106 733 l 274 733 l 274 622 q 313 669 292 647 q 360 710 333 692 q 422 738 388 728 q 497 749 456 749 q 632 713 576 749 q 717 619 688 678 q 821 713 761 678 q 964 749 881 749 q 1153 676 1085 749 q 1221 468 1221 603 l 1221 0 l 1053 0 l 1053 417 q 1014 550 1053 504 q 904 596 975 596 q 791 549 835 596 q 747 414 747 503 l 747 0 l 579 0 l 579 418 q 540 550 579 504 q 431 596 501 596 q 317 547 360 596 q 274 414 274 499 l 274 0 l 106 0 l 106 733 z "},"n":{"ha":861,"x_min":106,"x_max":764,"o":"m 106 733 l 274 733 l 274 621 q 313 669 292 646 q 363 710 335 693 q 426 738 392 728 q 503 749 460 749 q 696 672 628 749 q 764 468 764 596 l 764 0 l 596 0 l 596 417 q 555 549 596 503 q 439 596 514 596 q 319 548 365 596 q 274 414 274 500 l 274 0 l 106 0 l 106 733 z "},"o":{"ha":913,"x_min":65,"x_max":847,"o":"m 454 -17 q 299 13 371 -17 q 176 94 228 43 q 94 215 124 146 q 65 363 65 285 l 65 365 q 95 514 65 444 q 177 635 125 583 q 301 718 229 688 q 457 749 372 749 q 613 719 542 749 q 737 637 685 689 q 818 516 789 585 q 847 368 847 447 l 847 365 q 817 218 847 288 q 735 97 788 149 q 611 14 683 44 q 454 -17 539 -17 m 457 131 q 549 149 508 131 q 619 199 590 168 q 664 273 649 231 q 679 363 679 315 l 679 365 q 663 457 679 414 q 616 532 646 500 q 545 583 586 564 q 454 601 504 601 q 363 583 404 601 q 293 533 322 564 q 249 458 264 501 q 233 368 233 415 l 233 365 q 250 274 233 317 q 297 200 267 232 q 367 149 326 168 q 457 131 408 131 z "},"p":{"ha":932,"x_min":106,"x_max":864,"o":"m 106 733 l 274 733 l 274 611 q 374 708 314 668 q 524 749 433 749 q 649 724 588 749 q 758 650 711 699 q 835 531 806 601 q 864 368 864 460 l 864 365 q 835 203 864 274 q 759 83 807 132 q 650 10 711 35 q 524 -15 589 -15 q 372 24 432 -15 q 274 114 313 63 l 274 -222 l 106 -222 l 106 733 m 483 131 q 565 147 526 131 q 631 194 603 164 q 676 267 660 224 q 693 365 693 311 l 693 368 q 676 465 693 421 q 631 539 660 508 q 565 586 603 569 q 483 603 526 603 q 401 586 440 603 q 333 538 363 569 q 287 464 304 507 q 269 368 269 421 l 269 365 q 287 269 269 313 q 333 195 304 226 q 401 147 363 164 q 483 131 440 131 z "},"q":{"ha":932,"x_min":68,"x_max":826,"o":"m 658 122 q 558 25 618 65 q 408 -15 497 -15 q 282 10 343 -15 q 174 83 221 35 q 97 203 126 132 q 68 365 68 274 l 68 368 q 97 531 68 460 q 172 650 125 601 q 281 724 219 699 q 408 749 343 749 q 491 738 454 749 q 558 710 528 728 q 614 669 589 692 q 658 619 639 646 l 658 733 l 826 733 l 826 -222 l 658 -222 l 658 122 m 449 131 q 529 147 490 131 q 597 195 568 164 q 644 269 626 226 q 661 365 661 313 l 661 368 q 644 465 661 421 q 597 539 626 508 q 529 586 568 569 q 449 603 490 603 q 367 587 406 603 q 300 540 329 571 q 254 466 271 510 q 238 368 238 422 l 238 365 q 254 269 238 313 q 300 194 271 225 q 367 147 329 164 q 449 131 406 131 z "},"r":{"ha":574,"x_min":106,"x_max":533,"o":"m 106 733 l 274 733 l 274 568 q 372 701 308 651 q 533 747 436 751 l 533 569 l 524 569 q 422 551 468 569 q 343 497 376 533 q 292 406 310 461 q 274 279 274 351 l 274 0 l 106 0 l 106 733 z "},"s":{"ha":696,"x_min":46,"x_max":629,"o":"m 357 -14 q 197 14 278 -14 q 46 96 115 42 l 121 210 q 243 142 182 165 q 361 119 304 119 q 445 141 415 119 q 475 199 475 163 l 475 201 q 462 238 475 222 q 426 264 449 253 q 373 285 403 275 q 311 304 343 294 q 230 331 271 315 q 156 370 189 346 q 103 431 124 394 q 82 519 82 467 l 82 522 q 102 615 82 574 q 158 686 122 657 q 241 731 193 715 q 343 746 289 746 q 483 724 413 746 q 613 663 554 701 l 546 543 q 439 594 493 575 q 339 613 385 613 q 263 592 290 613 q 236 540 236 572 l 236 538 q 250 502 236 517 q 287 476 264 488 q 340 453 310 464 q 401 433 369 443 q 482 404 442 421 q 555 363 522 388 q 608 304 588 339 q 629 219 629 269 l 629 217 q 608 115 629 158 q 551 44 588 72 q 464 1 514 15 q 357 -14 414 -14 z "},"t":{"ha":571,"x_min":47,"x_max":506,"o":"m 351 -12 q 267 -1 306 -12 q 199 35 228 10 q 156 101 171 60 q 140 203 140 142 l 140 589 l 47 589 l 47 733 l 140 733 l 140 935 l 308 935 l 308 733 l 506 733 l 506 589 l 308 589 l 308 229 q 332 159 308 181 q 399 138 356 138 q 503 163 453 138 l 503 25 q 435 -3 471 7 q 351 -12 400 -12 z "},"u":{"ha":861,"x_min":97,"x_max":757,"o":"m 358 -15 q 165 61 233 -15 q 97 267 97 138 l 97 733 l 265 733 l 265 317 q 306 185 265 231 q 422 139 347 139 q 542 186 496 139 q 588 319 588 233 l 588 733 l 757 733 l 757 0 l 588 0 l 588 114 q 497 23 551 61 q 358 -15 443 -15 z "},"v":{"ha":826,"x_min":36,"x_max":789,"o":"m 36 733 l 217 733 l 414 194 l 613 733 l 789 733 l 489 -6 l 338 -6 l 36 733 z "},"w":{"ha":1196,"x_min":44,"x_max":1153,"o":"m 44 733 l 217 733 l 364 231 l 526 736 l 671 736 l 833 231 l 983 733 l 1153 733 l 913 -6 l 761 -6 l 597 496 l 432 -6 l 282 -6 l 44 733 z "},"x":{"ha":806,"x_min":42,"x_max":764,"o":"m 404 488 l 574 733 l 753 733 l 494 375 l 764 0 l 581 0 l 400 261 l 221 0 l 42 0 l 310 374 l 51 733 l 235 733 l 404 488 z "},"y":{"ha":828,"x_min":36,"x_max":789,"o":"m 614 733 l 789 733 l 497 -21 q 451 -117 475 -78 q 399 -180 428 -156 q 335 -215 369 -204 q 256 -226 300 -226 q 162 -215 203 -226 q 82 -182 121 -203 l 139 -57 q 187 -77 163 -69 q 238 -85 211 -85 q 297 -67 274 -85 q 342 -1 321 -49 l 36 733 l 217 733 l 424 189 l 614 733 z "},"z":{"ha":778,"x_min":72,"x_max":710,"o":"m 72 115 l 496 596 l 88 596 l 88 733 l 710 733 l 710 618 l 286 138 l 710 138 l 710 0 l 72 0 l 72 115 z "},"Á":{"ha":1097,"x_min":42,"x_max":1056,"o":"m 469 979 l 628 979 l 1056 0 l 875 0 l 776 235 l 317 235 l 217 0 l 42 0 l 469 979 m 714 386 l 546 775 l 379 386 l 714 386 m 635 1268 l 788 1201 l 610 1067 l 479 1067 l 635 1268 z "},"á":{"ha":815,"x_min":57,"x_max":719,"o":"m 317 -15 q 218 -1 265 -15 q 135 42 171 14 q 78 113 100 71 q 57 211 57 156 l 57 214 q 79 318 57 274 q 141 392 101 363 q 237 435 181 421 q 360 450 293 450 q 468 442 422 450 q 557 419 514 433 l 557 438 q 510 557 557 517 q 375 597 464 597 q 264 585 313 597 q 165 551 215 572 l 121 683 q 246 727 182 711 q 397 743 310 743 q 640 661 561 743 q 700 564 681 621 q 719 435 719 507 l 719 0 l 556 0 l 556 92 q 460 16 518 47 q 317 -15 401 -15 m 364 107 q 442 118 406 107 q 503 150 478 129 q 544 200 529 171 q 560 264 560 229 l 560 314 q 485 335 528 326 q 393 343 443 343 q 266 311 311 343 q 221 221 221 279 l 221 218 q 262 136 221 165 q 364 107 303 107 m 486 1054 l 639 986 l 468 826 l 342 826 l 486 1054 z "},"Ă":{"ha":1097,"x_min":42,"x_max":1056,"o":"m 469 979 l 628 979 l 1056 0 l 875 0 l 776 235 l 317 235 l 217 0 l 42 0 l 469 979 m 714 386 l 546 775 l 379 386 l 714 386 m 549 1064 q 383 1112 449 1064 q 308 1250 317 1160 l 428 1250 q 468 1199 440 1218 q 549 1181 496 1181 q 629 1199 601 1181 q 669 1250 657 1218 l 789 1250 q 715 1112 781 1160 q 549 1064 649 1064 z "},"ă":{"ha":815,"x_min":57,"x_max":719,"o":"m 317 -15 q 218 -1 265 -15 q 135 42 171 14 q 78 113 100 71 q 57 211 57 156 l 57 214 q 79 318 57 274 q 141 392 101 363 q 237 435 181 421 q 360 450 293 450 q 468 442 422 450 q 557 419 514 433 l 557 438 q 510 557 557 517 q 375 597 464 597 q 264 585 313 597 q 165 551 215 572 l 121 683 q 246 727 182 711 q 397 743 310 743 q 640 661 561 743 q 700 564 681 621 q 719 435 719 507 l 719 0 l 556 0 l 556 92 q 460 16 518 47 q 317 -15 401 -15 m 364 107 q 442 118 406 107 q 503 150 478 129 q 544 200 529 171 q 560 264 560 229 l 560 314 q 485 335 528 326 q 393 343 443 343 q 266 311 311 343 q 221 221 221 279 l 221 218 q 262 136 221 165 q 364 107 303 107 m 408 824 q 243 876 308 824 q 171 1025 178 929 l 286 1025 q 327 964 299 988 q 408 940 356 940 q 490 964 461 940 q 531 1025 518 988 l 647 1025 q 574 876 639 929 q 408 824 508 824 z "},"Â":{"ha":1097,"x_min":42,"x_max":1056,"o":"m 469 979 l 628 979 l 1056 0 l 875 0 l 776 235 l 317 235 l 217 0 l 42 0 l 469 979 m 714 386 l 546 775 l 379 386 l 714 386 m 469 1249 l 628 1249 l 796 1061 l 654 1061 l 547 1142 l 440 1061 l 301 1061 l 469 1249 z "},"â":{"ha":815,"x_min":57,"x_max":719,"o":"m 317 -15 q 218 -1 265 -15 q 135 42 171 14 q 78 113 100 71 q 57 211 57 156 l 57 214 q 79 318 57 274 q 141 392 101 363 q 237 435 181 421 q 360 450 293 450 q 468 442 422 450 q 557 419 514 433 l 557 438 q 510 557 557 517 q 375 597 464 597 q 264 585 313 597 q 165 551 215 572 l 121 683 q 246 727 182 711 q 397 743 310 743 q 640 661 561 743 q 700 564 681 621 q 719 435 719 507 l 719 0 l 556 0 l 556 92 q 460 16 518 47 q 317 -15 401 -15 m 364 107 q 442 118 406 107 q 503 150 478 129 q 544 200 529 171 q 560 264 560 229 l 560 314 q 485 335 528 326 q 393 343 443 343 q 266 311 311 343 q 221 221 221 279 l 221 218 q 262 136 221 165 q 364 107 303 107 m 331 1031 l 486 1031 l 649 826 l 515 826 l 407 919 l 300 826 l 169 826 l 331 1031 z "},"Ä":{"ha":1097,"x_min":42,"x_max":1056,"o":"m 469 979 l 628 979 l 1056 0 l 875 0 l 776 235 l 317 235 l 217 0 l 42 0 l 469 979 m 714 386 l 546 775 l 379 386 l 714 386 m 606 1222 l 778 1222 l 778 1067 l 606 1067 l 606 1222 m 319 1222 l 493 1222 l 493 1067 l 319 1067 l 319 1222 z "},"ä":{"ha":815,"x_min":57,"x_max":719,"o":"m 317 -15 q 218 -1 265 -15 q 135 42 171 14 q 78 113 100 71 q 57 211 57 156 l 57 214 q 79 318 57 274 q 141 392 101 363 q 237 435 181 421 q 360 450 293 450 q 468 442 422 450 q 557 419 514 433 l 557 438 q 510 557 557 517 q 375 597 464 597 q 264 585 313 597 q 165 551 215 572 l 121 683 q 246 727 182 711 q 397 743 310 743 q 640 661 561 743 q 700 564 681 621 q 719 435 719 507 l 719 0 l 556 0 l 556 92 q 460 16 518 47 q 317 -15 401 -15 m 364 107 q 442 118 406 107 q 503 150 478 129 q 544 200 529 171 q 560 264 560 229 l 560 314 q 485 335 528 326 q 393 343 443 343 q 266 311 311 343 q 221 221 221 279 l 221 218 q 262 136 221 165 q 364 107 303 107 m 458 992 l 629 992 l 629 826 l 458 826 l 458 992 m 188 992 l 358 992 l 358 826 l 188 826 l 188 992 z "},"Æ":{"ha":1451,"x_min":17,"x_max":1374,"o":"m 560 972 l 1367 972 l 1367 819 l 847 819 l 847 567 l 1304 567 l 1304 414 l 847 414 l 847 153 l 1374 153 l 1374 0 l 676 0 l 676 235 l 324 235 l 193 0 l 17 0 l 560 972 m 676 386 l 676 824 l 649 824 l 404 386 l 676 386 z "},"æ":{"ha":1322,"x_min":57,"x_max":1257,"o":"m 333 -15 q 226 0 276 -15 q 138 44 175 15 q 78 115 100 72 q 57 211 57 157 l 57 214 q 79 318 57 274 q 141 392 101 363 q 235 435 181 421 q 357 450 290 450 q 463 442 418 450 q 551 419 508 433 l 551 438 q 506 557 551 517 q 372 597 460 597 q 263 585 310 597 q 165 551 215 572 l 121 683 q 244 727 182 711 q 394 743 307 743 q 653 624 585 743 q 763 715 697 682 q 910 749 828 749 q 1060 717 996 749 q 1169 631 1125 685 q 1235 505 1213 576 q 1257 354 1257 433 q 1257 331 1257 343 q 1256 307 1257 319 l 717 307 q 788 169 731 217 q 926 121 846 121 q 1035 143 989 121 q 1126 208 1082 165 l 1225 121 q 1099 21 1172 58 q 924 -17 1026 -17 q 764 17 838 -17 q 640 108 690 50 q 502 21 578 57 q 333 -15 426 -15 m 1092 418 q 1074 494 1088 458 q 1036 555 1060 529 q 980 596 1013 581 q 906 611 947 611 q 776 558 828 611 q 714 418 725 504 l 1092 418 m 361 108 q 476 133 422 108 q 579 203 531 158 q 561 256 568 229 q 551 315 554 283 q 478 335 519 326 q 390 343 438 343 q 265 311 310 343 q 221 221 221 279 l 221 218 q 262 138 221 167 q 361 108 303 108 z "},"Ǽ":{"ha":1451,"x_min":17,"x_max":1374,"o":"m 950 1254 l 1103 1188 l 925 1053 l 794 1053 l 950 1254 m 560 972 l 1367 972 l 1367 819 l 847 819 l 847 567 l 1304 567 l 1304 414 l 847 414 l 847 153 l 1374 153 l 1374 0 l 676 0 l 676 235 l 324 235 l 193 0 l 17 0 l 560 972 m 676 386 l 676 824 l 649 824 l 404 386 l 676 386 z "},"ǽ":{"ha":1322,"x_min":57,"x_max":1257,"o":"m 733 1054 l 886 986 l 715 826 l 589 826 l 733 1054 m 333 -15 q 226 0 276 -15 q 138 44 175 15 q 78 115 100 72 q 57 211 57 157 l 57 214 q 79 318 57 274 q 141 392 101 363 q 235 435 181 421 q 357 450 290 450 q 463 442 418 450 q 551 419 508 433 l 551 438 q 506 557 551 517 q 372 597 460 597 q 263 585 310 597 q 165 551 215 572 l 121 683 q 244 727 182 711 q 394 743 307 743 q 653 624 585 743 q 763 715 697 682 q 910 749 828 749 q 1060 717 996 749 q 1169 631 1125 685 q 1235 505 1213 576 q 1257 354 1257 433 q 1257 331 1257 343 q 1256 307 1257 319 l 717 307 q 788 169 731 217 q 926 121 846 121 q 1035 143 989 121 q 1126 208 1082 165 l 1225 121 q 1099 21 1172 58 q 924 -17 1026 -17 q 764 17 838 -17 q 640 108 690 50 q 502 21 578 57 q 333 -15 426 -15 m 1092 418 q 1074 494 1088 458 q 1036 555 1060 529 q 980 596 1013 581 q 906 611 947 611 q 776 558 828 611 q 714 418 725 504 l 1092 418 m 361 108 q 476 133 422 108 q 579 203 531 158 q 561 256 568 229 q 551 315 554 283 q 478 335 519 326 q 390 343 438 343 q 265 311 310 343 q 221 221 221 279 l 221 218 q 262 138 221 167 q 361 108 303 108 z "},"À":{"ha":1097,"x_min":42,"x_max":1056,"o":"m 469 979 l 628 979 l 1056 0 l 875 0 l 776 235 l 317 235 l 217 0 l 42 0 l 469 979 m 714 386 l 546 775 l 379 386 l 714 386 m 485 1067 l 308 1201 l 460 1268 l 617 1067 l 485 1067 z "},"à":{"ha":815,"x_min":57,"x_max":719,"o":"m 317 -15 q 218 -1 265 -15 q 135 42 171 14 q 78 113 100 71 q 57 211 57 156 l 57 214 q 79 318 57 274 q 141 392 101 363 q 237 435 181 421 q 360 450 293 450 q 468 442 422 450 q 557 419 514 433 l 557 438 q 510 557 557 517 q 375 597 464 597 q 264 585 313 597 q 165 551 215 572 l 121 683 q 246 727 182 711 q 397 743 310 743 q 640 661 561 743 q 700 564 681 621 q 719 435 719 507 l 719 0 l 556 0 l 556 92 q 460 16 518 47 q 317 -15 401 -15 m 364 107 q 442 118 406 107 q 503 150 478 129 q 544 200 529 171 q 560 264 560 229 l 560 314 q 485 335 528 326 q 393 343 443 343 q 266 311 311 343 q 221 221 221 279 l 221 218 q 262 136 221 165 q 364 107 303 107 m 178 986 l 331 1054 l 475 826 l 349 826 l 178 986 z "},"Ā":{"ha":1097,"x_min":42,"x_max":1056,"o":"m 469 979 l 628 979 l 1056 0 l 875 0 l 776 235 l 317 235 l 217 0 l 42 0 l 469 979 m 714 386 l 546 775 l 379 386 l 714 386 m 300 1207 l 799 1207 l 799 1082 l 300 1082 l 300 1207 z "},"ā":{"ha":815,"x_min":57,"x_max":719,"o":"m 317 -15 q 218 -1 265 -15 q 135 42 171 14 q 78 113 100 71 q 57 211 57 156 l 57 214 q 79 318 57 274 q 141 392 101 363 q 237 435 181 421 q 360 450 293 450 q 468 442 422 450 q 557 419 514 433 l 557 438 q 510 557 557 517 q 375 597 464 597 q 264 585 313 597 q 165 551 215 572 l 121 683 q 246 727 182 711 q 397 743 310 743 q 640 661 561 743 q 700 564 681 621 q 719 435 719 507 l 719 0 l 556 0 l 556 92 q 460 16 518 47 q 317 -15 401 -15 m 364 107 q 442 118 406 107 q 503 150 478 129 q 544 200 529 171 q 560 264 560 229 l 560 314 q 485 335 528 326 q 393 343 443 343 q 266 311 311 343 q 221 221 221 279 l 221 218 q 262 136 221 165 q 364 107 303 107 m 172 964 l 644 964 l 644 842 l 172 842 l 172 964 z "},"Ą":{"ha":1097,"x_min":42,"x_max":1067,"o":"m 1067 -228 q 1043 -230 1054 -229 q 1022 -231 1032 -231 q 885 -197 932 -229 q 839 -114 839 -164 q 853 -55 839 -82 q 894 0 868 -28 l 875 0 l 776 235 l 317 235 l 217 0 l 42 0 l 469 979 l 628 979 l 1056 0 l 1013 0 q 977 -47 988 -25 q 967 -87 967 -68 q 1067 -147 967 -147 l 1067 -228 m 714 386 l 546 775 l 379 386 l 714 386 z "},"ą":{"ha":815,"x_min":57,"x_max":729,"o":"m 729 -228 q 706 -230 717 -229 q 685 -231 694 -231 q 548 -197 594 -229 q 501 -114 501 -164 q 516 -55 501 -82 q 557 0 531 -28 l 556 0 l 556 92 q 460 16 518 47 q 317 -15 401 -15 q 218 -1 265 -15 q 135 42 171 14 q 78 113 100 71 q 57 211 57 156 l 57 214 q 79 318 57 274 q 141 392 101 363 q 237 435 181 421 q 360 450 293 450 q 468 442 422 450 q 557 419 514 433 l 557 438 q 510 557 557 517 q 375 597 464 597 q 264 585 313 597 q 165 551 215 572 l 121 683 q 246 727 182 711 q 397 743 310 743 q 640 661 561 743 q 700 564 681 621 q 719 435 719 507 l 719 0 l 675 0 q 640 -47 650 -25 q 629 -87 629 -68 q 729 -147 629 -147 l 729 -228 m 364 107 q 442 118 406 107 q 503 150 478 129 q 544 200 529 171 q 560 264 560 229 l 560 314 q 485 335 528 326 q 393 343 443 343 q 266 311 311 343 q 221 221 221 279 l 221 218 q 262 136 221 165 q 364 107 303 107 z "},"Å":{"ha":1097,"x_min":42,"x_max":1056,"o":"m 443 921 q 399 969 415 940 q 383 1035 383 999 q 397 1094 383 1067 q 433 1140 410 1121 q 485 1171 456 1160 q 549 1182 515 1182 q 612 1171 582 1182 q 665 1140 642 1160 q 701 1094 688 1121 q 714 1035 714 1067 q 698 970 714 999 q 654 922 682 942 l 1056 0 l 875 0 l 776 235 l 317 235 l 217 0 l 42 0 l 443 921 m 714 386 l 546 775 l 379 386 l 714 386 m 549 954 q 614 978 589 954 q 639 1035 639 1001 q 614 1092 639 1069 q 549 1115 589 1115 q 484 1092 508 1115 q 460 1035 460 1069 q 484 978 460 1001 q 549 954 508 954 z "},"å":{"ha":815,"x_min":57,"x_max":719,"o":"m 317 -15 q 218 -1 265 -15 q 135 42 171 14 q 78 113 100 71 q 57 211 57 156 l 57 214 q 79 318 57 274 q 141 392 101 363 q 237 435 181 421 q 360 450 293 450 q 468 442 422 450 q 557 419 514 433 l 557 438 q 510 557 557 517 q 375 597 464 597 q 264 585 313 597 q 165 551 215 572 l 121 683 q 246 727 182 711 q 397 743 310 743 q 640 661 561 743 q 700 564 681 621 q 719 435 719 507 l 719 0 l 556 0 l 556 92 q 460 16 518 47 q 317 -15 401 -15 m 364 107 q 442 118 406 107 q 503 150 478 129 q 544 200 529 171 q 560 264 560 229 l 560 314 q 485 335 528 326 q 393 343 443 343 q 266 311 311 343 q 221 221 221 279 l 221 218 q 262 136 221 165 q 364 107 303 107 m 408 824 q 346 836 375 824 q 294 869 317 849 q 260 919 272 890 q 247 979 247 947 q 260 1040 247 1011 q 294 1089 272 1068 q 346 1122 317 1110 q 408 1135 375 1135 q 471 1122 442 1135 q 522 1089 500 1110 q 557 1040 544 1068 q 569 979 569 1011 q 557 919 569 947 q 522 869 544 890 q 471 836 500 849 q 408 824 442 824 m 408 886 q 474 913 447 886 q 501 979 501 940 q 474 1045 501 1018 q 408 1072 447 1072 q 342 1045 369 1072 q 315 979 315 1018 q 342 913 315 940 q 408 886 369 886 z "},"Ǻ":{"ha":1097,"x_min":42,"x_max":1056,"o":"m 443 921 q 399 969 415 940 q 383 1035 383 999 q 397 1094 383 1067 q 433 1140 410 1121 q 485 1171 456 1160 q 549 1182 515 1182 q 612 1171 582 1182 q 665 1140 642 1160 q 701 1094 688 1121 q 714 1035 714 1067 q 698 970 714 999 q 654 922 682 942 l 1056 0 l 875 0 l 776 235 l 317 235 l 217 0 l 42 0 l 443 921 m 714 386 l 546 775 l 379 386 l 714 386 m 635 1400 l 786 1332 l 604 1221 l 472 1221 l 635 1400 m 549 954 q 614 978 589 954 q 639 1035 639 1001 q 614 1092 639 1069 q 549 1115 589 1115 q 484 1092 508 1115 q 460 1035 460 1069 q 484 978 460 1001 q 549 954 508 954 z "},"ǻ":{"ha":815,"x_min":57,"x_max":719,"o":"m 493 1371 l 643 1303 l 468 1179 l 340 1179 l 493 1371 m 317 -15 q 218 -1 265 -15 q 135 42 171 14 q 78 113 100 71 q 57 211 57 156 l 57 214 q 79 318 57 274 q 141 392 101 363 q 237 435 181 421 q 360 450 293 450 q 468 442 422 450 q 557 419 514 433 l 557 438 q 510 557 557 517 q 375 597 464 597 q 264 585 313 597 q 165 551 215 572 l 121 683 q 246 727 182 711 q 397 743 310 743 q 640 661 561 743 q 700 564 681 621 q 719 435 719 507 l 719 0 l 556 0 l 556 92 q 460 16 518 47 q 317 -15 401 -15 m 364 107 q 442 118 406 107 q 503 150 478 129 q 544 200 529 171 q 560 264 560 229 l 560 314 q 485 335 528 326 q 393 343 443 343 q 266 311 311 343 q 221 221 221 279 l 221 218 q 262 136 221 165 q 364 107 303 107 m 408 824 q 346 836 375 824 q 294 869 317 849 q 260 919 272 890 q 247 979 247 947 q 260 1040 247 1011 q 294 1089 272 1068 q 346 1122 317 1110 q 408 1135 375 1135 q 471 1122 442 1135 q 522 1089 500 1110 q 557 1040 544 1068 q 569 979 569 1011 q 557 919 569 947 q 522 869 544 890 q 471 836 500 849 q 408 824 442 824 m 408 886 q 474 913 447 886 q 501 979 501 940 q 474 1045 501 1018 q 408 1072 447 1072 q 342 1045 369 1072 q 315 979 315 1018 q 342 913 315 940 q 408 886 369 886 z "},"Ã":{"ha":1097,"x_min":42,"x_max":1056,"o":"m 469 979 l 628 979 l 1056 0 l 875 0 l 776 235 l 317 235 l 217 0 l 42 0 l 469 979 m 714 386 l 546 775 l 379 386 l 714 386 m 664 1067 q 601 1076 632 1067 q 540 1097 569 1086 q 497 1114 517 1107 q 460 1121 476 1121 q 413 1104 429 1121 q 382 1053 397 1088 l 289 1082 q 346 1208 311 1164 q 444 1253 381 1253 q 508 1242 476 1253 q 568 1221 539 1232 q 612 1206 592 1213 q 649 1199 632 1199 q 694 1215 679 1199 q 725 1265 710 1232 l 819 1238 q 761 1111 796 1156 q 664 1067 726 1067 z "},"ã":{"ha":815,"x_min":57,"x_max":719,"o":"m 317 -15 q 218 -1 265 -15 q 135 42 171 14 q 78 113 100 71 q 57 211 57 156 l 57 214 q 79 318 57 274 q 141 392 101 363 q 237 435 181 421 q 360 450 293 450 q 468 442 422 450 q 557 419 514 433 l 557 438 q 510 557 557 517 q 375 597 464 597 q 264 585 313 597 q 165 551 215 572 l 121 683 q 246 727 182 711 q 397 743 310 743 q 640 661 561 743 q 700 564 681 621 q 719 435 719 507 l 719 0 l 556 0 l 556 92 q 460 16 518 47 q 317 -15 401 -15 m 364 107 q 442 118 406 107 q 503 150 478 129 q 544 200 529 171 q 560 264 560 229 l 560 314 q 485 335 528 326 q 393 343 443 343 q 266 311 311 343 q 221 221 221 279 l 221 218 q 262 136 221 165 q 364 107 303 107 m 522 826 q 461 835 490 826 q 406 856 432 844 q 361 874 382 867 q 322 882 340 882 q 276 865 292 882 q 246 813 261 849 l 153 842 q 210 969 176 925 q 308 1014 244 1014 q 369 1005 340 1014 q 425 985 399 996 q 470 966 449 974 q 508 958 492 958 q 554 975 539 958 q 585 1028 569 992 l 678 1000 q 620 871 654 915 q 522 826 586 826 z "},"Ć":{"ha":1025,"x_min":82,"x_max":971,"o":"m 576 -17 q 379 22 469 -17 q 223 128 289 61 q 119 288 157 196 q 82 483 82 379 l 82 486 q 119 681 82 590 q 222 841 156 772 q 381 949 289 910 q 583 989 472 989 q 705 978 650 989 q 806 947 760 967 q 890 899 851 926 q 964 838 929 871 l 854 711 q 731 799 796 765 q 582 832 665 832 q 453 805 513 832 q 352 731 394 778 q 285 622 310 685 q 261 489 261 560 l 261 486 q 285 352 261 415 q 351 242 308 289 q 453 169 394 196 q 582 142 513 142 q 735 175 671 142 q 861 267 799 208 l 971 156 q 892 84 933 115 q 804 30 851 53 q 701 -5 757 7 q 576 -17 644 -17 m 654 1268 l 807 1201 l 629 1067 l 499 1067 l 654 1268 z "},"ć":{"ha":793,"x_min":65,"x_max":744,"o":"m 515 1054 l 668 986 l 497 826 l 371 826 l 515 1054 m 444 -17 q 293 13 363 -17 q 173 94 224 43 q 94 215 122 146 q 65 363 65 285 l 65 365 q 94 513 65 443 q 174 635 122 583 q 294 718 225 688 q 447 749 364 749 q 541 740 499 749 q 619 714 583 731 q 684 674 654 697 q 740 622 714 650 l 635 510 q 552 576 596 550 q 446 601 508 601 q 361 583 400 601 q 294 533 322 564 q 249 458 265 501 q 233 368 233 415 l 233 365 q 249 274 233 317 q 294 199 265 231 q 364 149 324 167 q 453 131 404 131 q 558 156 513 131 q 643 221 603 181 l 744 121 q 621 22 690 60 q 444 -17 551 -17 z "},"Č":{"ha":1025,"x_min":82,"x_max":971,"o":"m 576 -17 q 379 22 469 -17 q 223 128 289 61 q 119 288 157 196 q 82 483 82 379 l 82 486 q 119 681 82 590 q 222 841 156 772 q 381 949 289 910 q 583 989 472 989 q 705 978 650 989 q 806 947 760 967 q 890 899 851 926 q 964 838 929 871 l 854 711 q 731 799 796 765 q 582 832 665 832 q 453 805 513 832 q 352 731 394 778 q 285 622 310 685 q 261 489 261 560 l 261 486 q 285 352 261 415 q 351 242 308 289 q 453 169 394 196 q 582 142 513 142 q 735 175 671 142 q 861 267 799 208 l 971 156 q 892 84 933 115 q 804 30 851 53 q 701 -5 757 7 q 576 -17 644 -17 m 646 1067 l 488 1067 l 319 1254 l 461 1254 l 568 1175 l 675 1254 l 814 1254 l 646 1067 z "},"č":{"ha":793,"x_min":65,"x_max":744,"o":"m 515 826 l 360 826 l 199 1031 l 332 1031 l 439 938 l 547 1031 l 678 1031 l 515 826 m 444 -17 q 293 13 363 -17 q 173 94 224 43 q 94 215 122 146 q 65 363 65 285 l 65 365 q 94 513 65 443 q 174 635 122 583 q 294 718 225 688 q 447 749 364 749 q 541 740 499 749 q 619 714 583 731 q 684 674 654 697 q 740 622 714 650 l 635 510 q 552 576 596 550 q 446 601 508 601 q 361 583 400 601 q 294 533 322 564 q 249 458 265 501 q 233 368 233 415 l 233 365 q 249 274 233 317 q 294 199 265 231 q 364 149 324 167 q 453 131 404 131 q 558 156 513 131 q 643 221 603 181 l 744 121 q 621 22 690 60 q 444 -17 551 -17 z "},"Ç":{"ha":1025,"x_min":82,"x_max":971,"o":"m 368 -168 l 476 -7 q 317 53 389 10 q 192 162 244 97 q 111 309 140 226 q 82 483 82 392 l 82 486 q 119 681 82 590 q 222 841 156 772 q 381 949 289 910 q 583 989 472 989 q 705 978 650 989 q 806 947 760 967 q 890 899 851 926 q 964 838 929 871 l 854 711 q 731 799 796 765 q 582 832 665 832 q 453 805 513 832 q 352 731 394 778 q 285 622 310 685 q 261 489 261 560 l 261 486 q 285 352 261 415 q 351 242 308 289 q 453 169 394 196 q 582 142 513 142 q 735 175 671 142 q 861 267 799 208 l 971 156 q 897 88 935 118 q 815 35 858 57 q 719 1 771 14 q 607 -15 668 -12 l 515 -231 l 368 -168 z "},"ç":{"ha":793,"x_min":65,"x_max":744,"o":"m 236 -168 l 347 -4 q 233 46 285 11 q 143 128 181 81 q 85 236 106 176 q 65 363 65 296 l 65 365 q 94 513 65 443 q 174 635 122 583 q 294 718 225 688 q 447 749 364 749 q 541 740 499 749 q 619 714 583 731 q 684 674 654 697 q 740 622 714 650 l 635 510 q 552 576 596 550 q 446 601 508 601 q 361 583 400 601 q 294 533 322 564 q 249 458 265 501 q 233 368 233 415 l 233 365 q 249 274 233 317 q 294 199 265 231 q 364 149 324 167 q 453 131 404 131 q 558 156 513 131 q 643 221 603 181 l 744 121 q 632 27 694 64 q 475 -15 569 -10 l 383 -231 l 236 -168 z "},"Ċ":{"ha":1025,"x_min":82,"x_max":971,"o":"m 478 1222 l 656 1222 l 656 1067 l 478 1067 l 478 1222 m 576 -17 q 379 22 469 -17 q 223 128 289 61 q 119 288 157 196 q 82 483 82 379 l 82 486 q 119 681 82 590 q 222 841 156 772 q 381 949 289 910 q 583 989 472 989 q 705 978 650 989 q 806 947 760 967 q 890 899 851 926 q 964 838 929 871 l 854 711 q 731 799 796 765 q 582 832 665 832 q 453 805 513 832 q 352 731 394 778 q 285 622 310 685 q 261 489 261 560 l 261 486 q 285 352 261 415 q 351 242 308 289 q 453 169 394 196 q 582 142 513 142 q 735 175 671 142 q 861 267 799 208 l 971 156 q 892 84 933 115 q 804 30 851 53 q 701 -5 757 7 q 576 -17 644 -17 z "},"ċ":{"ha":793,"x_min":65,"x_max":744,"o":"m 444 -17 q 293 13 363 -17 q 173 94 224 43 q 94 215 122 146 q 65 363 65 285 l 65 365 q 94 513 65 443 q 174 635 122 583 q 294 718 225 688 q 447 749 364 749 q 541 740 499 749 q 619 714 583 731 q 684 674 654 697 q 740 622 714 650 l 635 510 q 552 576 596 550 q 446 601 508 601 q 361 583 400 601 q 294 533 322 564 q 249 458 265 501 q 233 368 233 415 l 233 365 q 249 274 233 317 q 294 199 265 231 q 364 149 324 167 q 453 131 404 131 q 558 156 513 131 q 643 221 603 181 l 744 121 q 621 22 690 60 q 444 -17 551 -17 m 350 992 l 525 992 l 525 826 l 350 826 l 350 992 z "},"Ď":{"ha":1086,"x_min":125,"x_max":1004,"o":"m 125 972 l 488 972 q 697 935 601 972 q 860 833 792 899 q 967 680 929 768 q 1004 489 1004 592 l 1004 486 q 967 294 1004 383 q 860 140 929 206 q 697 38 792 75 q 488 0 601 0 l 125 0 l 125 972 m 296 817 l 296 156 l 488 156 q 626 180 564 156 q 733 248 689 204 q 801 352 776 292 q 825 483 825 413 l 825 486 q 801 618 825 557 q 733 723 776 679 q 626 792 689 767 q 488 817 564 817 l 296 817 m 603 1053 l 444 1053 l 276 1240 l 418 1240 l 525 1161 l 632 1240 l 771 1240 l 603 1053 z "},"ď":{"ha":932,"x_min":68,"x_max":1051,"o":"m 921 1082 l 1051 1082 l 1051 1078 l 974 818 l 904 818 l 921 1082 m 408 -15 q 282 10 343 -15 q 174 83 221 35 q 97 203 126 132 q 68 365 68 274 l 68 368 q 97 531 68 460 q 172 650 125 601 q 281 724 219 699 q 408 749 343 749 q 491 738 454 749 q 558 710 528 728 q 614 669 589 692 q 658 619 639 646 l 658 1014 l 826 1014 l 826 0 l 658 0 l 658 122 q 558 25 618 65 q 408 -15 497 -15 m 449 131 q 529 147 490 131 q 597 195 568 164 q 644 269 626 226 q 661 365 661 313 l 661 368 q 644 465 661 421 q 597 539 626 508 q 529 586 568 569 q 449 603 490 603 q 367 587 406 603 q 300 540 329 571 q 254 466 271 510 q 238 368 238 422 l 238 365 q 254 269 238 313 q 300 194 271 225 q 367 147 329 164 q 449 131 406 131 z "},"Đ":{"ha":1128,"x_min":63,"x_max":1046,"o":"m 167 413 l 63 413 l 63 565 l 167 565 l 167 972 l 529 972 q 738 935 643 972 q 902 833 833 899 q 1008 680 971 768 q 1046 489 1046 592 l 1046 486 q 1008 294 1046 383 q 902 140 971 206 q 738 38 833 75 q 529 0 643 0 l 167 0 l 167 413 m 338 413 l 338 156 l 529 156 q 668 180 606 156 q 774 248 731 204 q 842 352 818 292 q 867 483 867 413 l 867 486 q 842 618 867 557 q 774 723 818 679 q 668 792 731 767 q 529 817 606 817 l 338 817 l 338 565 l 581 565 l 581 413 l 338 413 z "},"đ":{"ha":932,"x_min":68,"x_max":922,"o":"m 431 936 l 658 936 l 658 1014 l 826 1014 l 826 936 l 922 936 l 922 835 l 826 835 l 826 0 l 658 0 l 658 122 q 558 25 618 65 q 408 -15 497 -15 q 282 10 343 -15 q 174 83 221 35 q 97 203 126 132 q 68 365 68 274 l 68 368 q 97 531 68 460 q 172 650 125 601 q 281 724 219 699 q 408 749 343 749 q 491 738 454 749 q 558 710 528 728 q 614 669 589 692 q 658 619 639 646 l 658 835 l 431 835 l 431 936 m 449 131 q 529 147 490 131 q 597 195 568 164 q 644 269 626 226 q 661 365 661 313 l 661 368 q 644 465 661 421 q 597 539 626 508 q 529 586 568 569 q 449 603 490 603 q 367 587 406 603 q 300 540 329 571 q 254 466 271 510 q 238 368 238 422 l 238 365 q 254 269 238 313 q 300 194 271 225 q 367 147 329 164 q 449 131 406 131 z "},"É":{"ha":931,"x_min":125,"x_max":853,"o":"m 575 1254 l 728 1188 l 550 1053 l 419 1053 l 575 1254 m 125 972 l 846 972 l 846 819 l 296 819 l 296 567 l 783 567 l 783 414 l 296 414 l 296 153 l 853 153 l 853 0 l 125 0 l 125 972 z "},"é":{"ha":839,"x_min":65,"x_max":775,"o":"m 499 1054 l 651 986 l 481 826 l 354 826 l 499 1054 m 442 -17 q 294 11 363 -17 q 174 89 225 39 q 94 209 124 139 q 65 364 65 279 l 65 367 q 92 515 65 446 q 166 637 118 585 q 279 719 214 689 q 424 749 344 749 q 577 717 511 749 q 687 631 643 685 q 753 505 731 576 q 775 354 775 433 q 774 331 775 343 q 772 307 774 319 l 233 307 q 305 169 247 217 q 444 121 363 121 q 553 143 507 121 q 643 208 599 165 l 742 121 q 616 21 689 58 q 442 -17 543 -17 m 608 418 q 590 494 604 458 q 553 555 576 529 q 497 596 529 581 q 422 611 464 611 q 294 558 344 611 q 232 418 243 504 l 608 418 z "},"Ĕ":{"ha":931,"x_min":125,"x_max":853,"o":"m 488 1050 q 322 1098 388 1050 q 247 1236 256 1146 l 367 1236 q 407 1185 379 1204 q 488 1167 435 1167 q 568 1185 540 1167 q 608 1236 596 1204 l 728 1236 q 653 1098 719 1146 q 488 1050 588 1050 m 125 972 l 846 972 l 846 819 l 296 819 l 296 567 l 783 567 l 783 414 l 296 414 l 296 153 l 853 153 l 853 0 l 125 0 l 125 972 z "},"ĕ":{"ha":839,"x_min":65,"x_max":775,"o":"m 442 -17 q 294 11 363 -17 q 174 89 225 39 q 94 209 124 139 q 65 364 65 279 l 65 367 q 92 515 65 446 q 166 637 118 585 q 279 719 214 689 q 424 749 344 749 q 577 717 511 749 q 687 631 643 685 q 753 505 731 576 q 775 354 775 433 q 774 331 775 343 q 772 307 774 319 l 233 307 q 305 169 247 217 q 444 121 363 121 q 553 143 507 121 q 643 208 599 165 l 742 121 q 616 21 689 58 q 442 -17 543 -17 m 608 418 q 590 494 604 458 q 553 555 576 529 q 497 596 529 581 q 422 611 464 611 q 294 558 344 611 q 232 418 243 504 l 608 418 m 421 824 q 256 876 321 824 q 183 1025 190 929 l 299 1025 q 340 964 311 988 q 421 940 368 940 q 502 964 474 940 q 543 1025 531 988 l 660 1025 q 586 876 651 929 q 421 824 521 824 z "},"Ě":{"ha":931,"x_min":125,"x_max":853,"o":"m 567 1053 l 408 1053 l 240 1240 l 382 1240 l 489 1161 l 596 1240 l 735 1240 l 567 1053 m 125 972 l 846 972 l 846 819 l 296 819 l 296 567 l 783 567 l 783 414 l 296 414 l 296 153 l 853 153 l 853 0 l 125 0 l 125 972 z "},"ě":{"ha":839,"x_min":65,"x_max":775,"o":"m 499 826 l 343 826 l 182 1031 l 315 1031 l 422 938 l 531 1031 l 661 1031 l 499 826 m 442 -17 q 294 11 363 -17 q 174 89 225 39 q 94 209 124 139 q 65 364 65 279 l 65 367 q 92 515 65 446 q 166 637 118 585 q 279 719 214 689 q 424 749 344 749 q 577 717 511 749 q 687 631 643 685 q 753 505 731 576 q 775 354 775 433 q 774 331 775 343 q 772 307 774 319 l 233 307 q 305 169 247 217 q 444 121 363 121 q 553 143 507 121 q 643 208 599 165 l 742 121 q 616 21 689 58 q 442 -17 543 -17 m 608 418 q 590 494 604 458 q 553 555 576 529 q 497 596 529 581 q 422 611 464 611 q 294 558 344 611 q 232 418 243 504 l 608 418 z "},"Ê":{"ha":931,"x_min":125,"x_max":853,"o":"m 125 972 l 846 972 l 846 819 l 296 819 l 296 567 l 783 567 l 783 414 l 296 414 l 296 153 l 853 153 l 853 0 l 125 0 l 125 972 m 408 1240 l 567 1240 l 735 1053 l 593 1053 l 486 1133 l 379 1053 l 240 1053 l 408 1240 z "},"ê":{"ha":839,"x_min":65,"x_max":775,"o":"m 343 1031 l 499 1031 l 661 826 l 528 826 l 419 919 l 313 826 l 182 826 l 343 1031 m 442 -17 q 294 11 363 -17 q 174 89 225 39 q 94 209 124 139 q 65 364 65 279 l 65 367 q 92 515 65 446 q 166 637 118 585 q 279 719 214 689 q 424 749 344 749 q 577 717 511 749 q 687 631 643 685 q 753 505 731 576 q 775 354 775 433 q 774 331 775 343 q 772 307 774 319 l 233 307 q 305 169 247 217 q 444 121 363 121 q 553 143 507 121 q 643 208 599 165 l 742 121 q 616 21 689 58 q 442 -17 543 -17 m 608 418 q 590 494 604 458 q 553 555 576 529 q 497 596 529 581 q 422 611 464 611 q 294 558 344 611 q 232 418 243 504 l 608 418 z "},"Ë":{"ha":931,"x_min":125,"x_max":853,"o":"m 544 1208 l 717 1208 l 717 1053 l 544 1053 l 544 1208 m 258 1208 l 432 1208 l 432 1053 l 258 1053 l 258 1208 m 125 972 l 846 972 l 846 819 l 296 819 l 296 567 l 783 567 l 783 414 l 296 414 l 296 153 l 853 153 l 853 0 l 125 0 l 125 972 z "},"ë":{"ha":839,"x_min":65,"x_max":775,"o":"m 471 992 l 642 992 l 642 826 l 471 826 l 471 992 m 200 992 l 371 992 l 371 826 l 200 826 l 200 992 m 442 -17 q 294 11 363 -17 q 174 89 225 39 q 94 209 124 139 q 65 364 65 279 l 65 367 q 92 515 65 446 q 166 637 118 585 q 279 719 214 689 q 424 749 344 749 q 577 717 511 749 q 687 631 643 685 q 753 505 731 576 q 775 354 775 433 q 774 331 775 343 q 772 307 774 319 l 233 307 q 305 169 247 217 q 444 121 363 121 q 553 143 507 121 q 643 208 599 165 l 742 121 q 616 21 689 58 q 442 -17 543 -17 m 608 418 q 590 494 604 458 q 553 555 576 529 q 497 596 529 581 q 422 611 464 611 q 294 558 344 611 q 232 418 243 504 l 608 418 z "},"Ė":{"ha":931,"x_min":125,"x_max":853,"o":"m 399 1208 l 576 1208 l 576 1053 l 399 1053 l 399 1208 m 125 972 l 846 972 l 846 819 l 296 819 l 296 567 l 783 567 l 783 414 l 296 414 l 296 153 l 853 153 l 853 0 l 125 0 l 125 972 z "},"ė":{"ha":839,"x_min":65,"x_max":775,"o":"m 442 -17 q 294 11 363 -17 q 174 89 225 39 q 94 209 124 139 q 65 364 65 279 l 65 367 q 92 515 65 446 q 166 637 118 585 q 279 719 214 689 q 424 749 344 749 q 577 717 511 749 q 687 631 643 685 q 753 505 731 576 q 775 354 775 433 q 774 331 775 343 q 772 307 774 319 l 233 307 q 305 169 247 217 q 444 121 363 121 q 553 143 507 121 q 643 208 599 165 l 742 121 q 616 21 689 58 q 442 -17 543 -17 m 608 418 q 590 494 604 458 q 553 555 576 529 q 497 596 529 581 q 422 611 464 611 q 294 558 344 611 q 232 418 243 504 l 608 418 m 333 992 l 508 992 l 508 826 l 333 826 l 333 992 z "},"È":{"ha":931,"x_min":125,"x_max":853,"o":"m 425 1053 l 249 1188 l 400 1254 l 557 1053 l 425 1053 m 125 972 l 846 972 l 846 819 l 296 819 l 296 567 l 783 567 l 783 414 l 296 414 l 296 153 l 853 153 l 853 0 l 125 0 l 125 972 z "},"è":{"ha":839,"x_min":65,"x_max":775,"o":"m 442 -17 q 294 11 363 -17 q 174 89 225 39 q 94 209 124 139 q 65 364 65 279 l 65 367 q 92 515 65 446 q 166 637 118 585 q 279 719 214 689 q 424 749 344 749 q 577 717 511 749 q 687 631 643 685 q 753 505 731 576 q 775 354 775 433 q 774 331 775 343 q 772 307 774 319 l 233 307 q 305 169 247 217 q 444 121 363 121 q 553 143 507 121 q 643 208 599 165 l 742 121 q 616 21 689 58 q 442 -17 543 -17 m 608 418 q 590 494 604 458 q 553 555 576 529 q 497 596 529 581 q 422 611 464 611 q 294 558 344 611 q 232 418 243 504 l 608 418 m 190 986 l 343 1054 l 488 826 l 361 826 l 190 986 z "},"Ē":{"ha":931,"x_min":125,"x_max":853,"o":"m 239 1193 l 738 1193 l 738 1068 l 239 1068 l 239 1193 m 125 972 l 846 972 l 846 819 l 296 819 l 296 567 l 783 567 l 783 414 l 296 414 l 296 153 l 853 153 l 853 0 l 125 0 l 125 972 z "},"ē":{"ha":839,"x_min":65,"x_max":775,"o":"m 442 -17 q 294 11 363 -17 q 174 89 225 39 q 94 209 124 139 q 65 364 65 279 l 65 367 q 92 515 65 446 q 166 637 118 585 q 279 719 214 689 q 424 749 344 749 q 577 717 511 749 q 687 631 643 685 q 753 505 731 576 q 775 354 775 433 q 774 331 775 343 q 772 307 774 319 l 233 307 q 305 169 247 217 q 444 121 363 121 q 553 143 507 121 q 643 208 599 165 l 742 121 q 616 21 689 58 q 442 -17 543 -17 m 608 418 q 590 494 604 458 q 553 555 576 529 q 497 596 529 581 q 422 611 464 611 q 294 558 344 611 q 232 418 243 504 l 608 418 m 185 964 l 657 964 l 657 842 l 185 842 l 185 964 z "},"Ę":{"ha":931,"x_min":125,"x_max":853,"o":"m 125 972 l 846 972 l 846 819 l 296 819 l 296 567 l 783 567 l 783 414 l 296 414 l 296 153 l 853 153 l 853 0 l 799 0 q 763 -47 774 -25 q 753 -87 753 -68 q 853 -147 753 -147 l 853 -228 q 829 -230 840 -229 q 808 -231 818 -231 q 672 -197 718 -229 q 625 -114 625 -164 q 640 -55 625 -82 q 681 0 654 -28 l 125 0 l 125 972 z "},"ę":{"ha":839,"x_min":65,"x_max":775,"o":"m 608 418 q 590 494 604 458 q 553 555 576 529 q 497 596 529 581 q 422 611 464 611 q 294 558 344 611 q 232 418 243 504 l 608 418 m 742 121 q 703 79 721 97 q 661 40 685 61 q 602 -26 619 3 q 585 -81 585 -56 q 610 -132 585 -117 q 685 -147 635 -147 l 685 -228 q 663 -230 674 -229 q 640 -231 651 -231 q 504 -197 550 -229 q 458 -117 458 -165 q 470 -64 458 -89 q 506 -11 482 -39 q 474 -15 492 -14 q 442 -17 457 -17 q 294 11 363 -17 q 174 89 225 39 q 94 209 124 139 q 65 364 65 279 l 65 367 q 92 515 65 446 q 166 637 118 585 q 279 719 214 689 q 424 749 344 749 q 577 717 511 749 q 687 631 643 685 q 753 505 731 576 q 775 354 775 433 q 774 331 775 343 q 772 307 774 319 l 233 307 q 305 169 247 217 q 444 121 363 121 q 553 143 507 121 q 643 208 599 165 l 742 121 z "},"Ð":{"ha":1128,"x_min":63,"x_max":1046,"o":"m 167 413 l 63 413 l 63 565 l 167 565 l 167 972 l 529 972 q 738 935 643 972 q 902 833 833 899 q 1008 680 971 768 q 1046 489 1046 592 l 1046 486 q 1008 294 1046 383 q 902 140 971 206 q 738 38 833 75 q 529 0 643 0 l 167 0 l 167 413 m 338 413 l 338 156 l 529 156 q 668 180 606 156 q 774 248 731 204 q 842 352 818 292 q 867 483 867 413 l 867 486 q 842 618 867 557 q 774 723 818 679 q 668 792 731 767 q 529 817 606 817 l 338 817 l 338 565 l 581 565 l 581 413 l 338 413 z "},"ð":{"ha":913,"x_min":65,"x_max":846,"o":"m 613 890 q 705 784 663 840 q 778 667 747 728 q 828 539 810 606 q 846 401 846 472 l 846 399 q 819 237 846 313 q 740 105 792 161 q 617 16 689 49 q 453 -17 544 -17 q 299 13 369 -17 q 176 95 228 43 q 94 219 124 147 q 65 372 65 290 l 65 375 q 92 517 65 451 q 164 630 118 582 q 270 705 210 678 q 399 732 331 732 q 512 713 465 732 q 601 663 558 693 q 454 842 550 750 l 286 790 l 253 883 l 369 919 q 309 968 339 944 q 247 1014 279 992 l 475 1014 l 529 968 l 688 1017 l 721 925 l 613 890 m 457 131 q 548 149 507 131 q 618 198 589 167 q 663 271 647 229 q 679 361 679 313 l 679 364 q 663 453 679 411 q 616 527 646 496 q 544 576 586 558 q 451 594 501 594 q 360 576 401 594 q 292 528 319 558 q 249 455 264 497 q 233 365 233 413 l 233 363 q 250 273 233 315 q 297 199 267 231 q 367 149 326 168 q 457 131 408 131 z "},"Ğ":{"ha":1089,"x_min":82,"x_max":992,"o":"m 572 1064 q 406 1112 472 1064 q 332 1250 340 1160 l 451 1250 q 492 1199 464 1218 q 572 1181 519 1181 q 653 1199 625 1181 q 693 1250 681 1218 l 813 1250 q 738 1112 804 1160 q 572 1064 672 1064 m 586 -17 q 379 22 472 -17 q 220 127 286 60 q 118 285 154 194 q 82 483 82 376 l 82 486 q 119 679 82 588 q 222 840 156 771 q 381 949 289 908 q 583 989 474 989 q 699 980 647 989 q 796 954 751 971 q 880 913 840 938 q 957 857 919 889 l 849 728 q 792 771 821 751 q 731 803 763 790 q 660 824 699 817 q 576 832 622 832 q 452 804 510 832 q 352 730 394 776 q 285 621 310 683 q 261 489 261 558 l 261 486 q 285 347 261 411 q 352 238 308 283 q 456 165 396 192 q 592 139 517 139 q 722 159 661 139 q 826 213 782 179 l 826 394 l 578 394 l 578 543 l 992 543 l 992 135 q 912 76 956 104 q 817 28 868 49 q 708 -5 767 7 q 586 -17 650 -17 z "},"ğ":{"ha":932,"x_min":68,"x_max":826,"o":"m 432 -225 q 104 -137 249 -225 l 167 -11 q 290 -68 226 -47 q 428 -89 353 -89 q 600 -32 540 -89 q 660 136 660 25 l 660 193 q 553 96 614 133 q 401 58 492 58 q 276 82 336 58 q 170 149 217 106 q 96 257 124 193 q 68 401 68 321 l 68 404 q 96 549 68 485 q 170 658 124 614 q 277 725 217 701 q 401 749 338 749 q 555 712 494 749 q 658 624 615 675 l 658 733 l 826 733 l 826 150 q 733 -126 826 -33 q 608 -201 683 -176 q 432 -225 532 -225 m 446 201 q 528 216 489 201 q 597 257 568 231 q 644 321 626 283 q 661 403 661 358 l 661 406 q 644 488 661 450 q 597 551 626 525 q 528 592 568 578 q 446 607 489 607 q 364 592 401 607 q 298 551 326 578 q 253 488 269 525 q 238 406 238 451 l 238 403 q 254 321 238 358 q 299 257 271 283 q 365 216 326 231 q 446 201 403 201 m 474 824 q 308 876 374 824 q 236 1025 243 929 l 351 1025 q 392 964 364 988 q 474 940 421 940 q 555 964 526 940 q 596 1025 583 988 l 713 1025 q 639 876 704 929 q 474 824 574 824 z "},"Ģ":{"ha":1089,"x_min":82,"x_max":992,"o":"m 467 -328 q 564 -233 569 -314 l 489 -233 l 489 -93 l 653 -93 l 653 -212 q 608 -338 653 -299 q 478 -382 564 -378 l 467 -328 m 586 -17 q 379 22 472 -17 q 220 127 286 60 q 118 285 154 194 q 82 483 82 376 l 82 486 q 119 679 82 588 q 222 840 156 771 q 381 949 289 908 q 583 989 474 989 q 699 980 647 989 q 796 954 751 971 q 880 913 840 938 q 957 857 919 889 l 849 728 q 792 771 821 751 q 731 803 763 790 q 660 824 699 817 q 576 832 622 832 q 452 804 510 832 q 352 730 394 776 q 285 621 310 683 q 261 489 261 558 l 261 486 q 285 347 261 411 q 352 238 308 283 q 456 165 396 192 q 592 139 517 139 q 722 159 661 139 q 826 213 782 179 l 826 394 l 578 394 l 578 543 l 992 543 l 992 135 q 912 76 956 104 q 817 28 868 49 q 708 -5 767 7 q 586 -17 650 -17 z "},"ģ":{"ha":932,"x_min":68,"x_max":826,"o":"m 575 1061 q 478 967 472 1047 l 553 967 l 553 826 l 389 826 l 389 946 q 433 1072 389 1032 q 564 1115 478 1111 l 575 1061 m 432 -225 q 104 -137 249 -225 l 167 -11 q 290 -68 226 -47 q 428 -89 353 -89 q 600 -32 540 -89 q 660 136 660 25 l 660 193 q 553 96 614 133 q 401 58 492 58 q 276 82 336 58 q 170 149 217 106 q 96 257 124 193 q 68 401 68 321 l 68 404 q 96 549 68 485 q 170 658 124 614 q 277 725 217 701 q 401 749 338 749 q 555 712 494 749 q 658 624 615 675 l 658 733 l 826 733 l 826 150 q 733 -126 826 -33 q 608 -201 683 -176 q 432 -225 532 -225 m 446 201 q 528 216 489 201 q 597 257 568 231 q 644 321 626 283 q 661 403 661 358 l 661 406 q 644 488 661 450 q 597 551 626 525 q 528 592 568 578 q 446 607 489 607 q 364 592 401 607 q 298 551 326 578 q 253 488 269 525 q 238 406 238 451 l 238 403 q 254 321 238 358 q 299 257 271 283 q 365 216 326 231 q 446 201 403 201 z "},"Ġ":{"ha":1089,"x_min":82,"x_max":992,"o":"m 483 1222 l 661 1222 l 661 1067 l 483 1067 l 483 1222 m 586 -17 q 379 22 472 -17 q 220 127 286 60 q 118 285 154 194 q 82 483 82 376 l 82 486 q 119 679 82 588 q 222 840 156 771 q 381 949 289 908 q 583 989 474 989 q 699 980 647 989 q 796 954 751 971 q 880 913 840 938 q 957 857 919 889 l 849 728 q 792 771 821 751 q 731 803 763 790 q 660 824 699 817 q 576 832 622 832 q 452 804 510 832 q 352 730 394 776 q 285 621 310 683 q 261 489 261 558 l 261 486 q 285 347 261 411 q 352 238 308 283 q 456 165 396 192 q 592 139 517 139 q 722 159 661 139 q 826 213 782 179 l 826 394 l 578 394 l 578 543 l 992 543 l 992 135 q 912 76 956 104 q 817 28 868 49 q 708 -5 767 7 q 586 -17 650 -17 z "},"ġ":{"ha":932,"x_min":68,"x_max":826,"o":"m 432 -225 q 104 -137 249 -225 l 167 -11 q 290 -68 226 -47 q 428 -89 353 -89 q 600 -32 540 -89 q 660 136 660 25 l 660 193 q 553 96 614 133 q 401 58 492 58 q 276 82 336 58 q 170 149 217 106 q 96 257 124 193 q 68 401 68 321 l 68 404 q 96 549 68 485 q 170 658 124 614 q 277 725 217 701 q 401 749 338 749 q 555 712 494 749 q 658 624 615 675 l 658 733 l 826 733 l 826 150 q 733 -126 826 -33 q 608 -201 683 -176 q 432 -225 532 -225 m 446 201 q 528 216 489 201 q 597 257 568 231 q 644 321 626 283 q 661 403 661 358 l 661 406 q 644 488 661 450 q 597 551 626 525 q 528 592 568 578 q 446 607 489 607 q 364 592 401 607 q 298 551 326 578 q 253 488 269 525 q 238 406 238 451 l 238 403 q 254 321 238 358 q 299 257 271 283 q 365 216 326 231 q 446 201 403 201 m 386 992 l 561 992 l 561 826 l 386 826 l 386 992 z "},"Ħ":{"ha":1081,"x_min":39,"x_max":1043,"o":"m 39 831 l 138 831 l 138 972 l 308 972 l 308 831 l 772 831 l 772 972 l 943 972 l 943 831 l 1043 831 l 1043 710 l 943 710 l 943 0 l 772 0 l 772 408 l 308 408 l 308 0 l 138 0 l 138 710 l 39 710 l 39 831 m 772 565 l 772 713 l 308 713 l 308 565 l 772 565 z "},"ħ":{"ha":861,"x_min":10,"x_max":764,"o":"m 274 835 l 274 621 q 313 669 292 646 q 363 710 335 693 q 426 738 392 728 q 503 749 460 749 q 696 672 628 749 q 764 468 764 596 l 764 0 l 596 0 l 596 417 q 555 549 596 503 q 439 596 514 596 q 319 548 365 596 q 274 414 274 500 l 274 0 l 106 0 l 106 835 l 10 835 l 10 936 l 106 936 l 106 1014 l 274 1014 l 274 936 l 501 936 l 501 835 l 274 835 z "},"Í":{"ha":440,"x_min":135,"x_max":461,"o":"m 135 972 l 306 972 l 306 0 l 135 0 l 135 972 m 308 1254 l 461 1188 l 283 1053 l 153 1053 l 308 1254 z "},"í":{"ha":397,"x_min":115,"x_max":429,"o":"m 276 1054 l 429 986 l 258 826 l 132 826 l 276 1054 m 115 733 l 283 733 l 283 0 l 115 0 l 115 733 z "},"Ĭ":{"ha":440,"x_min":-19,"x_max":461,"o":"m 135 972 l 306 972 l 306 0 l 135 0 l 135 972 m 221 1050 q 55 1098 121 1050 q -19 1236 -11 1146 l 100 1236 q 140 1185 113 1204 q 221 1167 168 1167 q 301 1185 274 1167 q 342 1236 329 1204 l 461 1236 q 387 1098 453 1146 q 221 1050 321 1050 z "},"ĭ":{"ha":397,"x_min":-39,"x_max":438,"o":"m 115 733 l 283 733 l 283 0 l 115 0 l 115 733 m 199 824 q 33 876 99 824 q -39 1025 -32 929 l 76 1025 q 117 964 89 988 q 199 940 146 940 q 280 964 251 940 q 321 1025 308 988 l 438 1025 q 364 876 429 929 q 199 824 299 824 z "},"Î":{"ha":440,"x_min":-26,"x_max":468,"o":"m 135 972 l 306 972 l 306 0 l 135 0 l 135 972 m 142 1240 l 300 1240 l 468 1053 l 326 1053 l 219 1133 l 113 1053 l -26 1053 l 142 1240 z "},"î":{"ha":397,"x_min":-40,"x_max":439,"o":"m 121 1031 l 276 1031 l 439 826 l 306 826 l 197 919 l 90 826 l -40 826 l 121 1031 m 115 733 l 283 733 l 283 0 l 115 0 l 115 733 z "},"Ï":{"ha":440,"x_min":-8,"x_max":450,"o":"m 135 972 l 306 972 l 306 0 l 135 0 l 135 972 m 278 1208 l 450 1208 l 450 1053 l 278 1053 l 278 1208 m -8 1208 l 165 1208 l 165 1053 l -8 1053 l -8 1208 z "},"ï":{"ha":397,"x_min":-22,"x_max":419,"o":"m 249 992 l 419 992 l 419 826 l 249 826 l 249 992 m -22 992 l 149 992 l 149 826 l -22 826 l -22 992 m 115 733 l 283 733 l 283 0 l 115 0 l 115 733 z "},"İ":{"ha":440,"x_min":132,"x_max":310,"o":"m 135 972 l 306 972 l 306 0 l 135 0 l 135 972 m 132 1208 l 310 1208 l 310 1053 l 132 1053 l 132 1208 z "},"ı":{"ha":397,"x_min":115,"x_max":283,"o":"m 115 733 l 283 733 l 283 0 l 115 0 l 115 733 z "},"Ì":{"ha":440,"x_min":-18,"x_max":306,"o":"m 135 972 l 306 972 l 306 0 l 135 0 l 135 972 m 158 1053 l -18 1188 l 133 1254 l 290 1053 l 158 1053 z "},"ì":{"ha":397,"x_min":-32,"x_max":283,"o":"m 115 733 l 283 733 l 283 0 l 115 0 l 115 733 m -32 986 l 121 1054 l 265 826 l 139 826 l -32 986 z "},"Ī":{"ha":440,"x_min":-28,"x_max":471,"o":"m 135 972 l 306 972 l 306 0 l 135 0 l 135 972 m -28 1193 l 471 1193 l 471 1068 l -28 1068 l -28 1193 z "},"ī":{"ha":397,"x_min":-37,"x_max":435,"o":"m 115 733 l 283 733 l 283 0 l 115 0 l 115 733 m -37 964 l 435 964 l 435 842 l -37 842 l -37 964 z "},"Į":{"ha":440,"x_min":101,"x_max":329,"o":"m 135 972 l 306 972 l 306 0 l 275 0 q 240 -47 250 -25 q 229 -87 229 -68 q 329 -147 229 -147 l 329 -228 q 306 -230 317 -229 q 285 -231 294 -231 q 148 -197 194 -229 q 101 -114 101 -164 q 116 -55 101 -82 q 157 0 131 -28 l 135 0 l 135 972 z "},"į":{"ha":397,"x_min":81,"x_max":308,"o":"m 115 733 l 283 733 l 283 0 l 254 0 q 219 -47 229 -25 q 208 -87 208 -68 q 308 -147 208 -147 l 308 -228 q 285 -230 296 -229 q 264 -231 274 -231 q 127 -197 174 -229 q 81 -114 81 -164 q 95 -55 81 -82 q 136 0 110 -28 l 115 0 l 115 733 m 108 1006 l 289 1006 l 289 846 l 108 846 l 108 1006 z "},"Ķ":{"ha":1008,"x_min":125,"x_max":988,"o":"m 401 -317 q 499 -222 504 -303 l 424 -222 l 424 -82 l 588 -82 l 588 -201 q 543 -327 588 -287 q 413 -371 499 -367 l 401 -317 m 125 972 l 296 972 l 296 483 l 758 972 l 969 972 l 564 554 l 988 0 l 779 0 l 447 438 l 296 282 l 296 0 l 125 0 l 125 972 z "},"ķ":{"ha":808,"x_min":106,"x_max":792,"o":"m 317 -324 q 414 -229 419 -310 l 339 -229 l 339 -89 l 503 -89 l 503 -208 q 458 -334 503 -294 q 328 -378 414 -374 l 317 -324 m 106 1014 l 274 1014 l 274 408 l 578 733 l 782 733 l 490 435 l 792 0 l 594 0 l 378 318 l 274 210 l 274 0 l 106 0 l 106 1014 z "},"Ĺ":{"ha":860,"x_min":125,"x_max":807,"o":"m 321 1254 l 474 1188 l 296 1053 l 165 1053 l 321 1254 m 125 972 l 296 972 l 296 156 l 807 156 l 807 0 l 125 0 l 125 972 z "},"ĺ":{"ha":397,"x_min":115,"x_max":443,"o":"m 290 1278 l 443 1211 l 265 1076 l 135 1076 l 290 1278 m 115 1014 l 283 1014 l 283 0 l 115 0 l 115 1014 z "},"Ľ":{"ha":860,"x_min":125,"x_max":807,"o":"m 422 972 l 553 972 l 553 968 l 475 708 l 406 708 l 422 972 m 125 972 l 296 972 l 296 156 l 807 156 l 807 0 l 125 0 l 125 972 z "},"ľ":{"ha":397,"x_min":115,"x_max":508,"o":"m 378 1082 l 508 1082 l 508 1078 l 431 818 l 361 818 l 378 1082 m 115 1014 l 283 1014 l 283 0 l 115 0 l 115 1014 z "},"Ļ":{"ha":860,"x_min":125,"x_max":807,"o":"m 358 -324 q 456 -229 461 -310 l 381 -229 l 381 -89 l 544 -89 l 544 -208 q 500 -334 544 -294 q 369 -378 456 -374 l 358 -324 m 125 972 l 296 972 l 296 156 l 807 156 l 807 0 l 125 0 l 125 972 z "},"ļ":{"ha":397,"x_min":94,"x_max":283,"o":"m 94 -324 q 192 -229 197 -310 l 117 -229 l 117 -89 l 281 -89 l 281 -208 q 236 -334 281 -294 q 106 -378 192 -374 l 94 -324 m 115 1014 l 283 1014 l 283 0 l 115 0 l 115 1014 z "},"Ŀ":{"ha":860,"x_min":125,"x_max":807,"o":"m 575 606 l 744 606 l 744 440 l 575 440 l 575 606 m 125 972 l 296 972 l 296 156 l 807 156 l 807 0 l 125 0 l 125 972 z "},"ŀ":{"ha":510,"x_min":115,"x_max":528,"o":"m 381 599 l 528 599 l 528 443 l 381 443 l 381 599 m 115 1014 l 283 1014 l 283 0 l 115 0 l 115 1014 z "},"Ł":{"ha":901,"x_min":63,"x_max":849,"o":"m 336 435 l 336 156 l 849 156 l 849 0 l 167 0 l 167 358 l 63 313 l 63 475 l 167 521 l 167 972 l 336 972 l 336 597 l 560 699 l 560 536 l 336 435 z "},"ł":{"ha":481,"x_min":51,"x_max":429,"o":"m 324 478 l 324 0 l 157 0 l 157 393 l 51 339 l 51 500 l 157 554 l 157 1014 l 324 1014 l 324 639 l 429 693 l 429 532 l 324 478 z "},"Ń":{"ha":1097,"x_min":125,"x_max":972,"o":"m 635 1253 l 788 1186 l 610 1051 l 479 1051 l 635 1253 m 125 972 l 283 972 l 804 300 l 804 972 l 972 972 l 972 0 l 829 0 l 293 692 l 293 0 l 125 0 l 125 972 z "},"ń":{"ha":861,"x_min":106,"x_max":764,"o":"m 511 1054 l 664 986 l 493 826 l 367 826 l 511 1054 m 106 733 l 274 733 l 274 621 q 313 669 292 646 q 363 710 335 693 q 426 738 392 728 q 503 749 460 749 q 696 672 628 749 q 764 468 764 596 l 764 0 l 596 0 l 596 417 q 555 549 596 503 q 439 596 514 596 q 319 548 365 596 q 274 414 274 500 l 274 0 l 106 0 l 106 733 z "},"Ň":{"ha":1097,"x_min":125,"x_max":972,"o":"m 628 1051 l 469 1051 l 301 1239 l 443 1239 l 550 1160 l 657 1239 l 796 1239 l 628 1051 m 125 972 l 283 972 l 804 300 l 804 972 l 972 972 l 972 0 l 829 0 l 293 692 l 293 0 l 125 0 l 125 972 z "},"ň":{"ha":861,"x_min":106,"x_max":764,"o":"m 511 826 l 356 826 l 194 1031 l 328 1031 l 435 938 l 543 1031 l 674 1031 l 511 826 m 106 733 l 274 733 l 274 621 q 313 669 292 646 q 363 710 335 693 q 426 738 392 728 q 503 749 460 749 q 696 672 628 749 q 764 468 764 596 l 764 0 l 596 0 l 596 417 q 555 549 596 503 q 439 596 514 596 q 319 548 365 596 q 274 414 274 500 l 274 0 l 106 0 l 106 733 z "},"Ņ":{"ha":1097,"x_min":125,"x_max":972,"o":"m 443 -317 q 540 -222 546 -303 l 465 -222 l 465 -82 l 629 -82 l 629 -201 q 585 -327 629 -287 q 454 -371 540 -367 l 443 -317 m 125 972 l 283 972 l 804 300 l 804 972 l 972 972 l 972 0 l 829 0 l 293 692 l 293 0 l 125 0 l 125 972 z "},"ņ":{"ha":861,"x_min":106,"x_max":764,"o":"m 329 -324 q 426 -229 432 -310 l 351 -229 l 351 -89 l 515 -89 l 515 -208 q 471 -334 515 -294 q 340 -378 426 -374 l 329 -324 m 106 733 l 274 733 l 274 621 q 313 669 292 646 q 363 710 335 693 q 426 738 392 728 q 503 749 460 749 q 696 672 628 749 q 764 468 764 596 l 764 0 l 596 0 l 596 417 q 555 549 596 503 q 439 596 514 596 q 319 548 365 596 q 274 414 274 500 l 274 0 l 106 0 l 106 733 z "},"Ñ":{"ha":1097,"x_min":125,"x_max":972,"o":"m 664 1051 q 601 1061 632 1051 q 540 1082 569 1071 q 497 1099 517 1092 q 460 1106 476 1106 q 413 1089 429 1106 q 382 1038 397 1072 l 289 1067 q 346 1193 311 1149 q 444 1238 381 1238 q 508 1227 476 1238 q 568 1206 539 1217 q 612 1190 592 1197 q 649 1183 632 1183 q 694 1200 679 1183 q 725 1250 710 1217 l 819 1222 q 761 1096 796 1140 q 664 1051 726 1051 m 125 972 l 283 972 l 804 300 l 804 972 l 972 972 l 972 0 l 829 0 l 293 692 l 293 0 l 125 0 l 125 972 z "},"ñ":{"ha":861,"x_min":106,"x_max":764,"o":"m 106 733 l 274 733 l 274 621 q 313 669 292 646 q 363 710 335 693 q 426 738 392 728 q 503 749 460 749 q 696 672 628 749 q 764 468 764 596 l 764 0 l 596 0 l 596 417 q 555 549 596 503 q 439 596 514 596 q 319 548 365 596 q 274 414 274 500 l 274 0 l 106 0 l 106 733 m 546 826 q 485 835 514 826 q 429 856 456 844 q 385 874 406 867 q 346 882 364 882 q 300 865 315 882 q 269 813 285 849 l 176 842 q 234 969 200 925 q 332 1014 268 1014 q 393 1005 364 1014 q 449 985 422 996 q 494 966 472 974 q 532 958 515 958 q 578 975 563 958 q 608 1028 593 992 l 701 1000 q 644 871 678 915 q 546 826 610 826 z "},"Ó":{"ha":1181,"x_min":82,"x_max":1099,"o":"m 676 1268 l 829 1201 l 651 1067 l 521 1067 l 676 1268 m 589 -17 q 383 23 476 -17 q 224 131 290 63 q 119 290 157 199 q 82 483 82 381 l 82 486 q 119 680 82 589 q 225 840 157 771 q 386 949 293 908 q 592 989 479 989 q 797 949 704 989 q 957 842 890 910 q 1061 683 1024 774 q 1099 489 1099 592 l 1099 486 q 1061 292 1099 383 q 956 133 1024 201 q 794 24 888 64 q 589 -17 701 -17 m 592 142 q 724 169 664 142 q 828 242 785 196 q 895 350 871 288 q 919 483 919 413 l 919 486 q 895 620 919 557 q 827 730 871 683 q 722 804 783 776 q 589 832 661 832 q 456 805 517 832 q 353 731 396 778 q 285 622 310 685 q 261 489 261 560 l 261 486 q 285 353 261 415 q 353 243 310 290 q 458 169 397 196 q 592 142 519 142 z "},"ó":{"ha":913,"x_min":65,"x_max":847,"o":"m 533 1054 l 686 986 l 515 826 l 389 826 l 533 1054 m 454 -17 q 299 13 371 -17 q 176 94 228 43 q 94 215 124 146 q 65 363 65 285 l 65 365 q 95 514 65 444 q 177 635 125 583 q 301 718 229 688 q 457 749 372 749 q 613 719 542 749 q 737 637 685 689 q 818 516 789 585 q 847 368 847 447 l 847 365 q 817 218 847 288 q 735 97 788 149 q 611 14 683 44 q 454 -17 539 -17 m 457 131 q 549 149 508 131 q 619 199 590 168 q 664 273 649 231 q 679 363 679 315 l 679 365 q 663 457 679 414 q 616 532 646 500 q 545 583 586 564 q 454 601 504 601 q 363 583 404 601 q 293 533 322 564 q 249 458 264 501 q 233 368 233 415 l 233 365 q 250 274 233 317 q 297 200 267 232 q 367 149 326 168 q 457 131 408 131 z "},"Ŏ":{"ha":1181,"x_min":82,"x_max":1099,"o":"m 590 1064 q 424 1112 490 1064 q 350 1250 358 1160 l 469 1250 q 510 1199 482 1218 q 590 1181 538 1181 q 671 1199 643 1181 q 711 1250 699 1218 l 831 1250 q 756 1112 822 1160 q 590 1064 690 1064 m 589 -17 q 383 23 476 -17 q 224 131 290 63 q 119 290 157 199 q 82 483 82 381 l 82 486 q 119 680 82 589 q 225 840 157 771 q 386 949 293 908 q 592 989 479 989 q 797 949 704 989 q 957 842 890 910 q 1061 683 1024 774 q 1099 489 1099 592 l 1099 486 q 1061 292 1099 383 q 956 133 1024 201 q 794 24 888 64 q 589 -17 701 -17 m 592 142 q 724 169 664 142 q 828 242 785 196 q 895 350 871 288 q 919 483 919 413 l 919 486 q 895 620 919 557 q 827 730 871 683 q 722 804 783 776 q 589 832 661 832 q 456 805 517 832 q 353 731 396 778 q 285 622 310 685 q 261 489 261 560 l 261 486 q 285 353 261 415 q 353 243 310 290 q 458 169 397 196 q 592 142 519 142 z "},"ŏ":{"ha":913,"x_min":65,"x_max":847,"o":"m 454 -17 q 299 13 371 -17 q 176 94 228 43 q 94 215 124 146 q 65 363 65 285 l 65 365 q 95 514 65 444 q 177 635 125 583 q 301 718 229 688 q 457 749 372 749 q 613 719 542 749 q 737 637 685 689 q 818 516 789 585 q 847 368 847 447 l 847 365 q 817 218 847 288 q 735 97 788 149 q 611 14 683 44 q 454 -17 539 -17 m 457 131 q 549 149 508 131 q 619 199 590 168 q 664 273 649 231 q 679 363 679 315 l 679 365 q 663 457 679 414 q 616 532 646 500 q 545 583 586 564 q 454 601 504 601 q 363 583 404 601 q 293 533 322 564 q 249 458 264 501 q 233 368 233 415 l 233 365 q 250 274 233 317 q 297 200 267 232 q 367 149 326 168 q 457 131 408 131 m 456 824 q 290 876 356 824 q 218 1025 225 929 l 333 1025 q 374 964 346 988 q 456 940 403 940 q 537 964 508 940 q 578 1025 565 988 l 694 1025 q 621 876 686 929 q 456 824 556 824 z "},"Ô":{"ha":1181,"x_min":82,"x_max":1099,"o":"m 589 -17 q 383 23 476 -17 q 224 131 290 63 q 119 290 157 199 q 82 483 82 381 l 82 486 q 119 680 82 589 q 225 840 157 771 q 386 949 293 908 q 592 989 479 989 q 797 949 704 989 q 957 842 890 910 q 1061 683 1024 774 q 1099 489 1099 592 l 1099 486 q 1061 292 1099 383 q 956 133 1024 201 q 794 24 888 64 q 589 -17 701 -17 m 592 142 q 724 169 664 142 q 828 242 785 196 q 895 350 871 288 q 919 483 919 413 l 919 486 q 895 620 919 557 q 827 730 871 683 q 722 804 783 776 q 589 832 661 832 q 456 805 517 832 q 353 731 396 778 q 285 622 310 685 q 261 489 261 560 l 261 486 q 285 353 261 415 q 353 243 310 290 q 458 169 397 196 q 592 142 519 142 m 511 1254 l 669 1254 l 838 1067 l 696 1067 l 589 1147 l 482 1067 l 343 1067 l 511 1254 z "},"ô":{"ha":913,"x_min":65,"x_max":847,"o":"m 378 1031 l 533 1031 l 696 826 l 563 826 l 454 919 l 347 826 l 217 826 l 378 1031 m 454 -17 q 299 13 371 -17 q 176 94 228 43 q 94 215 124 146 q 65 363 65 285 l 65 365 q 95 514 65 444 q 177 635 125 583 q 301 718 229 688 q 457 749 372 749 q 613 719 542 749 q 737 637 685 689 q 818 516 789 585 q 847 368 847 447 l 847 365 q 817 218 847 288 q 735 97 788 149 q 611 14 683 44 q 454 -17 539 -17 m 457 131 q 549 149 508 131 q 619 199 590 168 q 664 273 649 231 q 679 363 679 315 l 679 365 q 663 457 679 414 q 616 532 646 500 q 545 583 586 564 q 454 601 504 601 q 363 583 404 601 q 293 533 322 564 q 249 458 264 501 q 233 368 233 415 l 233 365 q 250 274 233 317 q 297 200 267 232 q 367 149 326 168 q 457 131 408 131 z "},"Ö":{"ha":1181,"x_min":82,"x_max":1099,"o":"m 647 1222 l 819 1222 l 819 1067 l 647 1067 l 647 1222 m 361 1222 l 535 1222 l 535 1067 l 361 1067 l 361 1222 m 589 -17 q 383 23 476 -17 q 224 131 290 63 q 119 290 157 199 q 82 483 82 381 l 82 486 q 119 680 82 589 q 225 840 157 771 q 386 949 293 908 q 592 989 479 989 q 797 949 704 989 q 957 842 890 910 q 1061 683 1024 774 q 1099 489 1099 592 l 1099 486 q 1061 292 1099 383 q 956 133 1024 201 q 794 24 888 64 q 589 -17 701 -17 m 592 142 q 724 169 664 142 q 828 242 785 196 q 895 350 871 288 q 919 483 919 413 l 919 486 q 895 620 919 557 q 827 730 871 683 q 722 804 783 776 q 589 832 661 832 q 456 805 517 832 q 353 731 396 778 q 285 622 310 685 q 261 489 261 560 l 261 486 q 285 353 261 415 q 353 243 310 290 q 458 169 397 196 q 592 142 519 142 z "},"ö":{"ha":913,"x_min":65,"x_max":847,"o":"m 506 992 l 676 992 l 676 826 l 506 826 l 506 992 m 235 992 l 406 992 l 406 826 l 235 826 l 235 992 m 454 -17 q 299 13 371 -17 q 176 94 228 43 q 94 215 124 146 q 65 363 65 285 l 65 365 q 95 514 65 444 q 177 635 125 583 q 301 718 229 688 q 457 749 372 749 q 613 719 542 749 q 737 637 685 689 q 818 516 789 585 q 847 368 847 447 l 847 365 q 817 218 847 288 q 735 97 788 149 q 611 14 683 44 q 454 -17 539 -17 m 457 131 q 549 149 508 131 q 619 199 590 168 q 664 273 649 231 q 679 363 679 315 l 679 365 q 663 457 679 414 q 616 532 646 500 q 545 583 586 564 q 454 601 504 601 q 363 583 404 601 q 293 533 322 564 q 249 458 264 501 q 233 368 233 415 l 233 365 q 250 274 233 317 q 297 200 267 232 q 367 149 326 168 q 457 131 408 131 z "},"Œ":{"ha":1525,"x_min":82,"x_max":1447,"o":"m 599 0 q 389 37 483 0 q 226 139 294 74 q 119 292 157 204 q 82 483 82 381 l 82 486 q 119 678 82 589 q 226 832 157 767 q 389 935 294 897 q 599 972 483 972 l 1440 972 l 1440 819 l 921 819 l 921 567 l 1378 567 l 1378 414 l 921 414 l 921 153 l 1447 153 l 1447 0 l 599 0 m 750 156 l 750 817 l 599 817 q 460 792 522 817 q 353 724 397 768 q 285 620 310 681 q 261 489 261 560 l 261 486 q 285 354 261 415 q 353 249 310 293 q 460 181 397 206 q 599 156 522 156 l 750 156 z "},"œ":{"ha":1444,"x_min":65,"x_max":1379,"o":"m 446 -17 q 297 13 367 -17 q 176 94 228 43 q 95 215 125 146 q 65 363 65 285 l 65 365 q 95 514 65 444 q 177 635 125 583 q 300 718 229 688 q 453 749 371 749 q 623 708 547 749 q 746 597 699 667 q 865 708 792 667 q 1029 749 938 749 q 1182 717 1117 749 q 1291 631 1247 685 q 1357 505 1335 576 q 1379 354 1379 433 q 1378 331 1379 343 q 1376 307 1378 319 l 838 307 q 910 169 853 217 q 1049 121 968 121 q 1158 143 1111 121 q 1249 208 1204 165 l 1347 121 q 1221 21 1294 58 q 1047 -17 1147 -17 q 872 24 951 -17 q 744 138 793 65 q 619 25 696 67 q 446 -17 542 -17 m 1214 418 q 1195 494 1210 458 q 1158 555 1181 529 q 1102 596 1135 581 q 1028 611 1069 611 q 898 558 949 611 q 836 418 847 504 l 1214 418 m 453 131 q 542 149 503 131 q 610 199 582 168 q 654 273 639 231 q 669 363 669 315 l 669 365 q 653 457 669 414 q 607 532 636 500 q 538 583 578 564 q 450 601 497 601 q 360 583 400 601 q 292 532 321 564 q 249 458 264 500 q 233 368 233 415 l 233 365 q 249 274 233 317 q 294 200 265 232 q 364 149 324 168 q 453 131 404 131 z "},"Ò":{"ha":1181,"x_min":82,"x_max":1099,"o":"m 526 1067 l 350 1201 l 501 1268 l 658 1067 l 526 1067 m 589 -17 q 383 23 476 -17 q 224 131 290 63 q 119 290 157 199 q 82 483 82 381 l 82 486 q 119 680 82 589 q 225 840 157 771 q 386 949 293 908 q 592 989 479 989 q 797 949 704 989 q 957 842 890 910 q 1061 683 1024 774 q 1099 489 1099 592 l 1099 486 q 1061 292 1099 383 q 956 133 1024 201 q 794 24 888 64 q 589 -17 701 -17 m 592 142 q 724 169 664 142 q 828 242 785 196 q 895 350 871 288 q 919 483 919 413 l 919 486 q 895 620 919 557 q 827 730 871 683 q 722 804 783 776 q 589 832 661 832 q 456 805 517 832 q 353 731 396 778 q 285 622 310 685 q 261 489 261 560 l 261 486 q 285 353 261 415 q 353 243 310 290 q 458 169 397 196 q 592 142 519 142 z "},"ò":{"ha":913,"x_min":65,"x_max":847,"o":"m 454 -17 q 299 13 371 -17 q 176 94 228 43 q 94 215 124 146 q 65 363 65 285 l 65 365 q 95 514 65 444 q 177 635 125 583 q 301 718 229 688 q 457 749 372 749 q 613 719 542 749 q 737 637 685 689 q 818 516 789 585 q 847 368 847 447 l 847 365 q 817 218 847 288 q 735 97 788 149 q 611 14 683 44 q 454 -17 539 -17 m 457 131 q 549 149 508 131 q 619 199 590 168 q 664 273 649 231 q 679 363 679 315 l 679 365 q 663 457 679 414 q 616 532 646 500 q 545 583 586 564 q 454 601 504 601 q 363 583 404 601 q 293 533 322 564 q 249 458 264 501 q 233 368 233 415 l 233 365 q 250 274 233 317 q 297 200 267 232 q 367 149 326 168 q 457 131 408 131 m 225 986 l 378 1054 l 522 826 l 396 826 l 225 986 z "},"Ő":{"ha":1181,"x_min":82,"x_max":1099,"o":"m 589 -17 q 383 23 476 -17 q 224 131 290 63 q 119 290 157 199 q 82 483 82 381 l 82 486 q 119 680 82 589 q 225 840 157 771 q 386 949 293 908 q 592 989 479 989 q 797 949 704 989 q 957 842 890 910 q 1061 683 1024 774 q 1099 489 1099 592 l 1099 486 q 1061 292 1099 383 q 956 133 1024 201 q 794 24 888 64 q 589 -17 701 -17 m 592 142 q 724 169 664 142 q 828 242 785 196 q 895 350 871 288 q 919 483 919 413 l 919 486 q 895 620 919 557 q 827 730 871 683 q 722 804 783 776 q 589 832 661 832 q 456 805 517 832 q 353 731 396 778 q 285 622 310 685 q 261 489 261 560 l 261 486 q 285 353 261 415 q 353 243 310 290 q 458 169 397 196 q 592 142 519 142 m 546 1268 l 693 1201 l 517 1067 l 390 1067 l 546 1268 m 789 1268 l 936 1201 l 760 1067 l 633 1067 l 789 1268 z "},"ő":{"ha":913,"x_min":65,"x_max":847,"o":"m 643 1054 l 790 986 l 619 826 l 497 826 l 643 1054 m 404 1054 l 551 986 l 383 826 l 261 826 l 404 1054 m 454 -17 q 299 13 371 -17 q 176 94 228 43 q 94 215 124 146 q 65 363 65 285 l 65 365 q 95 514 65 444 q 177 635 125 583 q 301 718 229 688 q 457 749 372 749 q 613 719 542 749 q 737 637 685 689 q 818 516 789 585 q 847 368 847 447 l 847 365 q 817 218 847 288 q 735 97 788 149 q 611 14 683 44 q 454 -17 539 -17 m 457 131 q 549 149 508 131 q 619 199 590 168 q 664 273 649 231 q 679 363 679 315 l 679 365 q 663 457 679 414 q 616 532 646 500 q 545 583 586 564 q 454 601 504 601 q 363 583 404 601 q 293 533 322 564 q 249 458 264 501 q 233 368 233 415 l 233 365 q 250 274 233 317 q 297 200 267 232 q 367 149 326 168 q 457 131 408 131 z "},"Ō":{"ha":1181,"x_min":82,"x_max":1099,"o":"m 342 1207 l 840 1207 l 840 1082 l 342 1082 l 342 1207 m 589 -17 q 383 23 476 -17 q 224 131 290 63 q 119 290 157 199 q 82 483 82 381 l 82 486 q 119 680 82 589 q 225 840 157 771 q 386 949 293 908 q 592 989 479 989 q 797 949 704 989 q 957 842 890 910 q 1061 683 1024 774 q 1099 489 1099 592 l 1099 486 q 1061 292 1099 383 q 956 133 1024 201 q 794 24 888 64 q 589 -17 701 -17 m 592 142 q 724 169 664 142 q 828 242 785 196 q 895 350 871 288 q 919 483 919 413 l 919 486 q 895 620 919 557 q 827 730 871 683 q 722 804 783 776 q 589 832 661 832 q 456 805 517 832 q 353 731 396 778 q 285 622 310 685 q 261 489 261 560 l 261 486 q 285 353 261 415 q 353 243 310 290 q 458 169 397 196 q 592 142 519 142 z "},"ō":{"ha":913,"x_min":65,"x_max":847,"o":"m 219 964 l 692 964 l 692 842 l 219 842 l 219 964 m 454 -17 q 299 13 371 -17 q 176 94 228 43 q 94 215 124 146 q 65 363 65 285 l 65 365 q 95 514 65 444 q 177 635 125 583 q 301 718 229 688 q 457 749 372 749 q 613 719 542 749 q 737 637 685 689 q 818 516 789 585 q 847 368 847 447 l 847 365 q 817 218 847 288 q 735 97 788 149 q 611 14 683 44 q 454 -17 539 -17 m 457 131 q 549 149 508 131 q 619 199 590 168 q 664 273 649 231 q 679 363 679 315 l 679 365 q 663 457 679 414 q 616 532 646 500 q 545 583 586 564 q 454 601 504 601 q 363 583 404 601 q 293 533 322 564 q 249 458 264 501 q 233 368 233 415 l 233 365 q 250 274 233 317 q 297 200 267 232 q 367 149 326 168 q 457 131 408 131 z "},"Ø":{"ha":1181,"x_min":71,"x_max":1110,"o":"m 1110 979 l 972 824 q 1066 671 1033 757 q 1099 489 1099 585 l 1099 486 q 1061 292 1099 383 q 956 133 1024 201 q 794 24 888 64 q 589 -17 701 -17 q 435 4 507 -17 q 304 64 364 25 l 239 -7 l 71 -7 l 207 149 q 115 301 147 215 q 82 483 82 388 l 82 486 q 119 680 82 589 q 225 840 157 771 q 386 949 293 908 q 592 989 479 989 q 744 967 674 989 q 875 907 815 946 l 942 979 l 1110 979 m 592 138 q 725 165 664 138 q 831 239 786 192 q 899 349 875 286 q 924 483 924 413 l 924 485 q 907 598 924 544 q 858 696 890 651 l 411 190 q 494 151 449 165 q 592 138 540 138 m 258 488 q 275 374 258 428 q 322 276 292 321 l 769 782 q 685 821 731 807 q 589 835 640 835 q 455 808 515 835 q 351 733 394 781 q 283 623 307 686 q 258 489 258 560 l 258 488 z "},"ø":{"ha":913,"x_min":44,"x_max":868,"o":"m 868 742 l 756 615 q 824 502 800 565 q 847 368 847 439 l 847 365 q 817 218 847 288 q 735 97 788 149 q 611 14 683 44 q 454 -17 539 -17 q 341 -1 394 -17 q 243 42 288 14 l 197 -7 l 44 -7 l 156 117 q 89 228 113 165 q 65 363 65 292 l 65 365 q 95 514 65 444 q 177 635 125 583 q 301 718 229 688 q 457 749 372 749 q 570 733 517 749 q 668 690 624 718 l 715 742 l 868 742 m 457 125 q 551 144 508 125 q 622 195 593 163 q 667 271 651 228 q 683 363 683 314 l 683 365 q 674 435 683 401 q 647 496 664 468 l 343 156 q 457 125 393 125 m 229 367 q 265 235 229 294 l 569 574 q 454 606 518 606 q 361 587 403 606 q 290 535 319 568 q 245 460 261 503 q 229 368 229 417 l 229 367 z "},"Ǿ":{"ha":1181,"x_min":71,"x_max":1110,"o":"m 1110 979 l 972 824 q 1066 671 1033 757 q 1099 489 1099 585 l 1099 486 q 1061 292 1099 383 q 956 133 1024 201 q 794 24 888 64 q 589 -17 701 -17 q 435 4 507 -17 q 304 64 364 25 l 239 -7 l 71 -7 l 207 149 q 115 301 147 215 q 82 483 82 388 l 82 486 q 119 680 82 589 q 225 840 157 771 q 386 949 293 908 q 592 989 479 989 q 744 967 674 989 q 875 907 815 946 l 942 979 l 1110 979 m 592 138 q 725 165 664 138 q 831 239 786 192 q 899 349 875 286 q 924 483 924 413 l 924 485 q 907 598 924 544 q 858 696 890 651 l 411 190 q 494 151 449 165 q 592 138 540 138 m 258 488 q 275 374 258 428 q 322 276 292 321 l 769 782 q 685 821 731 807 q 589 835 640 835 q 455 808 515 835 q 351 733 394 781 q 283 623 307 686 q 258 489 258 560 l 258 488 m 676 1268 l 829 1201 l 651 1067 l 521 1067 l 676 1268 z "},"ǿ":{"ha":913,"x_min":44,"x_max":868,"o":"m 868 742 l 756 615 q 824 502 800 565 q 847 368 847 439 l 847 365 q 817 218 847 288 q 735 97 788 149 q 611 14 683 44 q 454 -17 539 -17 q 341 -1 394 -17 q 243 42 288 14 l 197 -7 l 44 -7 l 156 117 q 89 228 113 165 q 65 363 65 292 l 65 365 q 95 514 65 444 q 177 635 125 583 q 301 718 229 688 q 457 749 372 749 q 570 733 517 749 q 668 690 624 718 l 715 742 l 868 742 m 457 125 q 551 144 508 125 q 622 195 593 163 q 667 271 651 228 q 683 363 683 314 l 683 365 q 674 435 683 401 q 647 496 664 468 l 343 156 q 457 125 393 125 m 229 367 q 265 235 229 294 l 569 574 q 454 606 518 606 q 361 587 403 606 q 290 535 319 568 q 245 460 261 503 q 229 368 229 417 l 229 367 m 533 1054 l 686 986 l 515 826 l 389 826 l 533 1054 z "},"Õ":{"ha":1181,"x_min":82,"x_max":1099,"o":"m 706 1067 q 642 1076 674 1067 q 582 1097 611 1086 q 538 1114 558 1107 q 501 1121 518 1121 q 455 1104 471 1121 q 424 1053 439 1088 l 331 1082 q 388 1208 353 1164 q 486 1253 422 1253 q 549 1242 518 1253 q 610 1221 581 1232 q 653 1206 633 1213 q 690 1199 674 1199 q 736 1215 721 1199 q 767 1265 751 1232 l 861 1238 q 803 1111 838 1156 q 706 1067 768 1067 m 589 -17 q 383 23 476 -17 q 224 131 290 63 q 119 290 157 199 q 82 483 82 381 l 82 486 q 119 680 82 589 q 225 840 157 771 q 386 949 293 908 q 592 989 479 989 q 797 949 704 989 q 957 842 890 910 q 1061 683 1024 774 q 1099 489 1099 592 l 1099 486 q 1061 292 1099 383 q 956 133 1024 201 q 794 24 888 64 q 589 -17 701 -17 m 592 142 q 724 169 664 142 q 828 242 785 196 q 895 350 871 288 q 919 483 919 413 l 919 486 q 895 620 919 557 q 827 730 871 683 q 722 804 783 776 q 589 832 661 832 q 456 805 517 832 q 353 731 396 778 q 285 622 310 685 q 261 489 261 560 l 261 486 q 285 353 261 415 q 353 243 310 290 q 458 169 397 196 q 592 142 519 142 z "},"õ":{"ha":913,"x_min":65,"x_max":847,"o":"m 454 -17 q 299 13 371 -17 q 176 94 228 43 q 94 215 124 146 q 65 363 65 285 l 65 365 q 95 514 65 444 q 177 635 125 583 q 301 718 229 688 q 457 749 372 749 q 613 719 542 749 q 737 637 685 689 q 818 516 789 585 q 847 368 847 447 l 847 365 q 817 218 847 288 q 735 97 788 149 q 611 14 683 44 q 454 -17 539 -17 m 457 131 q 549 149 508 131 q 619 199 590 168 q 664 273 649 231 q 679 363 679 315 l 679 365 q 663 457 679 414 q 616 532 646 500 q 545 583 586 564 q 454 601 504 601 q 363 583 404 601 q 293 533 322 564 q 249 458 264 501 q 233 368 233 415 l 233 365 q 250 274 233 317 q 297 200 267 232 q 367 149 326 168 q 457 131 408 131 m 568 826 q 507 835 536 826 q 451 856 478 844 q 407 874 428 867 q 368 882 386 882 q 322 865 338 882 q 292 813 307 849 l 199 842 q 256 969 222 925 q 354 1014 290 1014 q 415 1005 386 1014 q 471 985 444 996 q 516 966 494 974 q 554 958 538 958 q 600 975 585 958 q 631 1028 615 992 l 724 1000 q 666 871 700 915 q 568 826 632 826 z "},"Ŕ":{"ha":1004,"x_min":125,"x_max":951,"o":"m 125 972 l 558 972 q 721 947 650 972 q 839 875 792 921 q 899 782 878 835 q 919 665 919 729 l 919 663 q 855 470 919 543 q 689 368 790 397 l 951 0 l 749 0 l 510 339 l 296 339 l 296 0 l 125 0 l 125 972 m 546 490 q 692 534 638 490 q 746 653 746 578 l 746 656 q 693 776 746 735 q 544 817 640 817 l 296 817 l 296 490 l 546 490 m 576 1254 l 729 1188 l 551 1053 l 421 1053 l 576 1254 z "},"ŕ":{"ha":574,"x_min":106,"x_max":540,"o":"m 388 1054 l 540 986 l 369 826 l 243 826 l 388 1054 m 106 733 l 274 733 l 274 568 q 372 701 308 651 q 533 747 436 751 l 533 569 l 524 569 q 422 551 468 569 q 343 497 376 533 q 292 406 310 461 q 274 279 274 351 l 274 0 l 106 0 l 106 733 z "},"Ř":{"ha":1004,"x_min":125,"x_max":951,"o":"m 125 972 l 558 972 q 721 947 650 972 q 839 875 792 921 q 899 782 878 835 q 919 665 919 729 l 919 663 q 855 470 919 543 q 689 368 790 397 l 951 0 l 749 0 l 510 339 l 296 339 l 296 0 l 125 0 l 125 972 m 546 490 q 692 534 638 490 q 746 653 746 578 l 746 656 q 693 776 746 735 q 544 817 640 817 l 296 817 l 296 490 l 546 490 m 568 1053 l 410 1053 l 242 1240 l 383 1240 l 490 1161 l 597 1240 l 736 1240 l 568 1053 z "},"ř":{"ha":574,"x_min":72,"x_max":551,"o":"m 389 826 l 233 826 l 72 1031 l 206 1031 l 313 938 l 421 1031 l 551 1031 l 389 826 m 106 733 l 274 733 l 274 568 q 372 701 308 651 q 533 747 436 751 l 533 569 l 524 569 q 422 551 468 569 q 343 497 376 533 q 292 406 310 461 q 274 279 274 351 l 274 0 l 106 0 l 106 733 z "},"Ŗ":{"ha":1004,"x_min":125,"x_max":951,"o":"m 125 972 l 558 972 q 721 947 650 972 q 839 875 792 921 q 899 782 878 835 q 919 665 919 729 l 919 663 q 855 470 919 543 q 689 368 790 397 l 951 0 l 749 0 l 510 339 l 296 339 l 296 0 l 125 0 l 125 972 m 546 490 q 692 534 638 490 q 746 653 746 578 l 746 656 q 693 776 746 735 q 544 817 640 817 l 296 817 l 296 490 l 546 490 m 385 -317 q 482 -222 488 -303 l 407 -222 l 407 -82 l 571 -82 l 571 -201 q 526 -327 571 -287 q 396 -371 482 -367 l 385 -317 z "},"ŗ":{"ha":574,"x_min":94,"x_max":533,"o":"m 94 -324 q 192 -229 197 -310 l 117 -229 l 117 -89 l 281 -89 l 281 -208 q 236 -334 281 -294 q 106 -378 192 -374 l 94 -324 m 106 733 l 274 733 l 274 568 q 372 701 308 651 q 533 747 436 751 l 533 569 l 524 569 q 422 551 468 569 q 343 497 376 533 q 292 406 310 461 q 274 279 274 351 l 274 0 l 106 0 l 106 733 z "},"Ś":{"ha":889,"x_min":60,"x_max":813,"o":"m 465 -14 q 250 24 353 -14 q 60 142 147 63 l 163 264 q 306 170 233 203 q 469 138 379 138 q 595 172 549 138 q 642 260 642 206 l 642 263 q 633 309 642 289 q 599 347 624 329 q 533 381 575 365 q 422 411 490 396 q 284 452 344 429 q 183 508 224 475 q 120 588 142 540 q 99 701 99 635 l 99 704 q 124 819 99 767 q 192 908 149 871 q 297 965 236 944 q 431 986 358 986 q 623 955 538 986 q 783 864 708 924 l 692 735 q 560 809 625 783 q 428 835 494 835 q 311 801 353 835 q 269 719 269 768 l 269 717 q 279 667 269 689 q 315 628 289 646 q 386 596 342 611 q 501 564 431 581 q 636 521 578 544 q 734 463 694 497 q 793 384 774 429 q 813 279 813 339 l 813 276 q 787 154 813 208 q 715 63 761 100 q 606 6 669 25 q 465 -14 542 -14 m 538 1268 l 690 1201 l 513 1067 l 382 1067 l 538 1268 z "},"ś":{"ha":696,"x_min":46,"x_max":629,"o":"m 429 1054 l 582 986 l 411 826 l 285 826 l 429 1054 m 357 -14 q 197 14 278 -14 q 46 96 115 42 l 121 210 q 243 142 182 165 q 361 119 304 119 q 445 141 415 119 q 475 199 475 163 l 475 201 q 462 238 475 222 q 426 264 449 253 q 373 285 403 275 q 311 304 343 294 q 230 331 271 315 q 156 370 189 346 q 103 431 124 394 q 82 519 82 467 l 82 522 q 102 615 82 574 q 158 686 122 657 q 241 731 193 715 q 343 746 289 746 q 483 724 413 746 q 613 663 554 701 l 546 543 q 439 594 493 575 q 339 613 385 613 q 263 592 290 613 q 236 540 236 572 l 236 538 q 250 502 236 517 q 287 476 264 488 q 340 453 310 464 q 401 433 369 443 q 482 404 442 421 q 555 363 522 388 q 608 304 588 339 q 629 219 629 269 l 629 217 q 608 115 629 158 q 551 44 588 72 q 464 1 514 15 q 357 -14 414 -14 z "},"Š":{"ha":889,"x_min":60,"x_max":813,"o":"m 465 -14 q 250 24 353 -14 q 60 142 147 63 l 163 264 q 306 170 233 203 q 469 138 379 138 q 595 172 549 138 q 642 260 642 206 l 642 263 q 633 309 642 289 q 599 347 624 329 q 533 381 575 365 q 422 411 490 396 q 284 452 344 429 q 183 508 224 475 q 120 588 142 540 q 99 701 99 635 l 99 704 q 124 819 99 767 q 192 908 149 871 q 297 965 236 944 q 431 986 358 986 q 623 955 538 986 q 783 864 708 924 l 692 735 q 560 809 625 783 q 428 835 494 835 q 311 801 353 835 q 269 719 269 768 l 269 717 q 279 667 269 689 q 315 628 289 646 q 386 596 342 611 q 501 564 431 581 q 636 521 578 544 q 734 463 694 497 q 793 384 774 429 q 813 279 813 339 l 813 276 q 787 154 813 208 q 715 63 761 100 q 606 6 669 25 q 465 -14 542 -14 m 531 1067 l 372 1067 l 204 1254 l 346 1254 l 453 1175 l 560 1254 l 699 1254 l 531 1067 z "},"š":{"ha":696,"x_min":46,"x_max":629,"o":"m 429 826 l 274 826 l 113 1031 l 246 1031 l 353 938 l 461 1031 l 592 1031 l 429 826 m 357 -14 q 197 14 278 -14 q 46 96 115 42 l 121 210 q 243 142 182 165 q 361 119 304 119 q 445 141 415 119 q 475 199 475 163 l 475 201 q 462 238 475 222 q 426 264 449 253 q 373 285 403 275 q 311 304 343 294 q 230 331 271 315 q 156 370 189 346 q 103 431 124 394 q 82 519 82 467 l 82 522 q 102 615 82 574 q 158 686 122 657 q 241 731 193 715 q 343 746 289 746 q 483 724 413 746 q 613 663 554 701 l 546 543 q 439 594 493 575 q 339 613 385 613 q 263 592 290 613 q 236 540 236 572 l 236 538 q 250 502 236 517 q 287 476 264 488 q 340 453 310 464 q 401 433 369 443 q 482 404 442 421 q 555 363 522 388 q 608 304 588 339 q 629 219 629 269 l 629 217 q 608 115 629 158 q 551 44 588 72 q 464 1 514 15 q 357 -14 414 -14 z "},"Ş":{"ha":889,"x_min":60,"x_max":813,"o":"m 279 -168 l 388 -8 q 215 40 297 3 q 60 142 132 76 l 163 264 q 306 170 233 203 q 469 138 379 138 q 595 172 549 138 q 642 260 642 206 l 642 263 q 633 309 642 289 q 599 347 624 329 q 533 381 575 365 q 422 411 490 396 q 284 452 344 429 q 183 508 224 475 q 120 588 142 540 q 99 701 99 635 l 99 704 q 124 819 99 767 q 192 908 149 871 q 297 965 236 944 q 431 986 358 986 q 623 955 538 986 q 783 864 708 924 l 692 735 q 560 809 625 783 q 428 835 494 835 q 311 801 353 835 q 269 719 269 768 l 269 717 q 279 667 269 689 q 315 628 289 646 q 386 596 342 611 q 501 564 431 581 q 636 521 578 544 q 734 463 694 497 q 793 384 774 429 q 813 279 813 339 l 813 276 q 791 164 813 214 q 731 77 769 114 q 639 18 693 40 q 519 -11 585 -4 l 426 -231 l 279 -168 z "},"ş":{"ha":696,"x_min":46,"x_max":629,"o":"m 167 -168 l 276 -7 q 156 30 215 4 q 46 96 97 56 l 121 210 q 243 142 182 165 q 361 119 304 119 q 445 141 415 119 q 475 199 475 163 l 475 201 q 462 238 475 222 q 426 264 449 253 q 373 285 403 275 q 311 304 343 294 q 230 331 271 315 q 156 370 189 346 q 103 431 124 394 q 82 519 82 467 l 82 522 q 102 615 82 574 q 158 686 122 657 q 241 731 193 715 q 343 746 289 746 q 483 724 413 746 q 613 663 554 701 l 546 543 q 439 594 493 575 q 339 613 385 613 q 263 592 290 613 q 236 540 236 572 l 236 538 q 250 502 236 517 q 287 476 264 488 q 340 453 310 464 q 401 433 369 443 q 482 404 442 421 q 555 363 522 388 q 608 304 588 339 q 629 219 629 269 l 629 217 q 566 57 629 114 q 407 -11 503 0 l 314 -231 l 167 -168 z "},"Ș":{"ha":889,"x_min":60,"x_max":813,"o":"m 346 -328 q 443 -233 449 -314 l 368 -233 l 368 -93 l 532 -93 l 532 -212 q 488 -338 532 -299 q 357 -382 443 -378 l 346 -328 m 465 -14 q 250 24 353 -14 q 60 142 147 63 l 163 264 q 306 170 233 203 q 469 138 379 138 q 595 172 549 138 q 642 260 642 206 l 642 263 q 633 309 642 289 q 599 347 624 329 q 533 381 575 365 q 422 411 490 396 q 284 452 344 429 q 183 508 224 475 q 120 588 142 540 q 99 701 99 635 l 99 704 q 124 819 99 767 q 192 908 149 871 q 297 965 236 944 q 431 986 358 986 q 623 955 538 986 q 783 864 708 924 l 692 735 q 560 809 625 783 q 428 835 494 835 q 311 801 353 835 q 269 719 269 768 l 269 717 q 279 667 269 689 q 315 628 289 646 q 386 596 342 611 q 501 564 431 581 q 636 521 578 544 q 734 463 694 497 q 793 384 774 429 q 813 279 813 339 l 813 276 q 787 154 813 208 q 715 63 761 100 q 606 6 669 25 q 465 -14 542 -14 z "},"ș":{"ha":696,"x_min":46,"x_max":629,"o":"m 247 -324 q 344 -229 350 -310 l 269 -229 l 269 -89 l 433 -89 l 433 -208 q 389 -334 433 -294 q 258 -378 344 -374 l 247 -324 m 357 -14 q 197 14 278 -14 q 46 96 115 42 l 121 210 q 243 142 182 165 q 361 119 304 119 q 445 141 415 119 q 475 199 475 163 l 475 201 q 462 238 475 222 q 426 264 449 253 q 373 285 403 275 q 311 304 343 294 q 230 331 271 315 q 156 370 189 346 q 103 431 124 394 q 82 519 82 467 l 82 522 q 102 615 82 574 q 158 686 122 657 q 241 731 193 715 q 343 746 289 746 q 483 724 413 746 q 613 663 554 701 l 546 543 q 439 594 493 575 q 339 613 385 613 q 263 592 290 613 q 236 540 236 572 l 236 538 q 250 502 236 517 q 287 476 264 488 q 340 453 310 464 q 401 433 369 443 q 482 404 442 421 q 555 363 522 388 q 608 304 588 339 q 629 219 629 269 l 629 217 q 608 115 629 158 q 551 44 588 72 q 464 1 514 15 q 357 -14 414 -14 z "},"Ť":{"ha":900,"x_min":56,"x_max":844,"o":"m 529 1053 l 371 1053 l 203 1240 l 344 1240 l 451 1161 l 558 1240 l 697 1240 l 529 1053 m 364 814 l 56 814 l 56 972 l 844 972 l 844 814 l 536 814 l 536 0 l 364 0 l 364 814 z "},"ť":{"ha":571,"x_min":47,"x_max":557,"o":"m 426 1082 l 557 1082 l 557 1078 l 479 818 l 410 818 l 426 1082 m 351 -12 q 267 -1 306 -12 q 199 35 228 10 q 156 101 171 60 q 140 203 140 142 l 140 589 l 47 589 l 47 733 l 140 733 l 140 935 l 308 935 l 308 733 l 506 733 l 506 589 l 308 589 l 308 229 q 332 159 308 181 q 399 138 356 138 q 503 163 453 138 l 503 25 q 435 -3 471 7 q 351 -12 400 -12 z "},"Ţ":{"ha":900,"x_min":56,"x_max":844,"o":"m 344 -324 q 442 -229 447 -310 l 367 -229 l 367 -89 l 531 -89 l 531 -208 q 486 -334 531 -294 q 356 -378 442 -374 l 344 -324 m 364 814 l 56 814 l 56 972 l 844 972 l 844 814 l 536 814 l 536 0 l 364 0 l 364 814 z "},"ţ":{"ha":571,"x_min":47,"x_max":506,"o":"m 206 -324 q 303 -229 308 -310 l 228 -229 l 228 -89 l 392 -89 l 392 -208 q 347 -334 392 -294 q 217 -378 303 -374 l 206 -324 m 351 -12 q 267 -1 306 -12 q 199 35 228 10 q 156 101 171 60 q 140 203 140 142 l 140 589 l 47 589 l 47 733 l 140 733 l 140 935 l 308 935 l 308 733 l 506 733 l 506 589 l 308 589 l 308 229 q 332 159 308 181 q 399 138 356 138 q 503 163 453 138 l 503 25 q 435 -3 471 7 q 351 -12 400 -12 z "},"Þ":{"ha":935,"x_min":125,"x_max":878,"o":"m 125 972 l 296 972 l 296 821 l 508 821 q 662 798 593 821 q 778 732 731 775 q 852 629 826 689 q 878 496 878 569 l 878 493 q 847 349 878 411 q 764 244 817 286 q 640 182 711 203 q 489 161 569 161 l 296 161 l 296 0 l 125 0 l 125 972 m 494 314 q 648 363 592 314 q 704 489 704 413 l 704 492 q 647 622 704 578 q 494 665 590 665 l 296 665 l 296 314 l 494 314 z "},"þ":{"ha":932,"x_min":106,"x_max":864,"o":"m 106 1014 l 274 1014 l 274 611 q 374 708 314 668 q 524 749 433 749 q 649 724 588 749 q 758 650 711 699 q 835 531 806 601 q 864 368 864 460 l 864 365 q 835 203 864 274 q 759 83 807 132 q 650 10 711 35 q 524 -15 589 -15 q 372 24 432 -15 q 274 114 313 63 l 274 -222 l 106 -222 l 106 1014 m 483 131 q 565 147 526 131 q 631 194 603 164 q 676 267 660 224 q 693 365 693 311 l 693 368 q 676 465 693 421 q 631 539 660 508 q 565 586 603 569 q 483 603 526 603 q 401 586 440 603 q 333 538 363 569 q 287 464 304 507 q 269 368 269 421 l 269 365 q 287 269 269 313 q 333 195 304 226 q 401 147 363 164 q 483 131 440 131 z "},"Ú":{"ha":1051,"x_min":110,"x_max":942,"o":"m 613 1253 l 765 1186 l 588 1051 l 457 1051 l 613 1253 m 524 -15 q 353 12 429 -15 q 222 93 276 39 q 139 227 168 147 q 110 413 110 307 l 110 972 l 281 972 l 281 419 q 346 213 281 283 q 526 143 411 143 q 706 210 640 143 q 771 413 771 278 l 771 972 l 942 972 l 942 421 q 912 231 942 313 q 828 94 882 149 q 697 12 774 39 q 524 -15 619 -15 z "},"ú":{"ha":861,"x_min":97,"x_max":757,"o":"m 503 1054 l 656 986 l 485 826 l 358 826 l 503 1054 m 358 -15 q 165 61 233 -15 q 97 267 97 138 l 97 733 l 265 733 l 265 317 q 306 185 265 231 q 422 139 347 139 q 542 186 496 139 q 588 319 588 233 l 588 733 l 757 733 l 757 0 l 588 0 l 588 114 q 497 23 551 61 q 358 -15 443 -15 z "},"Ŭ":{"ha":1051,"x_min":110,"x_max":942,"o":"m 525 1039 q 359 1087 425 1039 q 285 1225 293 1135 l 404 1225 q 444 1174 417 1193 q 525 1156 472 1156 q 606 1174 578 1156 q 646 1225 633 1193 l 765 1225 q 691 1087 757 1135 q 525 1039 625 1039 m 524 -15 q 353 12 429 -15 q 222 93 276 39 q 139 227 168 147 q 110 413 110 307 l 110 972 l 281 972 l 281 419 q 346 213 281 283 q 526 143 411 143 q 706 210 640 143 q 771 413 771 278 l 771 972 l 942 972 l 942 421 q 912 231 942 313 q 828 94 882 149 q 697 12 774 39 q 524 -15 619 -15 z "},"ŭ":{"ha":861,"x_min":97,"x_max":757,"o":"m 358 -15 q 165 61 233 -15 q 97 267 97 138 l 97 733 l 265 733 l 265 317 q 306 185 265 231 q 422 139 347 139 q 542 186 496 139 q 588 319 588 233 l 588 733 l 757 733 l 757 0 l 588 0 l 588 114 q 497 23 551 61 q 358 -15 443 -15 m 425 824 q 260 876 325 824 q 188 1025 194 929 l 303 1025 q 344 964 315 988 q 425 940 372 940 q 506 964 478 940 q 547 1025 535 988 l 664 1025 q 590 876 656 929 q 425 824 525 824 z "},"Û":{"ha":1051,"x_min":110,"x_max":942,"o":"m 524 -15 q 353 12 429 -15 q 222 93 276 39 q 139 227 168 147 q 110 413 110 307 l 110 972 l 281 972 l 281 419 q 346 213 281 283 q 526 143 411 143 q 706 210 640 143 q 771 413 771 278 l 771 972 l 942 972 l 942 421 q 912 231 942 313 q 828 94 882 149 q 697 12 774 39 q 524 -15 619 -15 m 446 1239 l 604 1239 l 772 1051 l 631 1051 l 524 1132 l 417 1051 l 278 1051 l 446 1239 z "},"û":{"ha":861,"x_min":97,"x_max":757,"o":"m 347 1031 l 503 1031 l 665 826 l 532 826 l 424 919 l 317 826 l 186 826 l 347 1031 m 358 -15 q 165 61 233 -15 q 97 267 97 138 l 97 733 l 265 733 l 265 317 q 306 185 265 231 q 422 139 347 139 q 542 186 496 139 q 588 319 588 233 l 588 733 l 757 733 l 757 0 l 588 0 l 588 114 q 497 23 551 61 q 358 -15 443 -15 z "},"Ü":{"ha":1051,"x_min":110,"x_max":942,"o":"m 582 1207 l 754 1207 l 754 1051 l 582 1051 l 582 1207 m 296 1207 l 469 1207 l 469 1051 l 296 1051 l 296 1207 m 524 -15 q 353 12 429 -15 q 222 93 276 39 q 139 227 168 147 q 110 413 110 307 l 110 972 l 281 972 l 281 419 q 346 213 281 283 q 526 143 411 143 q 706 210 640 143 q 771 413 771 278 l 771 972 l 942 972 l 942 421 q 912 231 942 313 q 828 94 882 149 q 697 12 774 39 q 524 -15 619 -15 z "},"ü":{"ha":861,"x_min":97,"x_max":757,"o":"m 475 992 l 646 992 l 646 826 l 475 826 l 475 992 m 204 992 l 375 992 l 375 826 l 204 826 l 204 992 m 358 -15 q 165 61 233 -15 q 97 267 97 138 l 97 733 l 265 733 l 265 317 q 306 185 265 231 q 422 139 347 139 q 542 186 496 139 q 588 319 588 233 l 588 733 l 757 733 l 757 0 l 588 0 l 588 114 q 497 23 551 61 q 358 -15 443 -15 z "},"Ù":{"ha":1051,"x_min":110,"x_max":942,"o":"m 463 1051 l 286 1186 l 438 1253 l 594 1051 l 463 1051 m 524 -15 q 353 12 429 -15 q 222 93 276 39 q 139 227 168 147 q 110 413 110 307 l 110 972 l 281 972 l 281 419 q 346 213 281 283 q 526 143 411 143 q 706 210 640 143 q 771 413 771 278 l 771 972 l 942 972 l 942 421 q 912 231 942 313 q 828 94 882 149 q 697 12 774 39 q 524 -15 619 -15 z "},"ù":{"ha":861,"x_min":97,"x_max":757,"o":"m 358 -15 q 165 61 233 -15 q 97 267 97 138 l 97 733 l 265 733 l 265 317 q 306 185 265 231 q 422 139 347 139 q 542 186 496 139 q 588 319 588 233 l 588 733 l 757 733 l 757 0 l 588 0 l 588 114 q 497 23 551 61 q 358 -15 443 -15 m 194 986 l 347 1054 l 492 826 l 365 826 l 194 986 z "},"Ű":{"ha":1051,"x_min":110,"x_max":942,"o":"m 524 -15 q 353 12 429 -15 q 222 93 276 39 q 139 227 168 147 q 110 413 110 307 l 110 972 l 281 972 l 281 419 q 346 213 281 283 q 526 143 411 143 q 706 210 640 143 q 771 413 771 278 l 771 972 l 942 972 l 942 421 q 912 231 942 313 q 828 94 882 149 q 697 12 774 39 q 524 -15 619 -15 m 481 1253 l 628 1186 l 451 1051 l 325 1051 l 481 1253 m 724 1253 l 871 1186 l 694 1051 l 568 1051 l 724 1253 z "},"ű":{"ha":861,"x_min":97,"x_max":760,"o":"m 358 -15 q 165 61 233 -15 q 97 267 97 138 l 97 733 l 265 733 l 265 317 q 306 185 265 231 q 422 139 347 139 q 542 186 496 139 q 588 319 588 233 l 588 733 l 757 733 l 757 0 l 588 0 l 588 114 q 497 23 551 61 q 358 -15 443 -15 m 613 1054 l 760 986 l 589 826 l 467 826 l 613 1054 m 374 1054 l 521 986 l 353 826 l 231 826 l 374 1054 z "},"Ū":{"ha":1051,"x_min":110,"x_max":942,"o":"m 276 1192 l 775 1192 l 775 1067 l 276 1067 l 276 1192 m 524 -15 q 353 12 429 -15 q 222 93 276 39 q 139 227 168 147 q 110 413 110 307 l 110 972 l 281 972 l 281 419 q 346 213 281 283 q 526 143 411 143 q 706 210 640 143 q 771 413 771 278 l 771 972 l 942 972 l 942 421 q 912 231 942 313 q 828 94 882 149 q 697 12 774 39 q 524 -15 619 -15 z "},"ū":{"ha":861,"x_min":97,"x_max":757,"o":"m 358 -15 q 165 61 233 -15 q 97 267 97 138 l 97 733 l 265 733 l 265 317 q 306 185 265 231 q 422 139 347 139 q 542 186 496 139 q 588 319 588 233 l 588 733 l 757 733 l 757 0 l 588 0 l 588 114 q 497 23 551 61 q 358 -15 443 -15 m 189 964 l 661 964 l 661 842 l 189 842 l 189 964 z "},"Ų":{"ha":1051,"x_min":110,"x_max":942,"o":"m 636 -228 q 613 -230 624 -229 q 592 -231 601 -231 q 455 -197 501 -229 q 408 -114 408 -164 q 420 -61 408 -86 q 454 -11 432 -36 q 202 114 294 8 q 110 413 110 219 l 110 972 l 281 972 l 281 419 q 346 213 281 283 q 526 143 411 143 q 706 210 640 143 q 771 413 771 278 l 771 972 l 942 972 l 942 421 q 841 108 942 217 q 569 -12 740 0 q 543 -51 550 -33 q 536 -87 536 -69 q 636 -147 536 -147 l 636 -228 z "},"ų":{"ha":861,"x_min":97,"x_max":772,"o":"m 358 -15 q 165 61 233 -15 q 97 267 97 138 l 97 733 l 265 733 l 265 317 q 306 185 265 231 q 422 139 347 139 q 542 186 496 139 q 588 319 588 233 l 588 733 l 757 733 l 757 0 l 718 0 q 683 -47 693 -25 q 672 -87 672 -68 q 772 -147 672 -147 l 772 -228 q 749 -230 760 -229 q 728 -231 738 -231 q 591 -197 638 -229 q 544 -114 544 -164 q 559 -55 544 -82 q 600 0 574 -28 l 588 0 l 588 114 q 497 23 551 61 q 358 -15 443 -15 z "},"Ů":{"ha":1051,"x_min":110,"x_max":942,"o":"m 524 -15 q 353 12 429 -15 q 222 93 276 39 q 139 227 168 147 q 110 413 110 307 l 110 972 l 281 972 l 281 419 q 346 213 281 283 q 526 143 411 143 q 706 210 640 143 q 771 413 771 278 l 771 972 l 942 972 l 942 421 q 912 231 942 313 q 828 94 882 149 q 697 12 774 39 q 524 -15 619 -15 m 525 1019 q 462 1031 492 1019 q 409 1061 432 1042 q 373 1108 386 1081 q 360 1167 360 1135 q 373 1225 360 1199 q 409 1271 386 1251 q 462 1301 432 1290 q 525 1313 492 1313 q 588 1301 558 1313 q 641 1271 618 1290 q 677 1225 664 1251 q 690 1167 690 1199 q 677 1108 690 1135 q 641 1061 664 1081 q 588 1031 618 1042 q 525 1019 558 1019 m 525 1085 q 590 1108 565 1085 q 615 1167 615 1132 q 590 1224 615 1200 q 525 1247 565 1247 q 460 1224 485 1247 q 436 1167 436 1200 q 460 1108 436 1132 q 525 1085 485 1085 z "},"ů":{"ha":861,"x_min":97,"x_max":757,"o":"m 425 806 q 363 818 392 806 q 311 851 333 831 q 276 901 289 872 q 264 961 264 929 q 276 1022 264 993 q 311 1071 289 1050 q 363 1104 333 1092 q 425 1117 392 1117 q 488 1104 458 1117 q 539 1071 517 1092 q 574 1022 561 1050 q 586 961 586 993 q 574 901 586 929 q 539 851 561 872 q 488 818 517 831 q 425 806 458 806 m 425 868 q 491 895 464 868 q 518 961 518 922 q 491 1027 518 1000 q 425 1054 464 1054 q 359 1027 386 1054 q 332 961 332 1000 q 359 895 332 922 q 425 868 386 868 m 358 -15 q 165 61 233 -15 q 97 267 97 138 l 97 733 l 265 733 l 265 317 q 306 185 265 231 q 422 139 347 139 q 542 186 496 139 q 588 319 588 233 l 588 733 l 757 733 l 757 0 l 588 0 l 588 114 q 497 23 551 61 q 358 -15 443 -15 z "},"Ẃ":{"ha":1550,"x_min":50,"x_max":1500,"o":"m 861 1254 l 1014 1188 l 836 1053 l 706 1053 l 861 1254 m 50 972 l 235 972 l 467 251 l 706 975 l 850 975 l 1089 251 l 1321 972 l 1500 972 l 1163 -7 l 1014 -7 l 775 692 l 536 -7 l 389 -7 l 50 972 z "},"ẃ":{"ha":1196,"x_min":44,"x_max":1153,"o":"m 674 1054 l 826 986 l 656 826 l 529 826 l 674 1054 m 44 733 l 217 733 l 364 231 l 526 736 l 671 736 l 833 231 l 983 733 l 1153 733 l 913 -6 l 761 -6 l 597 496 l 432 -6 l 282 -6 l 44 733 z "},"Ŵ":{"ha":1550,"x_min":50,"x_max":1500,"o":"m 50 972 l 235 972 l 467 251 l 706 975 l 850 975 l 1089 251 l 1321 972 l 1500 972 l 1163 -7 l 1014 -7 l 775 692 l 536 -7 l 389 -7 l 50 972 m 696 1240 l 854 1240 l 1022 1053 l 881 1053 l 774 1133 l 667 1053 l 528 1053 l 696 1240 z "},"ŵ":{"ha":1196,"x_min":44,"x_max":1153,"o":"m 519 1031 l 675 1031 l 838 826 l 704 826 l 596 919 l 489 826 l 358 826 l 519 1031 m 44 733 l 217 733 l 364 231 l 526 736 l 671 736 l 833 231 l 983 733 l 1153 733 l 913 -6 l 761 -6 l 597 496 l 432 -6 l 282 -6 l 44 733 z "},"Ẅ":{"ha":1550,"x_min":50,"x_max":1500,"o":"m 832 1208 l 1004 1208 l 1004 1053 l 832 1053 l 832 1208 m 546 1208 l 719 1208 l 719 1053 l 546 1053 l 546 1208 m 50 972 l 235 972 l 467 251 l 706 975 l 850 975 l 1089 251 l 1321 972 l 1500 972 l 1163 -7 l 1014 -7 l 775 692 l 536 -7 l 389 -7 l 50 972 z "},"ẅ":{"ha":1196,"x_min":44,"x_max":1153,"o":"m 647 992 l 818 992 l 818 826 l 647 826 l 647 992 m 376 992 l 547 992 l 547 826 l 376 826 l 376 992 m 44 733 l 217 733 l 364 231 l 526 736 l 671 736 l 833 231 l 983 733 l 1153 733 l 913 -6 l 761 -6 l 597 496 l 432 -6 l 282 -6 l 44 733 z "},"Ẁ":{"ha":1550,"x_min":50,"x_max":1500,"o":"m 711 1053 l 535 1188 l 686 1254 l 843 1053 l 711 1053 m 50 972 l 235 972 l 467 251 l 706 975 l 850 975 l 1089 251 l 1321 972 l 1500 972 l 1163 -7 l 1014 -7 l 775 692 l 536 -7 l 389 -7 l 50 972 z "},"ẁ":{"ha":1196,"x_min":44,"x_max":1153,"o":"m 44 733 l 217 733 l 364 231 l 526 736 l 671 736 l 833 231 l 983 733 l 1153 733 l 913 -6 l 761 -6 l 597 496 l 432 -6 l 282 -6 l 44 733 m 367 986 l 519 1054 l 664 826 l 538 826 l 367 986 z "},"Ý":{"ha":994,"x_min":25,"x_max":969,"o":"m 411 383 l 25 972 l 228 972 l 499 543 l 774 972 l 969 972 l 583 388 l 583 0 l 411 0 l 411 383 m 583 1253 l 736 1186 l 558 1051 l 428 1051 l 583 1253 z "},"ý":{"ha":828,"x_min":36,"x_max":789,"o":"m 614 733 l 789 733 l 497 -21 q 451 -117 475 -78 q 399 -180 428 -156 q 335 -215 369 -204 q 256 -226 300 -226 q 162 -215 203 -226 q 82 -182 121 -203 l 139 -57 q 187 -77 163 -69 q 238 -85 211 -85 q 297 -67 274 -85 q 342 -1 321 -49 l 36 733 l 217 733 l 424 189 l 614 733 m 492 1054 l 644 986 l 474 826 l 347 826 l 492 1054 z "},"Ŷ":{"ha":994,"x_min":25,"x_max":969,"o":"m 411 383 l 25 972 l 228 972 l 499 543 l 774 972 l 969 972 l 583 388 l 583 0 l 411 0 l 411 383 m 418 1239 l 576 1239 l 744 1051 l 603 1051 l 496 1132 l 389 1051 l 250 1051 l 418 1239 z "},"ŷ":{"ha":828,"x_min":36,"x_max":789,"o":"m 614 733 l 789 733 l 497 -21 q 451 -117 475 -78 q 399 -180 428 -156 q 335 -215 369 -204 q 256 -226 300 -226 q 162 -215 203 -226 q 82 -182 121 -203 l 139 -57 q 187 -77 163 -69 q 238 -85 211 -85 q 297 -67 274 -85 q 342 -1 321 -49 l 36 733 l 217 733 l 424 189 l 614 733 m 336 1031 l 492 1031 l 654 826 l 521 826 l 413 919 l 306 826 l 175 826 l 336 1031 z "},"Ÿ":{"ha":994,"x_min":25,"x_max":969,"o":"m 411 383 l 25 972 l 228 972 l 499 543 l 774 972 l 969 972 l 583 388 l 583 0 l 411 0 l 411 383 m 554 1207 l 726 1207 l 726 1051 l 554 1051 l 554 1207 m 268 1207 l 442 1207 l 442 1051 l 268 1051 l 268 1207 z "},"ÿ":{"ha":828,"x_min":36,"x_max":789,"o":"m 614 733 l 789 733 l 497 -21 q 451 -117 475 -78 q 399 -180 428 -156 q 335 -215 369 -204 q 256 -226 300 -226 q 162 -215 203 -226 q 82 -182 121 -203 l 139 -57 q 187 -77 163 -69 q 238 -85 211 -85 q 297 -67 274 -85 q 342 -1 321 -49 l 36 733 l 217 733 l 424 189 l 614 733 m 464 992 l 635 992 l 635 826 l 464 826 l 464 992 m 193 992 l 364 992 l 364 826 l 193 826 l 193 992 z "},"Ỳ":{"ha":994,"x_min":25,"x_max":969,"o":"m 411 383 l 25 972 l 228 972 l 499 543 l 774 972 l 969 972 l 583 388 l 583 0 l 411 0 l 411 383 m 433 1051 l 257 1186 l 408 1253 l 565 1051 l 433 1051 z "},"ỳ":{"ha":828,"x_min":36,"x_max":789,"o":"m 614 733 l 789 733 l 497 -21 q 451 -117 475 -78 q 399 -180 428 -156 q 335 -215 369 -204 q 256 -226 300 -226 q 162 -215 203 -226 q 82 -182 121 -203 l 139 -57 q 187 -77 163 -69 q 238 -85 211 -85 q 297 -67 274 -85 q 342 -1 321 -49 l 36 733 l 217 733 l 424 189 l 614 733 m 183 986 l 336 1054 l 481 826 l 354 826 l 183 986 z "},"Ź":{"ha":975,"x_min":90,"x_max":888,"o":"m 90 126 l 664 821 l 108 821 l 108 972 l 888 972 l 888 846 l 313 151 l 888 151 l 888 0 l 90 0 l 90 126 m 583 1254 l 736 1188 l 558 1053 l 428 1053 l 583 1254 z "},"ź":{"ha":778,"x_min":72,"x_max":710,"o":"m 469 1054 l 622 986 l 451 826 l 325 826 l 469 1054 m 72 115 l 496 596 l 88 596 l 88 733 l 710 733 l 710 618 l 286 138 l 710 138 l 710 0 l 72 0 l 72 115 z "},"Ž":{"ha":975,"x_min":90,"x_max":888,"o":"m 575 1053 l 417 1053 l 249 1240 l 390 1240 l 497 1161 l 604 1240 l 743 1240 l 575 1053 m 90 126 l 664 821 l 108 821 l 108 972 l 888 972 l 888 846 l 313 151 l 888 151 l 888 0 l 90 0 l 90 126 z "},"ž":{"ha":778,"x_min":72,"x_max":710,"o":"m 469 826 l 314 826 l 153 1031 l 286 1031 l 393 938 l 501 1031 l 632 1031 l 469 826 m 72 115 l 496 596 l 88 596 l 88 733 l 710 733 l 710 618 l 286 138 l 710 138 l 710 0 l 72 0 l 72 115 z "},"Ż":{"ha":975,"x_min":90,"x_max":888,"o":"m 407 1208 l 585 1208 l 585 1053 l 407 1053 l 407 1208 m 90 126 l 664 821 l 108 821 l 108 972 l 888 972 l 888 846 l 313 151 l 888 151 l 888 0 l 90 0 l 90 126 z "},"ż":{"ha":778,"x_min":72,"x_max":710,"o":"m 72 115 l 496 596 l 88 596 l 88 733 l 710 733 l 710 618 l 286 138 l 710 138 l 710 0 l 72 0 l 72 115 m 304 992 l 479 992 l 479 826 l 304 826 l 304 992 z "},"ə":{"ha":839,"x_min":64,"x_max":774,"o":"m 397 750 q 545 722 476 750 q 665 644 614 694 q 744 524 715 594 q 774 369 774 454 l 774 367 q 747 218 774 288 q 673 97 721 149 q 560 15 625 44 q 415 -15 494 -15 q 262 17 328 -15 q 152 103 196 49 q 86 228 108 157 q 64 379 64 300 q 65 402 64 390 q 67 426 65 414 l 606 426 q 534 565 592 517 q 394 613 476 613 q 286 590 332 613 q 196 525 240 568 l 97 613 q 223 713 150 675 q 397 750 296 750 m 231 315 q 249 240 235 275 q 286 178 263 204 q 342 137 310 151 q 417 122 375 122 q 545 176 494 122 q 607 315 596 229 l 231 315 z "},"ß":{"ha":861,"x_min":106,"x_max":793,"o":"m 411 126 q 569 167 513 129 q 625 276 625 206 l 625 279 q 566 387 625 347 q 411 438 507 426 l 411 551 q 523 630 478 583 q 568 744 568 676 l 568 747 q 530 844 568 808 q 428 881 492 881 q 315 833 358 881 q 272 703 272 785 l 272 0 l 106 0 l 106 697 q 128 833 106 772 q 194 935 151 893 q 299 1001 238 978 q 436 1024 360 1024 q 563 1003 507 1024 q 657 948 618 983 q 716 865 696 913 q 736 763 736 817 l 736 760 q 724 676 736 713 q 690 610 711 639 q 640 560 668 582 q 582 522 613 539 q 660 488 622 508 q 728 437 699 467 q 775 367 757 407 q 793 275 793 326 l 793 272 q 766 153 793 206 q 690 65 739 100 q 569 12 640 29 q 411 -3 499 -6 l 411 126 z "},"ﬀ":{"ha":1044,"x_min":50,"x_max":1026,"o":"m 665 589 l 572 589 l 572 729 l 665 729 l 665 783 q 725 964 665 904 q 890 1022 783 1022 q 967 1017 935 1022 q 1026 1003 999 1011 l 1026 861 q 978 874 1001 869 q 928 879 956 879 q 831 768 831 879 l 831 728 l 1025 728 l 1025 589 l 833 589 l 833 0 l 665 0 l 665 589 m 143 589 l 50 589 l 50 729 l 143 729 l 143 783 q 203 964 143 904 q 368 1022 261 1022 q 444 1017 413 1022 q 504 1003 476 1011 l 504 861 q 456 874 479 869 q 406 879 433 879 q 308 768 308 879 l 308 728 l 503 728 l 503 589 l 311 589 l 311 0 l 143 0 l 143 589 z "},"ﬁ":{"ha":919,"x_min":50,"x_max":811,"o":"m 143 589 l 50 589 l 50 729 l 143 729 l 143 783 q 203 964 143 904 q 368 1022 261 1022 q 444 1017 413 1022 q 504 1003 476 1011 l 504 861 q 456 874 479 869 q 406 879 433 879 q 308 768 308 879 l 308 728 l 503 728 l 503 589 l 311 589 l 311 0 l 143 0 l 143 589 m 638 733 l 806 733 l 806 0 l 638 0 l 638 733 m 631 1006 l 811 1006 l 811 846 l 631 846 l 631 1006 z "},"ﬂ":{"ha":919,"x_min":50,"x_max":806,"o":"m 143 589 l 50 589 l 50 729 l 143 729 l 143 783 q 203 964 143 904 q 368 1022 261 1022 q 444 1017 413 1022 q 504 1003 476 1011 l 504 861 q 456 874 479 869 q 406 879 433 879 q 308 768 308 879 l 308 728 l 503 728 l 503 589 l 311 589 l 311 0 l 143 0 l 143 589 m 638 1014 l 806 1014 l 806 0 l 638 0 l 638 1014 z "},"ﬃ":{"ha":1442,"x_min":50,"x_max":1333,"o":"m 665 589 l 572 589 l 572 729 l 665 729 l 665 783 q 725 964 665 904 q 890 1022 783 1022 q 967 1017 935 1022 q 1026 1003 999 1011 l 1026 861 q 978 874 1001 869 q 928 879 956 879 q 831 768 831 879 l 831 728 l 1025 728 l 1025 589 l 833 589 l 833 0 l 665 0 l 665 589 m 143 589 l 50 589 l 50 729 l 143 729 l 143 783 q 203 964 143 904 q 368 1022 261 1022 q 444 1017 413 1022 q 504 1003 476 1011 l 504 861 q 456 874 479 869 q 406 879 433 879 q 308 768 308 879 l 308 728 l 503 728 l 503 589 l 311 589 l 311 0 l 143 0 l 143 589 m 1160 733 l 1328 733 l 1328 0 l 1160 0 l 1160 733 m 1153 1006 l 1333 1006 l 1333 846 l 1153 846 l 1153 1006 z "},"ﬄ":{"ha":1442,"x_min":50,"x_max":1328,"o":"m 665 589 l 572 589 l 572 729 l 665 729 l 665 783 q 725 964 665 904 q 890 1022 783 1022 q 967 1017 935 1022 q 1026 1003 999 1011 l 1026 861 q 978 874 1001 869 q 928 879 956 879 q 831 768 831 879 l 831 728 l 1025 728 l 1025 589 l 833 589 l 833 0 l 665 0 l 665 589 m 143 589 l 50 589 l 50 729 l 143 729 l 143 783 q 203 964 143 904 q 368 1022 261 1022 q 444 1017 413 1022 q 504 1003 476 1011 l 504 861 q 456 874 479 869 q 406 879 433 879 q 308 768 308 879 l 308 728 l 503 728 l 503 589 l 311 589 l 311 0 l 143 0 l 143 589 m 1160 1014 l 1328 1014 l 1328 0 l 1160 0 l 1160 1014 z "},".":{"ha":374,"x_min":94,"x_max":279,"o":"m 94 192 l 279 192 l 279 0 l 94 0 l 94 192 z "},",":{"ha":374,"x_min":47,"x_max":279,"o":"m 47 -131 q 167 0 175 -106 l 94 0 l 94 192 l 279 192 l 279 29 q 225 -140 279 -87 q 65 -203 171 -193 l 47 -131 z "},":":{"ha":388,"x_min":101,"x_max":286,"o":"m 101 733 l 286 733 l 286 543 l 101 543 l 101 733 m 101 192 l 286 192 l 286 0 l 101 0 l 101 192 z "},";":{"ha":388,"x_min":54,"x_max":286,"o":"m 101 733 l 286 733 l 286 543 l 101 543 l 101 733 m 54 -131 q 174 0 182 -106 l 101 0 l 101 192 l 286 192 l 286 29 q 232 -140 286 -87 q 72 -203 178 -193 l 54 -131 z "},"…":{"ha":1100,"x_min":94,"x_max":1006,"o":"m 825 186 l 1006 186 l 1006 0 l 825 0 l 825 186 m 460 186 l 640 186 l 640 0 l 460 0 l 460 186 m 94 186 l 275 186 l 275 0 l 94 0 l 94 186 z "},"·":{"ha":374,"x_min":94,"x_max":279,"o":"m 94 521 l 279 521 l 279 331 l 94 331 l 94 521 z "},"•":{"ha":682,"x_min":144,"x_max":538,"o":"m 342 293 q 265 308 301 293 q 202 350 229 324 q 160 412 175 376 q 144 488 144 447 l 144 490 q 160 567 144 531 q 203 629 176 603 q 266 671 231 656 q 342 686 301 686 q 417 671 381 686 q 479 629 453 656 q 522 567 506 603 q 538 490 538 531 l 538 488 q 522 412 538 447 q 480 350 507 376 q 417 308 453 324 q 342 293 382 293 z "},"&":{"ha":967,"x_min":54,"x_max":926,"o":"m 669 113 q 533 20 607 54 q 372 -14 460 -14 q 246 6 304 -14 q 145 62 188 25 q 78 150 103 99 q 54 264 54 201 l 54 267 q 108 428 54 361 q 261 539 161 496 q 200 640 219 592 q 181 742 181 689 l 181 744 q 200 838 181 793 q 256 915 219 882 q 343 969 292 949 q 460 989 394 989 q 565 971 518 989 q 647 921 613 953 q 699 846 681 889 q 718 754 718 803 l 718 751 q 660 595 718 656 q 504 499 601 535 l 671 329 q 725 418 699 371 q 775 517 751 465 l 904 449 q 842 334 875 390 q 772 228 810 278 l 926 72 l 799 -19 l 669 113 m 414 590 q 528 653 489 618 q 567 742 567 689 l 567 744 q 536 824 567 793 q 457 854 506 854 q 372 822 404 854 q 340 738 340 789 l 340 735 q 357 667 340 699 q 414 590 374 635 m 389 128 q 485 150 439 128 q 572 213 531 172 l 356 433 q 257 362 288 404 q 226 272 226 319 l 226 269 q 272 167 226 207 q 389 128 318 128 z "},"!":{"ha":419,"x_min":111,"x_max":308,"o":"m 111 924 l 111 972 l 308 972 l 308 924 l 257 308 l 164 308 l 111 924 m 118 192 l 303 192 l 303 0 l 118 0 l 118 192 z "},"¡":{"ha":419,"x_min":111,"x_max":308,"o":"m 118 972 l 303 972 l 303 782 l 118 782 l 118 972 m 111 49 l 164 665 l 257 665 l 308 49 l 308 0 l 111 0 l 111 49 z "},"?":{"ha":751,"x_min":33,"x_max":694,"o":"m 260 533 l 267 540 q 462 585 400 544 q 524 694 524 625 l 524 697 q 481 792 524 756 q 364 829 439 829 q 242 801 297 829 q 138 719 188 772 l 33 831 q 175 942 94 900 q 368 985 256 985 q 501 965 440 985 q 604 909 561 946 q 671 820 647 872 q 694 703 694 768 l 694 700 q 672 586 694 635 q 612 504 650 538 q 523 450 574 471 q 414 419 472 429 l 400 308 l 288 308 l 260 533 m 247 192 l 433 192 l 433 0 l 247 0 l 247 192 z "},"¿":{"ha":751,"x_min":58,"x_max":718,"o":"m 318 972 l 504 972 l 504 782 l 318 782 l 318 972 m 383 -12 q 250 7 310 -12 q 148 63 190 26 q 82 152 106 100 q 58 269 58 204 l 58 272 q 81 387 58 339 q 140 469 103 435 q 228 523 178 503 q 338 553 279 543 l 351 665 l 464 665 l 492 440 l 485 433 q 290 388 351 428 q 229 278 229 347 l 229 275 q 271 180 229 217 q 388 143 313 143 q 509 172 454 143 q 614 253 564 200 l 718 142 q 576 30 657 72 q 383 -12 496 -12 z "},"“":{"ha":696,"x_min":88,"x_max":642,"o":"m 410 749 q 464 918 410 865 q 624 979 518 971 l 642 907 q 524 778 514 883 l 594 778 l 594 586 l 410 586 l 410 749 m 88 749 q 142 918 88 865 q 301 979 196 971 l 319 907 q 201 778 192 883 l 272 778 l 272 586 l 88 586 l 88 749 z "},"”":{"ha":696,"x_min":54,"x_max":608,"o":"m 376 651 q 494 782 504 675 l 424 782 l 424 972 l 608 972 l 608 810 q 554 640 608 693 q 394 579 500 588 l 376 651 m 54 651 q 174 782 182 675 l 101 782 l 101 972 l 286 972 l 286 810 q 232 640 286 693 q 72 579 178 588 l 54 651 z "},"‘":{"ha":374,"x_min":88,"x_max":319,"o":"m 88 749 q 142 918 88 865 q 301 979 196 971 l 319 907 q 201 778 192 883 l 272 778 l 272 586 l 88 586 l 88 749 z "},"’":{"ha":374,"x_min":54,"x_max":286,"o":"m 54 651 q 174 782 182 675 l 101 782 l 101 972 l 286 972 l 286 810 q 232 640 286 693 q 72 579 178 588 l 54 651 z "},"„":{"ha":696,"x_min":47,"x_max":601,"o":"m 369 -131 q 488 0 497 -106 l 417 0 l 417 192 l 601 192 l 601 29 q 547 -140 601 -87 q 388 -203 493 -193 l 369 -131 m 47 -131 q 167 0 175 -106 l 94 0 l 94 192 l 279 192 l 279 29 q 225 -140 279 -87 q 65 -203 171 -193 l 47 -131 z "},"‚":{"ha":374,"x_min":47,"x_max":279,"o":"m 47 -131 q 167 0 175 -106 l 94 0 l 94 192 l 279 192 l 279 29 q 225 -140 279 -87 q 65 -203 171 -193 l 47 -131 z "},"«":{"ha":842,"x_min":61,"x_max":769,"o":"m 411 361 l 411 372 l 650 675 l 769 615 l 594 368 l 769 121 l 650 58 l 411 361 m 61 361 l 61 372 l 301 675 l 419 615 l 246 368 l 419 121 l 301 58 l 61 361 z "},"»":{"ha":842,"x_min":74,"x_max":781,"o":"m 422 119 l 596 365 l 422 613 l 540 675 l 781 372 l 781 361 l 540 58 l 422 119 m 74 119 l 247 365 l 74 613 l 192 675 l 431 372 l 431 361 l 192 58 l 74 119 z "},"‹":{"ha":492,"x_min":61,"x_max":419,"o":"m 61 361 l 61 372 l 301 675 l 419 615 l 246 368 l 419 121 l 301 58 l 61 361 z "},"›":{"ha":492,"x_min":74,"x_max":431,"o":"m 74 119 l 247 365 l 74 613 l 192 675 l 431 372 l 431 361 l 192 58 l 74 119 z "},"-":{"ha":567,"x_min":78,"x_max":489,"o":"m 78 508 l 489 508 l 489 343 l 78 343 l 78 508 z "},"–":{"ha":733,"x_min":78,"x_max":656,"o":"m 78 506 l 656 506 l 656 346 l 78 346 l 78 506 z "},"—":{"ha":1247,"x_min":78,"x_max":1169,"o":"m 78 506 l 1169 506 l 1169 346 l 78 346 l 78 506 z "},"_":{"ha":833,"x_min":-3,"x_max":836,"o":"m -3 -92 l 836 -92 l 836 -222 l -3 -222 l -3 -92 z "},"/":{"ha":724,"x_min":-35,"x_max":739,"o":"m 593 1108 l 739 1108 l 111 -178 l -35 -178 l 593 1108 z "},"\\":{"ha":724,"x_min":-15,"x_max":758,"o":"m -15 1108 l 131 1108 l 758 -178 l 613 -178 l -15 1108 z "},"|":{"ha":460,"x_min":163,"x_max":297,"o":"m 163 1108 l 297 1108 l 297 -178 l 163 -178 l 163 1108 z "},"(":{"ha":613,"x_min":88,"x_max":546,"o":"m 472 -196 q 185 54 282 -92 q 88 399 88 200 q 185 743 88 597 q 472 993 282 889 l 546 881 q 417 779 472 832 q 326 668 363 726 q 273 543 290 610 q 256 399 256 476 q 273 254 256 321 q 326 129 290 188 q 417 19 363 71 q 546 -83 472 -33 l 472 -196 l 472 -196 z "},")":{"ha":613,"x_min":67,"x_max":525,"o":"m 67 -83 q 195 19 140 -33 q 286 129 250 71 q 340 254 322 188 q 357 399 357 321 q 285 668 357 554 q 67 881 214 782 l 140 993 q 428 743 331 889 q 525 399 525 597 q 428 54 525 200 q 140 -196 331 -92 l 67 -83 z "},"[":{"ha":632,"x_min":122,"x_max":550,"o":"m 122 972 l 550 972 l 550 840 l 283 840 l 283 -49 l 550 -49 l 550 -181 l 122 -181 l 122 972 z "},"]":{"ha":632,"x_min":82,"x_max":510,"o":"m 82 -49 l 349 -49 l 349 840 l 82 840 l 82 972 l 510 972 l 510 -181 l 82 -181 l 82 -49 z "},"{":{"ha":676,"x_min":72,"x_max":607,"o":"m 578 -196 q 422 -153 483 -179 q 326 -94 361 -128 q 276 -16 290 -60 q 263 82 263 28 q 263 103 263 90 q 264 131 264 117 q 265 160 264 146 q 265 182 265 174 q 231 299 265 264 q 108 335 196 335 l 72 335 l 72 463 l 108 463 q 231 499 196 463 q 265 617 265 535 q 265 639 265 625 q 264 667 264 653 q 263 695 264 682 q 263 717 263 708 q 276 813 263 769 q 326 891 290 857 q 422 951 361 925 q 578 993 483 976 l 607 882 q 507 847 544 865 q 450 808 469 829 q 424 758 431 786 q 418 692 418 729 q 419 641 418 671 q 421 589 421 611 q 383 464 421 507 q 276 399 346 421 q 384 333 347 375 q 421 208 421 290 q 419 156 421 186 q 418 106 418 126 q 424 40 418 68 q 450 -10 431 11 q 507 -50 469 -32 q 607 -85 544 -68 l 578 -196 l 578 -196 z "},"}":{"ha":676,"x_min":69,"x_max":604,"o":"m 69 -85 q 169 -50 132 -68 q 226 -10 207 -32 q 252 40 246 11 q 258 106 258 68 q 257 156 258 126 q 256 208 256 186 q 293 333 256 290 q 400 399 331 376 q 292 465 329 422 q 256 589 256 507 q 257 641 256 611 q 258 692 258 671 q 252 758 258 729 q 226 808 246 786 q 169 847 207 829 q 69 882 132 865 l 99 993 q 254 951 193 976 q 351 891 315 925 q 400 813 386 857 q 414 717 414 769 q 413 695 414 708 q 413 667 413 682 q 412 639 413 653 q 411 617 411 625 q 446 499 411 535 q 568 463 481 463 l 604 463 l 604 335 l 568 335 q 446 299 481 335 q 411 182 411 264 q 412 160 411 174 q 413 131 413 146 q 413 103 413 117 q 414 82 414 90 q 400 -16 414 28 q 351 -94 386 -60 q 254 -153 315 -128 q 99 -196 193 -179 l 69 -85 z "},"@":{"ha":1361,"x_min":74,"x_max":1288,"o":"m 693 -225 q 447 -177 560 -225 q 250 -47 333 -129 q 120 146 167 36 q 74 381 74 256 q 121 616 74 506 q 250 809 168 726 q 443 940 332 892 q 682 989 554 989 q 920 943 810 989 q 1113 822 1031 897 q 1241 647 1194 746 q 1288 439 1288 547 q 1265 286 1288 351 q 1206 178 1243 221 q 1121 115 1169 136 q 1018 93 1072 93 q 886 122 936 93 q 813 190 836 151 q 723 122 775 151 q 597 93 671 93 q 499 112 544 93 q 419 165 454 131 q 365 247 385 199 q 346 356 346 296 q 372 493 346 429 q 443 603 399 557 q 544 676 488 650 q 661 703 600 703 q 783 672 736 703 q 857 600 829 642 l 874 683 l 1008 663 l 947 313 q 942 278 944 293 q 940 253 940 263 q 969 181 940 208 q 1049 154 997 154 q 1119 172 1086 154 q 1178 226 1153 190 q 1217 315 1203 261 q 1232 439 1232 368 q 1190 624 1232 535 q 1075 783 1149 714 q 901 894 1001 853 q 682 936 800 936 q 463 892 564 936 q 288 773 361 849 q 172 596 214 697 q 129 381 129 494 q 171 165 129 265 q 288 -11 213 64 q 466 -129 363 -86 q 693 -172 569 -172 q 876 -149 796 -172 q 1036 -79 957 -125 l 1061 -121 q 891 -197 981 -169 q 693 -225 801 -225 m 635 214 q 758 268 707 214 q 808 342 789 299 q 826 433 826 385 q 785 542 826 500 q 681 583 743 583 q 613 569 644 583 q 554 528 581 554 q 506 456 524 497 q 489 364 489 414 q 529 253 489 292 q 635 214 569 214 z "},"©":{"ha":1153,"x_min":74,"x_max":1079,"o":"m 575 -17 q 378 23 469 -17 q 219 131 286 63 q 113 290 151 199 q 74 483 74 381 l 74 486 q 113 680 74 589 q 219 840 151 771 q 380 949 288 908 q 578 989 472 989 q 775 949 683 989 q 934 842 867 910 q 1040 683 1001 774 q 1079 489 1079 592 l 1079 486 q 1040 292 1079 383 q 933 133 1001 201 q 773 24 865 64 q 575 -17 681 -17 m 575 33 q 753 69 671 33 q 897 167 836 106 q 992 310 957 228 q 1026 486 1026 393 l 1026 489 q 992 664 1026 582 q 898 807 958 746 q 756 903 838 868 q 578 939 674 939 q 399 903 482 939 q 256 806 317 867 q 161 662 196 744 q 126 486 126 579 l 126 483 q 160 308 126 390 q 255 165 194 226 q 397 69 315 104 q 575 33 479 33 m 582 221 q 476 242 525 221 q 391 299 426 263 q 335 385 356 336 q 315 490 315 433 l 315 493 q 335 598 315 549 q 391 685 356 647 q 476 744 426 722 q 585 765 526 765 q 707 742 660 765 q 792 683 754 719 l 726 608 q 661 653 696 636 q 585 671 626 671 q 519 657 549 671 q 467 619 489 643 q 433 563 446 594 q 421 494 421 531 l 421 492 q 433 424 421 456 q 467 367 446 392 q 519 329 489 343 q 585 315 549 315 q 665 333 632 315 q 729 381 697 350 l 796 315 q 706 246 754 271 q 582 221 657 221 z "},"℗":{"ha":1153,"x_min":74,"x_max":1079,"o":"m 575 -17 q 378 23 469 -17 q 219 131 286 63 q 113 290 151 199 q 74 483 74 381 l 74 486 q 113 680 74 589 q 219 840 151 771 q 380 949 288 908 q 578 989 472 989 q 775 949 683 989 q 934 842 867 910 q 1040 683 1001 774 q 1079 489 1079 592 l 1079 486 q 1040 292 1079 383 q 933 133 1001 201 q 773 24 865 64 q 575 -17 681 -17 m 575 33 q 753 69 671 33 q 897 167 836 106 q 992 310 957 228 q 1026 486 1026 393 l 1026 489 q 992 664 1026 582 q 898 807 958 746 q 756 903 838 868 q 578 939 674 939 q 399 903 482 939 q 256 806 317 867 q 161 662 196 744 q 126 486 126 579 l 126 483 q 160 308 126 390 q 255 165 194 226 q 397 69 315 104 q 575 33 479 33 m 397 760 l 610 760 q 759 712 704 760 q 814 582 814 664 l 814 579 q 797 501 814 535 q 750 444 779 467 q 681 410 721 421 q 599 399 642 399 l 500 399 l 500 232 l 397 232 l 397 760 m 601 489 q 681 513 651 489 q 710 578 710 538 l 710 581 q 681 646 710 624 q 601 668 651 668 l 500 668 l 500 489 l 601 489 z "},"®":{"ha":531,"x_min":24,"x_max":507,"o":"m 265 500 q 170 519 214 500 q 94 572 126 539 q 42 648 61 604 q 24 742 24 692 l 24 743 q 42 837 24 793 q 94 914 61 881 q 171 967 126 947 q 265 986 215 986 q 360 967 317 986 q 437 915 404 947 q 488 838 469 882 q 507 744 507 794 l 507 743 q 488 649 507 693 q 437 572 469 606 q 360 519 404 539 q 265 500 315 500 m 265 526 q 350 544 311 526 q 417 590 389 561 q 463 659 446 619 q 479 743 479 699 l 479 744 q 463 828 479 789 q 418 896 447 867 q 350 942 389 925 q 265 960 311 960 q 181 942 219 960 q 113 896 142 925 q 68 827 85 867 q 51 743 51 788 l 51 742 q 67 658 51 697 q 113 590 83 619 q 181 544 142 561 q 265 526 219 526 m 165 874 l 283 874 q 356 853 328 874 q 385 790 385 833 q 369 740 385 760 q 329 713 354 721 l 393 622 l 319 622 l 265 701 l 226 701 l 226 622 l 165 622 l 165 874 m 279 751 q 322 786 322 751 q 279 821 322 821 l 226 821 l 226 751 l 279 751 z "},"℠":{"ha":979,"x_min":42,"x_max":924,"o":"m 494 972 l 582 972 l 711 769 l 839 972 l 924 972 l 924 544 l 846 544 l 846 849 l 714 644 l 706 644 l 574 849 l 574 544 l 494 544 l 494 972 m 233 536 q 131 555 182 536 q 42 607 81 574 l 86 663 q 156 619 119 636 q 238 603 193 603 q 299 618 278 603 q 321 658 321 633 q 300 696 321 682 q 219 724 279 710 q 106 766 149 740 q 63 850 63 792 q 106 944 63 908 q 221 981 149 981 q 313 966 269 981 q 388 924 356 951 l 344 867 q 285 899 315 886 q 219 911 254 911 q 162 897 182 911 q 142 860 142 882 q 164 821 142 835 q 246 793 186 807 q 358 750 317 778 q 400 667 400 722 q 353 571 400 606 q 233 536 307 536 z "},"™":{"ha":958,"x_min":36,"x_max":904,"o":"m 474 972 l 561 972 l 690 769 l 819 972 l 904 972 l 904 544 l 825 544 l 825 849 l 693 644 l 685 644 l 553 849 l 553 544 l 474 544 l 474 972 m 168 897 l 36 897 l 36 972 l 382 972 l 382 897 l 250 897 l 250 544 l 168 544 l 168 897 z "},"*":{"ha":597,"x_min":81,"x_max":517,"o":"m 269 700 l 131 599 l 81 683 l 239 753 l 81 822 l 131 907 l 269 806 l 250 975 l 347 975 l 328 806 l 467 907 l 517 822 l 358 753 l 517 683 l 467 599 l 328 700 l 347 531 l 250 531 l 269 700 z "},"†":{"ha":569,"x_min":78,"x_max":492,"o":"m 247 713 l 78 700 l 78 799 l 246 786 l 229 972 l 340 972 l 325 786 l 492 799 l 492 700 l 324 713 l 335 331 l 235 331 l 247 713 z "},"‡":{"ha":597,"x_min":92,"x_max":506,"o":"m 260 186 l 92 174 l 92 272 l 260 260 l 249 486 l 260 713 l 92 700 l 92 799 l 260 786 l 243 972 l 354 972 l 339 786 l 506 799 l 506 700 l 338 713 l 349 486 l 338 260 l 506 272 l 506 174 l 339 186 l 354 0 l 243 0 l 260 186 z "},"$":{"ha":892,"x_min":68,"x_max":813,"o":"m 700 733 q 607 790 654 767 q 511 824 560 813 l 511 557 q 741 450 669 517 q 813 272 813 383 l 813 269 q 791 166 813 213 q 731 85 769 119 q 638 28 692 50 q 517 0 583 6 l 517 -136 l 396 -136 l 396 3 q 222 49 304 14 q 68 140 139 83 l 157 268 q 275 188 217 219 q 401 146 333 157 l 401 419 q 269 464 325 439 q 177 523 214 489 q 122 601 140 557 q 104 704 104 646 l 104 707 q 125 809 104 763 q 185 890 146 856 q 277 945 224 924 q 396 972 331 967 l 396 1053 l 517 1053 l 517 969 q 656 933 592 960 q 778 864 719 907 l 700 733 m 649 263 q 620 339 649 308 q 511 393 592 369 l 511 140 q 613 178 578 147 q 649 260 649 210 l 649 263 m 268 715 q 274 675 268 693 q 294 641 279 657 q 335 612 310 625 q 401 586 361 599 l 401 832 q 301 794 335 825 q 268 717 268 763 l 268 715 z "},"£":{"ha":894,"x_min":88,"x_max":824,"o":"m 88 108 l 197 142 l 197 386 l 88 386 l 88 531 l 197 531 l 197 658 q 219 797 197 735 q 283 900 242 858 q 517 986 367 986 q 621 974 575 986 q 703 942 667 963 q 769 892 740 921 q 824 831 799 864 l 693 726 q 617 801 656 775 q 519 828 578 828 q 461 818 486 828 q 417 789 436 808 q 371 654 371 740 l 371 531 l 717 531 l 717 386 l 371 386 l 371 149 l 822 149 l 822 0 l 88 0 l 88 108 z "},"€":{"ha":1000,"x_min":72,"x_max":939,"o":"m 807 710 q 714 803 763 771 q 593 836 665 836 q 463 791 518 836 q 379 667 408 746 l 678 667 l 678 549 l 353 549 q 350 518 350 533 q 350 488 350 503 q 350 459 350 472 q 351 432 350 446 l 678 432 l 678 313 l 378 313 q 465 183 407 229 q 604 136 522 136 q 667 145 639 136 q 721 171 696 154 q 769 213 746 188 q 817 269 793 238 l 939 179 q 876 100 910 136 q 801 38 842 64 q 711 -2 760 13 q 603 -17 663 -17 q 460 7 525 -17 q 344 74 396 31 q 256 178 293 117 q 199 313 219 239 l 72 313 l 72 432 l 179 432 q 178 458 178 444 q 178 485 178 471 q 178 517 178 500 q 181 549 178 533 l 72 549 l 72 667 l 203 667 q 260 797 224 738 q 347 898 297 856 q 460 965 397 940 q 597 989 524 989 q 712 975 661 989 q 803 937 763 961 q 876 878 843 913 q 936 806 908 844 l 807 710 z "},"¥":{"ha":953,"x_min":26,"x_max":926,"o":"m 126 490 l 346 490 l 26 972 l 225 972 l 478 565 l 733 972 l 926 972 l 604 490 l 826 490 l 826 367 l 558 367 l 558 265 l 826 265 l 826 142 l 558 142 l 558 0 l 394 0 l 394 142 l 126 142 l 126 265 l 394 265 l 394 367 l 126 367 l 126 490 z "},"¢":{"ha":807,"x_min":72,"x_max":747,"o":"m 582 857 q 746 749 675 828 l 644 640 q 547 708 597 688 l 460 257 q 564 283 518 258 q 650 349 610 308 l 747 251 q 621 151 693 190 q 446 111 549 111 l 436 111 l 414 -8 l 292 -8 l 319 133 q 219 188 265 153 q 141 269 174 222 q 90 372 108 315 q 72 490 72 428 l 72 493 q 101 642 72 572 q 180 763 129 711 q 301 845 231 815 q 453 875 371 875 l 464 875 l 485 981 l 607 981 l 582 857 m 236 493 q 267 365 236 421 q 353 281 299 308 l 442 729 q 360 709 397 728 q 294 658 322 690 q 251 585 267 626 q 236 496 236 543 l 236 493 z "},"฿":{"ha":894,"x_min":104,"x_max":835,"o":"m 563 1083 l 549 969 q 736 894 665 957 q 807 724 807 831 q 794 641 807 676 q 760 579 782 606 q 711 534 739 553 q 653 503 683 515 q 726 467 693 488 q 784 419 760 447 q 822 355 808 392 q 835 269 835 318 q 810 153 835 203 q 740 69 785 103 q 631 17 694 35 q 489 0 567 0 l 435 0 l 418 -164 l 306 -164 l 322 0 l 104 0 l 104 972 l 438 972 l 450 1083 l 563 1083 m 478 428 l 446 142 l 493 142 q 630 178 581 142 q 679 286 679 215 q 631 391 679 354 q 488 428 582 428 l 478 428 m 396 553 l 428 831 l 257 831 l 257 553 l 396 553 m 651 696 q 619 785 651 751 q 524 828 586 819 l 492 553 q 609 592 567 557 q 651 696 651 628 m 349 142 l 382 428 l 257 428 l 257 142 l 349 142 z "},"₡":{"ha":853,"x_min":63,"x_max":804,"o":"m 719 1083 l 699 933 q 751 905 726 921 q 799 871 775 889 l 733 728 q 672 776 703 754 l 585 150 q 655 184 622 161 q 721 239 688 207 l 804 128 q 697 47 753 79 q 568 3 642 14 l 546 -164 l 460 -164 l 482 -1 q 374 15 425 0 l 350 -164 l 265 -164 l 294 47 q 126 213 190 101 q 63 479 63 324 l 63 492 q 90 672 63 590 q 165 815 117 753 q 279 915 213 876 q 424 967 346 954 l 439 1083 l 525 1083 l 510 974 q 565 970 539 972 q 617 961 592 968 l 633 1083 l 719 1083 m 390 158 q 504 139 439 139 l 506 139 l 600 815 q 552 828 576 824 q 501 833 528 833 l 485 833 l 390 158 m 218 476 q 245 313 218 381 q 321 203 272 244 l 406 817 q 269 702 321 786 q 218 488 218 618 l 218 476 z "},"ƒ":{"ha":732,"x_min":57,"x_max":682,"o":"m 135 -7 q 92 -6 110 -7 q 57 0 75 -4 l 57 138 q 113 133 86 133 q 181 155 157 133 q 214 226 206 176 l 263 494 l 151 494 l 151 635 l 286 635 l 311 764 q 386 924 331 869 q 554 979 442 979 q 625 975 594 979 q 682 964 656 971 l 682 822 q 633 833 657 829 q 586 836 608 836 q 511 811 538 836 q 474 729 485 786 l 457 635 l 633 635 l 633 494 l 432 494 l 379 201 q 301 41 360 89 q 135 -7 243 -7 z "},"₦":{"ha":1158,"x_min":47,"x_max":1113,"o":"m 971 292 l 971 0 l 796 0 l 615 292 l 349 292 l 349 0 l 188 0 l 188 292 l 47 292 l 47 399 l 188 399 l 188 579 l 47 579 l 47 686 l 188 686 l 188 972 l 376 972 l 551 686 l 810 686 l 810 972 l 971 972 l 971 686 l 1113 686 l 1113 579 l 971 579 l 971 399 l 1113 399 l 1113 292 l 971 292 m 346 394 l 557 394 l 350 732 l 346 732 l 346 394 m 813 260 l 813 583 l 608 583 l 808 260 l 813 260 z "},"₱":{"ha":1038,"x_min":42,"x_max":1010,"o":"m 182 583 l 42 583 l 42 686 l 182 686 l 182 972 l 508 972 q 650 951 586 972 q 761 893 714 931 q 838 803 808 856 q 875 686 867 750 l 1010 686 l 1010 583 l 875 583 q 833 458 867 513 q 747 365 799 403 q 629 308 696 328 q 489 289 563 289 l 354 289 l 354 0 l 182 0 l 182 583 m 492 435 q 638 476 582 435 q 706 589 693 518 l 349 589 l 349 435 l 492 435 m 349 681 l 703 681 q 633 788 689 751 q 490 825 578 825 l 349 825 l 349 681 z "},"₨":{"ha":1525,"x_min":108,"x_max":1464,"o":"m 108 972 l 458 972 q 601 951 538 972 q 708 891 664 931 q 777 794 753 851 q 801 665 801 738 l 801 660 q 745 477 801 547 q 601 375 689 407 l 829 0 l 643 0 l 438 342 l 269 342 l 269 0 l 108 0 l 108 972 m 1200 -14 q 1040 13 1117 -14 q 897 88 964 39 l 968 199 q 1084 137 1026 158 q 1204 115 1142 115 q 1285 138 1253 115 q 1318 196 1318 160 l 1318 199 q 1312 228 1318 215 q 1288 253 1306 240 q 1241 278 1271 265 q 1164 306 1211 290 q 1063 344 1107 324 q 990 390 1019 365 q 947 448 961 415 q 932 524 932 481 l 932 526 q 952 618 932 578 q 1006 686 972 658 q 1088 729 1040 714 q 1189 744 1135 744 q 1322 724 1256 744 q 1446 668 1388 704 l 1385 550 q 1285 599 1335 581 q 1186 617 1235 617 q 1107 595 1136 617 q 1078 542 1078 574 l 1078 539 q 1085 508 1078 522 q 1109 482 1092 494 q 1157 457 1126 469 q 1235 429 1188 444 q 1407 344 1350 392 q 1464 211 1464 297 l 1464 208 q 1443 113 1464 154 q 1386 43 1422 71 q 1302 1 1350 15 q 1200 -14 1254 -14 m 451 485 q 588 529 536 485 q 639 654 639 574 l 639 658 q 588 784 639 743 q 449 825 536 825 l 269 825 l 269 485 l 451 485 z "},"₩":{"ha":1547,"x_min":49,"x_max":1499,"o":"m 1361 676 l 1499 676 l 1499 565 l 1332 565 l 1289 408 l 1499 408 l 1499 297 l 1260 297 l 1179 -3 l 985 -3 l 901 297 l 644 297 l 563 -3 l 368 -3 l 288 297 l 49 297 l 49 408 l 257 408 l 215 565 l 49 565 l 49 676 l 185 676 l 106 972 l 289 972 l 358 676 l 599 676 l 679 975 l 874 975 l 953 676 l 1194 676 l 1264 972 l 1442 972 l 1361 676 m 669 403 l 876 403 l 778 779 l 769 779 l 669 403 m 475 185 l 575 569 l 378 569 l 467 185 l 475 185 m 1086 185 l 1174 569 l 978 569 l 1078 185 l 1086 185 z "},"₪":{"ha":871,"x_min":88,"x_max":783,"o":"m 285 458 l 376 458 l 408 254 q 450 167 418 194 q 543 139 482 139 l 654 139 l 654 733 l 783 733 l 783 0 l 542 0 q 390 47 442 0 q 324 193 339 94 l 285 458 m 476 478 q 356 596 476 596 l 217 596 l 217 0 l 88 0 l 88 733 l 381 733 q 520 687 472 733 q 568 549 568 640 l 568 279 l 476 279 l 476 478 z "},"#":{"ha":972,"x_min":54,"x_max":918,"o":"m 867 224 l 701 224 l 664 0 l 515 0 l 553 224 l 326 224 l 289 0 l 140 0 l 178 224 l 54 224 l 54 368 l 203 368 l 244 610 l 106 610 l 106 754 l 269 754 l 307 972 l 456 972 l 418 754 l 644 754 l 682 972 l 831 972 l 793 754 l 918 754 l 918 610 l 768 610 l 726 368 l 867 368 l 867 224 m 349 364 l 581 364 l 624 614 l 392 614 l 349 364 z "},"¶":{"ha":774,"x_min":56,"x_max":653,"o":"m 481 339 l 456 339 q 297 359 369 339 q 170 419 224 379 q 86 517 117 458 q 56 654 56 576 l 56 657 q 83 789 56 731 q 160 888 111 847 q 279 951 210 929 q 432 972 349 972 l 653 972 l 653 0 l 481 0 l 481 339 z "},"§":{"ha":878,"x_min":81,"x_max":797,"o":"m 649 324 q 706 267 685 301 q 726 192 726 232 l 726 189 q 654 42 726 97 q 453 -14 582 -14 q 270 21 350 -14 q 132 118 190 56 l 228 213 q 331 141 276 168 q 451 114 385 114 q 537 133 510 114 q 564 182 564 153 l 564 185 q 556 213 564 200 q 526 236 547 225 q 470 258 506 247 q 381 282 435 269 q 243 320 300 300 q 150 364 186 340 q 97 417 114 388 q 81 485 81 447 l 81 488 q 123 594 81 556 q 229 649 165 632 q 172 706 192 672 q 153 781 153 740 l 153 783 q 225 931 153 876 q 425 986 297 986 q 608 951 528 986 q 746 854 688 917 l 650 760 q 547 831 601 804 q 426 858 493 858 q 342 840 371 858 q 314 790 314 821 l 314 788 q 322 761 314 774 q 349 738 329 749 q 405 715 369 726 q 497 690 440 703 q 635 652 578 672 q 728 608 692 632 q 781 555 764 585 q 797 488 797 525 l 797 485 q 755 379 797 418 q 649 324 713 340 m 539 386 q 616 408 586 386 q 646 461 646 429 l 646 464 q 609 517 646 494 q 483 561 572 539 q 397 581 431 575 q 339 586 363 586 q 262 565 292 586 q 232 511 232 543 l 232 508 q 269 456 232 478 q 396 411 306 433 q 482 392 449 397 q 539 386 515 386 z "},"ª":{"ha":542,"x_min":74,"x_max":449,"o":"m 221 560 q 166 568 192 560 q 121 592 140 576 q 90 631 101 607 q 78 685 78 654 l 78 688 q 124 785 78 753 q 244 817 171 817 q 302 813 278 817 q 350 801 326 808 l 350 808 q 253 893 350 893 q 194 885 221 893 q 138 867 167 878 l 111 942 q 182 967 147 958 q 265 976 217 976 q 400 931 356 976 q 433 878 422 910 q 443 807 443 846 l 443 568 l 349 568 l 349 615 q 296 575 326 590 q 221 560 265 560 m 74 472 l 449 472 l 449 392 l 74 392 l 74 472 m 246 631 q 320 654 290 631 q 350 714 350 678 l 350 739 q 311 750 332 746 q 263 754 290 754 q 197 738 221 754 q 174 692 174 721 l 174 689 q 194 646 174 661 q 246 631 214 631 z "},"º":{"ha":542,"x_min":61,"x_max":481,"o":"m 269 558 q 187 575 225 558 q 121 619 149 592 q 77 685 93 647 q 61 767 61 724 l 61 769 q 77 851 61 813 q 122 917 93 889 q 188 963 150 946 q 272 979 226 979 q 356 963 318 979 q 422 918 394 946 q 465 852 450 890 q 481 771 481 814 l 481 768 q 465 687 481 725 q 420 620 449 649 q 353 575 392 592 q 269 558 315 558 m 71 472 l 471 472 l 471 392 l 71 392 l 71 472 m 272 644 q 353 681 324 644 q 383 767 383 717 l 383 769 q 351 856 383 819 q 269 893 319 893 q 189 857 219 893 q 158 771 158 821 l 158 768 q 190 681 158 718 q 272 644 222 644 z "},"°":{"ha":654,"x_min":96,"x_max":558,"o":"m 328 529 q 240 547 282 529 q 166 597 199 565 q 115 668 133 628 q 96 754 96 708 l 96 757 q 115 843 96 803 q 166 914 133 883 q 240 963 199 944 q 328 981 282 981 q 415 963 374 981 q 489 914 457 944 q 540 843 521 883 q 558 757 558 803 l 558 754 q 540 668 558 708 q 489 597 521 628 q 415 547 457 565 q 328 529 374 529 m 328 621 q 380 632 356 621 q 422 661 404 643 q 449 703 439 679 q 458 754 458 728 l 458 757 q 449 808 458 783 q 422 850 439 832 q 380 878 404 868 q 328 889 356 889 q 275 878 299 889 q 233 850 251 868 q 206 808 215 832 q 196 757 196 783 l 196 754 q 206 703 196 728 q 233 661 215 679 q 275 632 251 643 q 328 621 299 621 z "},"%":{"ha":1179,"x_min":67,"x_max":1113,"o":"m 294 486 q 201 506 243 486 q 130 559 160 525 q 83 638 100 593 q 67 732 67 682 l 67 735 q 83 831 67 786 q 131 910 100 876 q 203 964 161 944 q 297 983 246 983 q 391 964 349 983 q 463 910 433 944 q 509 832 493 876 q 525 738 525 788 l 525 735 q 508 640 525 685 q 462 560 492 594 q 389 506 432 526 q 294 486 346 486 m 294 876 q 218 835 246 876 q 190 738 190 794 l 190 735 q 220 634 190 675 q 297 593 250 593 q 374 634 346 593 q 401 732 401 675 l 401 735 q 372 835 401 793 q 294 876 342 876 m 876 972 l 1014 972 l 631 454 l 303 0 l 165 0 l 547 517 l 876 972 m 882 -11 q 789 8 831 -11 q 717 62 747 28 q 671 140 688 96 q 654 235 654 185 l 654 238 q 671 334 654 289 q 718 413 688 379 q 791 467 749 447 q 885 486 833 486 q 978 467 936 486 q 1049 413 1019 447 q 1096 335 1079 379 q 1113 240 1113 290 l 1113 238 q 1096 142 1113 188 q 1049 63 1079 97 q 976 9 1018 29 q 882 -11 933 -11 m 885 96 q 961 137 933 96 q 989 235 989 178 l 989 238 q 959 338 989 296 q 882 379 929 379 q 806 338 833 379 q 778 240 778 297 l 778 238 q 808 137 778 178 q 885 96 838 96 z "},"‰":{"ha":1706,"x_min":67,"x_max":1639,"o":"m 297 593 q 374 634 346 593 q 401 732 401 675 l 401 735 q 372 835 401 793 q 294 876 342 876 q 218 835 246 876 q 190 738 190 794 l 190 735 q 220 634 190 675 q 297 593 250 593 m 294 486 q 201 506 243 486 q 130 559 160 525 q 83 638 100 593 q 67 732 67 682 l 67 735 q 83 831 67 786 q 131 910 100 876 q 203 964 161 944 q 297 983 246 983 q 391 964 349 983 q 463 910 433 944 q 509 832 493 876 q 525 738 525 788 l 525 735 q 508 640 525 685 q 462 560 492 594 q 389 506 432 526 q 294 486 346 486 m 631 454 l 303 0 l 165 0 l 547 517 l 876 972 l 1014 972 l 631 454 m 885 96 q 961 137 933 96 q 989 235 989 178 l 989 238 q 959 338 989 296 q 882 379 929 379 q 806 338 833 379 q 778 240 778 297 l 778 238 q 808 137 778 178 q 885 96 838 96 m 882 -11 q 789 8 831 -11 q 717 62 747 28 q 671 140 688 96 q 654 235 654 185 l 654 238 q 671 334 654 289 q 718 413 688 379 q 791 467 749 447 q 885 486 833 486 q 978 467 936 486 q 1049 413 1019 447 q 1096 335 1079 379 q 1113 240 1113 290 l 1113 238 q 1096 142 1113 188 q 1049 63 1079 97 q 976 9 1018 29 q 882 -11 933 -11 m 1411 96 q 1488 137 1460 96 q 1515 235 1515 178 l 1515 238 q 1485 338 1515 296 q 1408 379 1456 379 q 1332 338 1360 379 q 1304 240 1304 297 l 1304 238 q 1334 137 1304 178 q 1411 96 1364 96 m 1408 -11 q 1315 8 1357 -11 q 1244 62 1274 28 q 1197 140 1214 96 q 1181 235 1181 185 l 1181 238 q 1197 334 1181 289 q 1244 413 1214 379 q 1317 467 1275 447 q 1411 486 1360 486 q 1504 467 1463 486 q 1576 413 1546 447 q 1622 335 1606 379 q 1639 240 1639 290 l 1639 238 q 1622 142 1639 188 q 1575 63 1606 97 q 1502 9 1544 29 q 1408 -11 1460 -11 z "},"\"":{"ha":676,"x_min":83,"x_max":611,"o":"m 421 972 l 611 972 l 611 965 l 475 557 l 389 557 l 421 972 m 115 972 l 307 972 l 307 965 l 171 557 l 83 557 l 115 972 z "},"'":{"ha":374,"x_min":83,"x_max":308,"o":"m 115 972 l 308 972 l 308 965 l 172 557 l 83 557 l 115 972 z "},"+":{"ha":881,"x_min":94,"x_max":786,"o":"m 361 413 l 94 413 l 94 567 l 361 567 l 361 831 l 519 831 l 519 567 l 786 567 l 786 413 l 519 413 l 519 147 l 361 147 l 361 413 z "},"−":{"ha":881,"x_min":94,"x_max":786,"o":"m 94 411 l 94 568 l 786 568 l 786 411 l 94 411 z "},"÷":{"ha":881,"x_min":94,"x_max":786,"o":"m 347 867 l 533 867 l 533 690 l 347 690 l 347 867 m 94 417 l 94 561 l 786 561 l 786 417 l 94 417 m 347 289 l 533 289 l 533 111 l 347 111 l 347 289 z "},"=":{"ha":881,"x_min":106,"x_max":775,"o":"m 106 740 l 775 740 l 775 585 l 106 585 l 106 740 m 106 393 l 775 393 l 775 238 l 106 238 l 106 393 z "},"×":{"ha":881,"x_min":108,"x_max":772,"o":"m 439 388 l 213 157 l 108 261 l 339 488 l 108 714 l 215 821 l 442 590 l 668 821 l 772 717 l 542 490 l 772 264 l 665 157 l 439 388 z "},"<":{"ha":881,"x_min":93,"x_max":757,"o":"m 93 414 l 93 564 l 757 871 l 757 711 l 260 490 l 757 268 l 757 107 l 93 414 z "},">":{"ha":881,"x_min":125,"x_max":789,"o":"m 125 267 l 621 488 l 125 710 l 125 871 l 789 564 l 789 414 l 125 107 l 125 267 z "},"±":{"ha":881,"x_min":104,"x_max":778,"o":"m 515 518 l 517 263 l 364 263 l 365 518 l 104 518 l 104 667 l 365 665 l 364 922 l 517 922 l 515 665 l 778 667 l 778 518 l 515 518 m 104 0 l 104 143 l 778 143 l 778 0 l 104 0 z "},"½":{"ha":1146,"x_min":69,"x_max":1079,"o":"m 681 86 l 872 247 q 947 319 924 290 q 969 385 969 349 q 945 440 969 419 q 885 461 921 461 q 756 379 815 461 l 683 436 q 769 522 722 490 q 890 554 815 554 q 1024 509 974 554 q 1075 393 1075 464 q 1068 342 1075 365 q 1047 296 1061 318 q 1010 251 1033 274 q 957 203 988 228 l 818 89 l 1079 89 l 1079 0 l 681 0 l 681 86 m 511 506 l 822 972 l 921 972 l 572 467 l 261 0 l 163 0 l 511 506 m 207 432 l 207 874 l 97 832 l 69 917 l 232 981 l 307 981 l 307 432 l 207 432 z "},"⅓":{"ha":1146,"x_min":69,"x_max":1075,"o":"m 878 -14 q 756 11 807 -14 q 667 75 706 36 l 728 149 q 798 97 760 117 q 879 78 836 78 q 945 100 917 78 q 974 158 974 122 q 941 217 974 197 q 857 238 908 238 l 799 238 l 782 301 l 939 449 l 700 449 l 700 540 l 1067 540 l 1067 461 l 906 314 q 1026 271 976 307 q 1075 161 1075 235 q 1021 34 1075 82 q 878 -14 967 -14 m 207 432 l 207 874 l 97 832 l 69 917 l 232 981 l 307 981 l 307 432 l 207 432 m 496 506 l 807 972 l 906 972 l 557 467 l 246 0 l 147 0 l 496 506 z "},"⅔":{"ha":1250,"x_min":63,"x_max":1179,"o":"m 982 -14 q 860 11 911 -14 q 771 75 810 36 l 832 149 q 902 97 864 117 q 983 78 940 78 q 1049 100 1021 78 q 1078 158 1078 122 q 1045 217 1078 197 q 961 238 1013 238 l 903 238 l 886 301 l 1043 449 l 804 449 l 804 540 l 1171 540 l 1171 461 l 1010 314 q 1130 271 1081 307 q 1179 161 1179 235 q 1125 34 1179 82 q 982 -14 1071 -14 m 63 519 l 254 679 q 328 751 306 722 q 351 817 351 781 q 327 872 351 851 q 267 893 303 893 q 138 811 197 893 l 65 868 q 151 955 104 924 q 272 986 197 986 q 406 941 356 986 q 457 825 457 896 q 450 774 457 797 q 429 728 443 750 q 392 683 415 706 q 339 635 369 660 l 200 522 l 461 522 l 461 432 l 63 432 l 63 519 m 594 506 l 906 972 l 1004 972 l 656 467 l 344 0 l 246 0 l 594 506 z "},"¼":{"ha":1146,"x_min":69,"x_max":1092,"o":"m 1018 -3 l 925 -3 l 925 115 l 664 115 l 650 208 l 914 546 l 1018 546 l 1018 196 l 1092 196 l 1092 115 l 1018 115 l 1018 -3 m 525 506 l 836 972 l 935 972 l 586 467 l 275 0 l 176 0 l 525 506 m 207 432 l 207 874 l 97 832 l 69 917 l 232 981 l 307 981 l 307 432 l 207 432 m 926 435 l 742 196 l 926 196 l 926 435 z "},"¾":{"ha":1250,"x_min":63,"x_max":1196,"o":"m 1122 -3 l 1029 -3 l 1029 115 l 768 115 l 754 208 l 1018 546 l 1122 546 l 1122 196 l 1196 196 l 1196 115 l 1122 115 l 1122 -3 m 274 418 q 152 443 203 418 q 63 507 101 468 l 124 581 q 194 529 156 549 q 275 510 232 510 q 341 532 313 510 q 369 590 369 554 q 337 651 369 631 q 253 671 304 671 l 194 671 l 178 733 l 335 881 l 96 881 l 96 972 l 463 972 l 463 893 l 301 746 q 422 703 372 740 q 471 593 471 667 q 417 466 471 514 q 274 418 363 418 m 622 506 l 933 972 l 1032 972 l 683 467 l 372 0 l 274 0 l 622 506 m 1031 435 l 846 196 l 1031 196 l 1031 435 z "},"⅕":{"ha":1146,"x_min":69,"x_max":1086,"o":"m 876 -14 q 761 10 811 -14 q 668 69 711 33 l 729 144 q 801 96 765 113 q 878 79 838 79 q 955 103 925 79 q 985 168 985 128 q 955 231 985 208 q 876 253 925 253 q 817 247 846 253 q 768 231 789 240 l 704 269 l 725 540 l 1060 540 l 1060 447 l 808 447 l 799 325 q 844 336 818 332 q 896 340 869 340 q 969 329 935 340 q 1031 297 1004 318 q 1072 245 1057 276 q 1086 174 1086 214 q 1028 37 1086 88 q 876 -14 971 -14 m 207 432 l 207 874 l 97 832 l 69 917 l 232 981 l 307 981 l 307 432 l 207 432 m 503 506 l 814 972 l 913 972 l 564 467 l 253 0 l 154 0 l 503 506 z "},"⅖":{"ha":1250,"x_min":63,"x_max":1190,"o":"m 981 -14 q 865 10 915 -14 q 772 69 815 33 l 833 144 q 906 96 869 113 q 982 79 942 79 q 1059 103 1029 79 q 1089 168 1089 128 q 1059 231 1089 208 q 981 253 1029 253 q 922 247 950 253 q 872 231 893 240 l 808 269 l 829 540 l 1164 540 l 1164 447 l 913 447 l 903 325 q 948 336 922 332 q 1000 340 974 340 q 1074 329 1039 340 q 1135 297 1108 318 q 1176 245 1161 276 q 1190 174 1190 214 q 1133 37 1190 88 q 981 -14 1075 -14 m 608 506 l 919 972 l 1018 972 l 669 467 l 358 0 l 260 0 l 608 506 m 63 519 l 254 679 q 328 751 306 722 q 351 817 351 781 q 327 872 351 851 q 267 893 303 893 q 138 811 197 893 l 65 868 q 151 955 104 924 q 272 986 197 986 q 406 941 356 986 q 457 825 457 896 q 450 774 457 797 q 429 728 443 750 q 392 683 415 706 q 339 635 369 660 l 200 522 l 461 522 l 461 432 l 63 432 l 63 519 z "},"⅗":{"ha":1250,"x_min":49,"x_max":1190,"o":"m 981 -14 q 865 10 915 -14 q 772 69 815 33 l 833 144 q 906 96 869 113 q 982 79 942 79 q 1059 103 1029 79 q 1089 168 1089 128 q 1059 231 1089 208 q 981 253 1029 253 q 922 247 950 253 q 872 231 893 240 l 808 269 l 829 540 l 1164 540 l 1164 447 l 913 447 l 903 325 q 948 336 922 332 q 1000 340 974 340 q 1074 329 1039 340 q 1135 297 1108 318 q 1176 245 1161 276 q 1190 174 1190 214 q 1133 37 1190 88 q 981 -14 1075 -14 m 588 506 l 899 972 l 997 972 l 649 467 l 338 0 l 239 0 l 588 506 m 260 418 q 138 443 189 418 q 49 507 88 468 l 110 581 q 180 529 142 549 q 261 510 218 510 q 327 532 299 510 q 356 590 356 554 q 323 651 356 631 q 239 671 290 671 l 181 671 l 164 733 l 321 881 l 82 881 l 82 972 l 449 972 l 449 893 l 288 746 q 408 703 358 740 q 457 593 457 667 q 403 466 457 514 q 260 418 349 418 z "},"⅘":{"ha":1250,"x_min":46,"x_max":1190,"o":"m 414 429 l 321 429 l 321 547 l 60 547 l 46 642 l 310 979 l 414 979 l 414 628 l 488 628 l 488 547 l 414 547 l 414 429 m 981 -14 q 865 10 915 -14 q 772 69 815 33 l 833 144 q 906 96 869 113 q 982 79 942 79 q 1059 103 1029 79 q 1089 168 1089 128 q 1059 231 1089 208 q 981 253 1029 253 q 922 247 950 253 q 872 231 893 240 l 808 269 l 829 540 l 1164 540 l 1164 447 l 913 447 l 903 325 q 948 336 922 332 q 1000 340 974 340 q 1074 329 1039 340 q 1135 297 1108 318 q 1176 245 1161 276 q 1190 174 1190 214 q 1133 37 1190 88 q 981 -14 1075 -14 m 608 506 l 919 972 l 1018 972 l 669 467 l 358 0 l 260 0 l 608 506 m 322 867 l 138 628 l 322 628 l 322 867 z "},"⅙":{"ha":1146,"x_min":69,"x_max":1081,"o":"m 883 -14 q 802 1 839 -14 q 740 40 765 17 q 691 119 711 71 q 671 253 671 167 l 671 256 q 686 378 671 322 q 731 472 701 433 q 804 533 761 511 q 904 554 847 554 q 994 540 958 554 q 1064 497 1031 525 l 1014 418 q 963 451 989 439 q 901 463 936 463 q 815 419 850 463 q 776 306 781 376 q 828 337 800 325 q 901 349 857 349 q 970 338 938 349 q 1027 305 1003 326 q 1066 251 1051 283 q 1081 176 1081 218 q 1066 99 1081 135 q 1025 39 1051 64 q 963 0 999 14 q 883 -14 926 -14 m 511 506 l 822 972 l 921 972 l 572 467 l 261 0 l 163 0 l 511 506 m 207 432 l 207 874 l 97 832 l 69 917 l 232 981 l 307 981 l 307 432 l 207 432 m 881 74 q 954 100 925 74 q 983 171 983 126 q 956 242 983 215 q 882 268 928 268 q 806 242 835 268 q 778 171 778 215 q 808 100 778 126 q 881 74 838 74 z "},"⅚":{"ha":1250,"x_min":50,"x_max":1185,"o":"m 988 -14 q 906 1 943 -14 q 844 40 869 17 q 795 119 815 71 q 775 253 775 167 l 775 256 q 790 378 775 322 q 835 472 806 433 q 908 533 865 511 q 1008 554 951 554 q 1099 540 1063 554 q 1168 497 1135 525 l 1118 418 q 1067 451 1093 439 q 1006 463 1040 463 q 919 419 954 463 q 881 306 885 376 q 933 337 904 325 q 1006 349 961 349 q 1074 338 1042 349 q 1131 305 1107 326 q 1170 251 1156 283 q 1185 176 1185 218 q 1170 99 1185 135 q 1129 39 1156 64 q 1067 0 1103 14 q 988 -14 1031 -14 m 258 418 q 143 442 193 418 q 50 501 93 465 l 111 578 q 183 528 147 546 q 260 511 219 511 q 337 535 307 511 q 367 600 367 560 q 337 663 367 640 q 258 686 307 686 q 199 680 228 686 q 150 663 171 674 l 86 701 l 107 972 l 442 972 l 442 879 l 190 879 l 181 757 q 226 768 200 764 q 278 772 251 772 q 351 761 317 772 q 413 729 386 750 q 453 677 439 708 q 468 606 468 646 q 410 469 468 521 q 258 418 353 418 m 594 506 l 906 972 l 1004 972 l 656 467 l 344 0 l 246 0 l 594 506 m 985 74 q 1058 100 1029 74 q 1088 171 1088 126 q 1060 242 1088 215 q 986 268 1032 268 q 910 242 939 268 q 882 171 882 215 q 912 100 882 126 q 985 74 942 74 z "},"⅛":{"ha":1146,"x_min":69,"x_max":1088,"o":"m 882 -14 q 733 29 790 -14 q 676 147 676 72 q 701 228 676 196 q 768 281 726 261 q 713 328 735 299 q 692 403 692 358 q 744 511 692 468 q 883 554 797 554 q 960 542 925 554 q 1019 510 994 531 q 1058 463 1044 490 q 1072 403 1072 435 q 1051 328 1072 357 q 996 281 1029 300 q 1062 229 1036 261 q 1088 149 1088 197 q 1072 81 1088 111 q 1030 30 1057 51 q 965 -3 1003 8 q 882 -14 926 -14 m 882 472 q 813 451 839 472 q 786 394 786 429 q 813 336 786 358 q 882 314 840 314 q 950 336 922 314 q 978 394 978 358 q 951 451 978 429 q 882 472 924 472 m 882 236 q 803 213 833 236 q 772 151 772 190 q 802 90 772 114 q 882 67 832 67 q 961 90 932 67 q 990 151 990 113 q 960 213 990 190 q 882 236 931 236 m 207 432 l 207 874 l 97 832 l 69 917 l 232 981 l 307 981 l 307 432 l 207 432 m 506 506 l 817 972 l 915 972 l 567 467 l 256 0 l 157 0 l 506 506 z "},"⅜":{"ha":1250,"x_min":49,"x_max":1192,"o":"m 986 -14 q 838 29 894 -14 q 781 147 781 72 q 806 228 781 196 q 872 281 831 261 q 817 328 839 299 q 796 403 796 358 q 849 511 796 468 q 988 554 901 554 q 1064 542 1029 554 q 1124 510 1099 531 q 1163 463 1149 490 q 1176 403 1176 435 q 1155 328 1176 357 q 1100 281 1133 300 q 1166 229 1140 261 q 1192 149 1192 197 q 1176 81 1192 111 q 1134 30 1161 51 q 1069 -3 1107 8 q 986 -14 1031 -14 m 986 472 q 917 451 943 472 q 890 394 890 429 q 917 336 890 358 q 986 314 944 314 q 1054 336 1026 314 q 1082 394 1082 358 q 1055 451 1082 429 q 986 472 1028 472 m 986 236 q 907 213 938 236 q 876 151 876 190 q 906 90 876 114 q 986 67 936 67 q 1065 90 1036 67 q 1094 151 1094 113 q 1065 213 1094 190 q 986 236 1035 236 m 594 506 l 906 972 l 1004 972 l 656 467 l 344 0 l 246 0 l 594 506 m 260 418 q 138 443 189 418 q 49 507 88 468 l 110 581 q 180 529 142 549 q 261 510 218 510 q 327 532 299 510 q 356 590 356 554 q 323 651 356 631 q 239 671 290 671 l 181 671 l 164 733 l 321 881 l 82 881 l 82 972 l 449 972 l 449 893 l 288 746 q 408 703 358 740 q 457 593 457 667 q 403 466 457 514 q 260 418 349 418 z "},"⅝":{"ha":1250,"x_min":50,"x_max":1192,"o":"m 986 -14 q 838 29 894 -14 q 781 147 781 72 q 806 228 781 196 q 872 281 831 261 q 817 328 839 299 q 796 403 796 358 q 849 511 796 468 q 988 554 901 554 q 1064 542 1029 554 q 1124 510 1099 531 q 1163 463 1149 490 q 1176 403 1176 435 q 1155 328 1176 357 q 1100 281 1133 300 q 1166 229 1140 261 q 1192 149 1192 197 q 1176 81 1192 111 q 1134 30 1161 51 q 1069 -3 1107 8 q 986 -14 1031 -14 m 986 472 q 917 451 943 472 q 890 394 890 429 q 917 336 890 358 q 986 314 944 314 q 1054 336 1026 314 q 1082 394 1082 358 q 1055 451 1082 429 q 986 472 1028 472 m 986 236 q 907 213 938 236 q 876 151 876 190 q 906 90 876 114 q 986 67 936 67 q 1065 90 1036 67 q 1094 151 1094 113 q 1065 213 1094 190 q 986 236 1035 236 m 594 506 l 906 972 l 1004 972 l 656 467 l 344 0 l 246 0 l 594 506 m 258 418 q 143 442 193 418 q 50 501 93 465 l 111 578 q 183 528 147 546 q 260 511 219 511 q 337 535 307 511 q 367 600 367 560 q 337 663 367 640 q 258 686 307 686 q 199 680 228 686 q 150 663 171 674 l 86 701 l 107 972 l 442 972 l 442 879 l 190 879 l 181 757 q 226 768 200 764 q 278 772 251 772 q 351 761 317 772 q 413 729 386 750 q 453 677 439 708 q 468 606 468 646 q 410 469 468 521 q 258 418 353 418 z "},"⅞":{"ha":1250,"x_min":90,"x_max":1192,"o":"m 986 -14 q 838 29 894 -14 q 781 147 781 72 q 806 228 781 196 q 872 281 831 261 q 817 328 839 299 q 796 403 796 358 q 849 511 796 468 q 988 554 901 554 q 1064 542 1029 554 q 1124 510 1099 531 q 1163 463 1149 490 q 1176 403 1176 435 q 1155 328 1176 357 q 1100 281 1133 300 q 1166 229 1140 261 q 1192 149 1192 197 q 1176 81 1192 111 q 1134 30 1161 51 q 1069 -3 1107 8 q 986 -14 1031 -14 m 986 472 q 917 451 943 472 q 890 394 890 429 q 917 336 890 358 q 986 314 944 314 q 1054 336 1026 314 q 1082 394 1082 358 q 1055 451 1082 429 q 986 472 1028 472 m 986 236 q 907 213 938 236 q 876 151 876 190 q 906 90 876 114 q 986 67 936 67 q 1065 90 1036 67 q 1094 151 1094 113 q 1065 213 1094 190 q 986 236 1035 236 m 122 429 l 357 878 l 90 878 l 90 972 l 474 972 l 474 894 l 236 429 l 122 429 m 553 506 l 864 972 l 963 972 l 614 467 l 303 0 l 204 0 l 553 506 z "},"⁰":{"ha":556,"x_min":60,"x_max":497,"o":"m 276 571 q 190 591 229 571 q 121 648 150 611 q 76 736 92 685 q 60 851 60 788 l 60 857 q 76 973 60 921 q 122 1062 93 1025 q 191 1119 151 1099 q 278 1139 231 1139 q 365 1119 325 1139 q 435 1062 406 1099 q 481 974 464 1025 q 497 858 497 922 l 497 853 q 481 737 497 789 q 434 648 464 685 q 364 591 404 611 q 276 571 324 571 m 276 1044 q 196 997 228 1044 q 164 860 164 949 l 164 850 q 196 714 164 763 q 278 665 228 665 q 359 713 326 665 q 392 850 392 761 l 392 860 q 358 996 392 947 q 276 1044 325 1044 z "},"¹":{"ha":451,"x_min":71,"x_max":308,"o":"m 208 585 l 208 1026 l 99 985 l 71 1069 l 233 1132 l 308 1132 l 308 585 l 208 585 z "},"²":{"ha":556,"x_min":76,"x_max":475,"o":"m 76 671 l 268 832 q 342 904 319 875 q 365 969 365 933 q 341 1025 365 1004 q 281 1046 317 1046 q 151 964 211 1046 l 79 1021 q 165 1107 118 1075 q 286 1139 211 1139 q 420 1094 369 1139 q 471 978 471 1049 q 464 926 471 950 q 443 881 457 903 q 406 835 429 858 q 353 788 383 813 l 214 674 l 475 674 l 475 585 l 76 585 l 76 671 z "},"³":{"ha":556,"x_min":63,"x_max":471,"o":"m 274 571 q 152 596 203 571 q 63 660 101 621 l 124 733 q 194 682 156 701 q 275 663 232 663 q 341 685 313 663 q 369 743 369 707 q 337 802 369 782 q 253 822 304 822 l 194 822 l 178 886 l 335 1033 l 96 1033 l 96 1125 l 463 1125 l 463 1046 l 301 899 q 422 856 372 892 q 471 746 471 819 q 417 619 471 667 q 274 571 363 571 z "},"⁴":{"ha":556,"x_min":60,"x_max":501,"o":"m 428 582 l 335 582 l 335 700 l 74 700 l 60 793 l 324 1131 l 428 1131 l 428 781 l 501 781 l 501 700 l 428 700 l 428 582 m 336 1019 l 151 781 l 336 781 l 336 1019 z "},"⁵":{"ha":556,"x_min":64,"x_max":482,"o":"m 272 571 q 157 594 207 571 q 64 654 107 618 l 125 729 q 197 681 161 697 q 274 664 233 664 q 351 688 321 664 q 381 753 381 713 q 351 815 381 793 q 272 838 321 838 q 213 831 242 838 q 164 815 185 825 l 100 854 l 121 1125 l 456 1125 l 456 1032 l 204 1032 l 194 910 q 240 921 214 917 q 292 925 265 925 q 365 914 331 925 q 426 882 400 903 q 467 830 453 861 q 482 758 482 799 q 424 622 482 672 q 272 571 367 571 z "},"⁶":{"ha":556,"x_min":67,"x_max":476,"o":"m 279 571 q 198 586 235 571 q 136 625 161 601 q 87 703 107 656 q 67 838 67 751 l 67 840 q 82 963 67 907 q 127 1057 97 1018 q 200 1117 157 1096 q 300 1139 243 1139 q 390 1124 354 1139 q 460 1082 426 1110 l 410 1003 q 358 1035 385 1024 q 297 1047 332 1047 q 211 1004 246 1047 q 172 890 176 961 q 224 922 196 910 q 297 933 253 933 q 366 922 333 933 q 423 890 399 911 q 462 835 447 868 q 476 761 476 803 q 462 684 476 719 q 421 624 447 649 q 358 585 394 599 q 279 571 322 571 m 276 658 q 350 685 321 658 q 379 756 379 711 q 351 826 379 800 q 278 853 324 853 q 202 826 231 853 q 174 756 174 800 q 203 685 174 711 q 276 658 233 658 z "},"⁷":{"ha":556,"x_min":90,"x_max":474,"o":"m 122 582 l 357 1029 l 90 1029 l 90 1125 l 474 1125 l 474 1047 l 236 582 l 122 582 z "},"⁸":{"ha":556,"x_min":72,"x_max":483,"o":"m 278 571 q 129 614 186 571 q 72 732 72 657 q 97 813 72 781 q 164 865 122 846 q 109 913 131 883 q 88 988 88 943 q 140 1096 88 1053 q 279 1139 193 1139 q 356 1127 321 1139 q 415 1095 390 1115 q 454 1047 440 1075 q 468 988 468 1019 q 447 913 468 942 q 392 865 425 885 q 458 814 432 846 q 483 733 483 782 q 468 666 483 696 q 426 615 453 636 q 360 582 399 593 q 278 571 322 571 m 278 1057 q 208 1035 235 1057 q 182 979 182 1014 q 209 921 182 943 q 278 899 236 899 q 346 921 318 899 q 374 979 374 943 q 347 1035 374 1014 q 278 1057 319 1057 m 278 821 q 199 798 229 821 q 168 736 168 775 q 198 675 168 699 q 278 651 228 651 q 357 674 328 651 q 386 736 386 697 q 356 798 386 775 q 278 821 326 821 z "},"⁹":{"ha":556,"x_min":79,"x_max":489,"o":"m 276 1139 q 358 1124 321 1139 q 419 1083 394 1108 q 469 1006 449 1054 q 489 872 489 958 l 489 869 q 428 651 489 732 q 256 571 368 571 q 161 588 201 571 q 88 632 121 604 l 138 711 q 192 676 163 689 q 258 663 222 663 q 344 703 308 663 q 382 814 379 744 q 331 783 358 794 q 260 771 304 771 q 191 782 224 771 q 133 815 158 793 q 94 870 108 838 q 79 946 79 903 q 94 1023 79 988 q 136 1084 110 1058 q 199 1124 163 1110 q 276 1139 235 1139 m 278 851 q 353 878 325 851 q 382 951 382 904 q 352 1024 382 996 q 279 1051 322 1051 q 206 1024 235 1051 q 176 951 176 996 q 204 878 176 906 q 278 851 232 851 z "},"₀":{"ha":556,"x_min":60,"x_max":497,"o":"m 276 -197 q 190 -177 229 -197 q 121 -120 150 -157 q 76 -32 92 -83 q 60 83 60 19 l 60 89 q 76 205 60 153 q 122 294 93 257 q 191 351 151 331 q 278 371 231 371 q 365 351 325 371 q 435 294 406 331 q 481 206 464 257 q 497 90 497 154 l 497 85 q 481 -31 497 21 q 434 -120 464 -83 q 364 -177 404 -157 q 276 -197 324 -197 m 276 276 q 196 228 228 276 q 164 92 164 181 l 164 82 q 196 -54 164 -6 q 278 -103 228 -103 q 359 -55 326 -103 q 392 82 392 -7 l 392 92 q 358 228 392 179 q 276 276 325 276 z "},"₁":{"ha":451,"x_min":71,"x_max":308,"o":"m 208 -183 l 208 258 l 99 217 l 71 301 l 233 364 l 308 364 l 308 -183 l 208 -183 z "},"₂":{"ha":556,"x_min":76,"x_max":475,"o":"m 76 -97 l 268 64 q 342 136 319 107 q 365 201 365 165 q 341 257 365 236 q 281 278 317 278 q 151 196 211 278 l 79 253 q 165 339 118 307 q 286 371 211 371 q 420 326 369 371 q 471 210 471 281 q 464 158 471 182 q 443 113 457 135 q 406 67 429 90 q 353 19 383 44 l 214 -94 l 475 -94 l 475 -183 l 76 -183 l 76 -97 z "},"₃":{"ha":556,"x_min":63,"x_max":471,"o":"m 274 -197 q 152 -172 203 -197 q 63 -108 101 -147 l 124 -35 q 194 -86 156 -67 q 275 -106 232 -106 q 341 -83 313 -106 q 369 -25 369 -61 q 337 34 369 14 q 253 54 304 54 l 194 54 l 178 118 l 335 265 l 96 265 l 96 357 l 463 357 l 463 278 l 301 131 q 422 88 372 124 q 471 -22 471 51 q 417 -149 471 -101 q 274 -197 363 -197 z "},"₄":{"ha":556,"x_min":60,"x_max":501,"o":"m 428 -186 l 335 -186 l 335 -68 l 74 -68 l 60 25 l 324 363 l 428 363 l 428 13 l 501 13 l 501 -68 l 428 -68 l 428 -186 m 336 251 l 151 13 l 336 13 l 336 251 z "},"₅":{"ha":556,"x_min":64,"x_max":482,"o":"m 272 -197 q 157 -174 207 -197 q 64 -114 107 -150 l 125 -39 q 197 -87 161 -71 q 274 -104 233 -104 q 351 -80 321 -104 q 381 -15 381 -56 q 351 47 381 25 q 272 69 321 69 q 213 63 242 69 q 164 47 185 57 l 100 86 l 121 357 l 456 357 l 456 264 l 204 264 l 194 142 q 240 153 214 149 q 292 157 265 157 q 365 146 331 157 q 426 114 400 135 q 467 62 453 93 q 482 -10 482 31 q 424 -147 482 -96 q 272 -197 367 -197 z "},"₆":{"ha":556,"x_min":67,"x_max":476,"o":"m 279 -197 q 198 -182 235 -197 q 136 -143 161 -167 q 87 -65 107 -112 q 67 69 67 -17 l 67 72 q 82 194 67 139 q 127 289 97 250 q 200 349 157 328 q 300 371 243 371 q 390 356 354 371 q 460 314 426 342 l 410 235 q 358 267 385 256 q 297 279 332 279 q 211 236 246 279 q 172 122 176 193 q 224 153 196 142 q 297 165 253 165 q 366 154 333 165 q 423 122 399 143 q 462 67 447 100 q 476 -7 476 35 q 462 -84 476 -49 q 421 -144 447 -119 q 358 -183 394 -169 q 279 -197 322 -197 m 276 -110 q 350 -83 321 -110 q 379 -12 379 -57 q 351 58 379 32 q 278 85 324 85 q 202 58 231 85 q 174 -12 174 32 q 203 -83 174 -57 q 276 -110 233 -110 z "},"₇":{"ha":556,"x_min":90,"x_max":474,"o":"m 122 -186 l 357 261 l 90 261 l 90 357 l 474 357 l 474 279 l 236 -186 l 122 -186 z "},"₈":{"ha":556,"x_min":72,"x_max":483,"o":"m 278 -197 q 129 -154 186 -197 q 72 -36 72 -111 q 97 45 72 13 q 164 97 122 78 q 109 145 131 115 q 88 219 88 175 q 140 328 88 285 q 279 371 193 371 q 356 359 321 371 q 415 327 390 347 q 454 279 440 307 q 468 219 468 251 q 447 145 468 174 q 392 97 425 117 q 458 46 432 78 q 483 -35 483 14 q 468 -102 483 -72 q 426 -153 453 -132 q 360 -186 399 -175 q 278 -197 322 -197 m 278 289 q 208 267 235 289 q 182 211 182 246 q 209 153 182 175 q 278 131 236 131 q 346 153 318 131 q 374 211 374 175 q 347 267 374 246 q 278 289 319 289 m 278 53 q 199 30 229 53 q 168 -32 168 7 q 198 -93 168 -69 q 278 -117 228 -117 q 357 -94 328 -117 q 386 -32 386 -71 q 356 30 386 7 q 278 53 326 53 z "},"₉":{"ha":556,"x_min":79,"x_max":489,"o":"m 276 371 q 358 356 321 371 q 419 315 394 340 q 469 238 449 286 q 489 104 489 190 l 489 101 q 428 -117 489 -36 q 256 -197 368 -197 q 161 -181 201 -197 q 88 -136 121 -164 l 138 -57 q 192 -92 163 -79 q 258 -106 222 -106 q 344 -65 308 -106 q 382 46 379 -24 q 331 15 358 26 q 260 3 304 3 q 191 14 224 3 q 133 47 158 25 q 94 102 108 69 q 79 178 79 135 q 94 255 79 219 q 136 316 110 290 q 199 356 163 342 q 276 371 235 371 m 278 83 q 353 110 325 83 q 382 183 382 136 q 352 256 382 228 q 279 283 322 283 q 206 256 235 283 q 176 183 176 228 q 204 110 176 138 q 278 83 232 83 z "},"C":{"ha":1025,"x_min":82,"x_max":971,"o":"m 576 -17 q 379 22 469 -17 q 223 128 289 61 q 119 288 157 196 q 82 483 82 379 l 82 486 q 119 681 82 590 q 222 841 156 772 q 381 949 289 910 q 583 989 472 989 q 705 978 650 989 q 806 947 760 967 q 890 899 851 926 q 964 838 929 871 l 854 711 q 731 799 796 765 q 582 832 665 832 q 453 805 513 832 q 352 731 394 778 q 285 622 310 685 q 261 489 261 560 l 261 486 q 285 352 261 415 q 351 242 308 289 q 453 169 394 196 q 582 142 513 142 q 735 175 671 142 q 861 267 799 208 l 971 156 q 892 84 933 115 q 804 30 851 53 q 701 -5 757 7 q 576 -17 644 -17 z "}," ":{"ha":417,"x_min":0,"x_max":0,"o":""}," ":{"ha":1389,"x_min":0,"x_max":0,"o":""}," ":{"ha":694,"x_min":0,"x_max":0,"o":""}," ":{"ha":463,"x_min":0,"x_max":0,"o":""}," ":{"ha":347,"x_min":0,"x_max":0,"o":""}," ":{"ha":185,"x_min":0,"x_max":0,"o":""}," ":{"ha":104,"x_min":0,"x_max":0,"o":""}," ":{"ha":833,"x_min":0,"x_max":0,"o":""},"A":{"ha":1097,"x_min":42,"x_max":1056,"o":"m 469 979 l 628 979 l 1056 0 l 875 0 l 776 235 l 317 235 l 217 0 l 42 0 l 469 979 m 714 386 l 546 775 l 379 386 l 714 386 z "},"^":{"ha":694,"x_min":78,"x_max":617,"o":"m 288 974 l 407 974 l 617 685 l 488 685 l 346 868 l 204 685 l 78 685 l 288 974 z "},"~":{"ha":688,"x_min":82,"x_max":606,"o":"m 450 332 q 390 342 419 332 q 335 363 361 351 q 290 380 311 372 q 251 388 268 388 q 206 371 221 388 q 175 318 190 354 l 82 347 q 140 475 106 431 q 238 519 174 519 q 297 510 268 519 q 353 490 326 501 q 398 472 376 479 q 436 465 419 465 q 482 481 467 465 q 513 533 497 497 l 606 506 q 548 376 582 421 q 450 332 514 332 z "},"⁄":{"ha":139,"x_min":-310,"x_max":449,"o":"m 39 506 l 350 972 l 449 972 l 100 467 l -211 0 l -310 0 l 39 506 z "},"´":{"ha":694,"x_min":225,"x_max":522,"o":"m 369 1054 l 522 986 l 351 826 l 225 826 l 369 1054 z "},"˝":{"ha":694,"x_min":88,"x_max":617,"o":"m 469 1054 l 617 986 l 446 826 l 324 826 l 469 1054 m 231 1054 l 378 986 l 210 826 l 88 826 l 231 1054 z "},"`":{"ha":694,"x_min":172,"x_max":469,"o":"m 172 986 l 325 1054 l 469 826 l 343 826 l 172 986 z "},"ˆ":{"ha":694,"x_min":108,"x_max":588,"o":"m 269 1031 l 425 1031 l 588 826 l 454 826 l 346 919 l 239 826 l 108 826 l 269 1031 z "},"ˇ":{"ha":694,"x_min":108,"x_max":588,"o":"m 425 826 l 269 826 l 108 1031 l 242 1031 l 349 938 l 457 1031 l 588 1031 l 425 826 z "},"˘":{"ha":694,"x_min":110,"x_max":586,"o":"m 347 824 q 182 876 247 824 q 110 1025 117 929 l 225 1025 q 266 964 238 988 q 347 940 294 940 q 428 964 400 940 q 469 1025 457 988 l 586 1025 q 513 876 578 929 q 347 824 447 824 z "},"˜":{"ha":694,"x_min":85,"x_max":610,"o":"m 454 826 q 393 835 422 826 q 338 856 364 844 q 293 874 314 867 q 254 882 272 882 q 208 865 224 882 q 178 813 193 849 l 85 842 q 142 969 108 925 q 240 1014 176 1014 q 301 1005 272 1014 q 357 985 331 996 q 402 966 381 974 q 440 958 424 958 q 486 975 471 958 q 517 1028 501 992 l 610 1000 q 552 871 586 915 q 454 826 518 826 z "},"¯":{"ha":694,"x_min":111,"x_max":583,"o":"m 111 964 l 583 964 l 583 842 l 111 842 l 111 964 z "},"¨":{"ha":694,"x_min":126,"x_max":568,"o":"m 397 992 l 568 992 l 568 826 l 397 826 l 397 992 m 126 992 l 297 992 l 297 826 l 126 826 l 126 992 z "},"˙":{"ha":694,"x_min":260,"x_max":435,"o":"m 260 992 l 435 992 l 435 826 l 260 826 l 260 992 z "},"˚":{"ha":694,"x_min":186,"x_max":508,"o":"m 347 824 q 285 836 314 824 q 233 869 256 849 q 199 919 211 890 q 186 979 186 947 q 199 1040 186 1011 q 233 1089 211 1068 q 285 1122 256 1110 q 347 1135 314 1135 q 410 1122 381 1135 q 461 1089 439 1110 q 496 1040 483 1068 q 508 979 508 1011 q 496 919 508 947 q 461 869 483 890 q 410 836 439 849 q 347 824 381 824 m 347 886 q 413 913 386 886 q 440 979 440 940 q 413 1045 440 1018 q 347 1072 386 1072 q 281 1045 308 1072 q 254 979 254 1018 q 281 913 254 940 q 347 886 308 886 z "},"̦":{"ha":694,"x_min":243,"x_max":429,"o":"m 243 -324 q 340 -229 346 -310 l 265 -229 l 265 -89 l 429 -89 l 429 -208 q 385 -334 429 -294 q 254 -378 340 -374 l 243 -324 z "},"¸":{"ha":694,"x_min":182,"x_max":438,"o":"m 182 -168 l 313 24 l 438 24 l 329 -231 l 182 -168 z "},"˛":{"ha":694,"x_min":253,"x_max":481,"o":"m 481 -228 q 457 -230 468 -229 q 436 -231 446 -231 q 299 -197 346 -229 q 253 -114 253 -164 q 272 -47 253 -78 q 325 17 292 -15 l 438 10 q 393 -42 406 -19 q 381 -87 381 -65 q 481 -147 381 -147 l 481 -228 z "},"B":{"ha":1003,"x_min":125,"x_max":935,"o":"m 125 972 l 561 972 q 815 886 729 972 q 881 725 881 821 l 881 722 q 869 644 881 678 q 838 584 857 610 q 794 539 819 558 q 742 506 768 519 q 820 470 785 490 q 881 422 856 450 q 921 357 907 394 q 935 269 935 319 l 935 267 q 909 151 935 201 q 836 68 883 101 q 722 17 789 35 q 575 0 656 0 l 125 0 l 125 972 m 710 697 q 666 788 710 756 q 539 821 622 821 l 293 821 l 293 563 l 526 563 q 660 595 610 563 q 710 694 710 628 l 710 697 m 764 288 q 715 384 764 350 q 564 418 665 418 l 293 418 l 293 151 l 576 151 q 714 185 664 151 q 764 285 764 218 l 764 288 z "}}}
